<?xml version="1.0" encoding="UTF-8"?>
<svg width="700pt" height="700pt" version="1.1" viewBox="0 0 700 700" xmlns="http://www.w3.org/2000/svg" xmlns:xlink="http://www.w3.org/1999/xlink">
 <defs>
  <symbol id="b" overflow="visible">
   <path d="m39.078-2.3281c-2.0117 1.043-4.1094 1.8281-6.2969 2.3594s-4.4648 0.79688-6.8281 0.79688c-7.0859 0-12.699-1.9766-16.844-5.9375-4.1367-3.957-6.2031-9.3281-6.2031-16.109 0-6.7891 2.0664-12.164 6.2031-16.125 4.1445-3.9688 9.7578-5.9531 16.844-5.9531 2.3633 0 4.6406 0.26562 6.8281 0.79688s4.2852 1.3242 6.2969 2.375v8.7969c-2.0312-1.3828-4.0391-2.3984-6.0156-3.0469-1.9688-0.64453-4.0469-0.96875-6.2344-0.96875-3.9062 0-6.9844 1.2578-9.2344 3.7656-2.2422 2.5-3.3594 5.9531-3.3594 10.359 0 4.3867 1.1172 7.8359 3.3594 10.344 2.25 2.5 5.3281 3.75 9.2344 3.75 2.1875 0 4.2656-0.32031 6.2344-0.96875 1.9766-0.64453 3.9844-1.6602 6.0156-3.0469z"/>
  </symbol>
  <symbol id="a" overflow="visible">
   <path d="m16.031-40.953v9.0625h10.516v7.2812h-10.516v13.531c0 1.4805 0.28906 2.4805 0.875 3 0.59375 0.52344 1.7656 0.78125 3.5156 0.78125h5.2344v7.2969h-8.7344c-4.0312 0-6.8867-0.83594-8.5625-2.5156-1.6797-1.6875-2.5156-4.5391-2.5156-8.5625v-13.531h-5.0781v-7.2812h5.0781v-9.0625z"/>
  </symbol>
  <symbol id="e" overflow="visible">
   <path d="m26.594-27.234v-17.078h10.266v44.312h-10.266v-4.6094c-1.3984 1.875-2.9453 3.25-4.6406 4.125-1.6875 0.875-3.6406 1.3125-5.8594 1.3125-3.9297 0-7.1562-1.5625-9.6875-4.6875-2.5234-3.125-3.7812-7.1445-3.7812-12.062 0-4.9141 1.2578-8.9375 3.7812-12.062 2.5312-3.125 5.7578-4.6875 9.6875-4.6875 2.1953 0 4.1445 0.44531 5.8438 1.3281 1.707 0.88672 3.2578 2.2578 4.6562 4.1094zm-6.7188 20.656c2.1875 0 3.8516-0.79688 5-2.3906 1.1445-1.5938 1.7188-3.9102 1.7188-6.9531 0-3.0391-0.57422-5.3594-1.7188-6.9531-1.1484-1.5938-2.8125-2.3906-5-2.3906-2.168 0-3.8242 0.79688-4.9688 2.3906-1.1484 1.5938-1.7188 3.9141-1.7188 6.9531 0 3.043 0.57031 5.3594 1.7188 6.9531 1.1445 1.5938 2.8008 2.3906 4.9688 2.3906z"/>
  </symbol>
  <symbol id="d" overflow="visible">
   <path d="m21.875-6.5781c2.1758 0 3.8359-0.79688 4.9844-2.3906 1.1562-1.5938 1.7344-3.9102 1.7344-6.9531 0-3.0391-0.57812-5.3594-1.7344-6.9531-1.1484-1.5938-2.8086-2.3906-4.9844-2.3906-2.1875 0-3.8672 0.80469-5.0312 2.4062-1.168 1.6055-1.75 3.918-1.75 6.9375 0 3.0234 0.58203 5.3359 1.75 6.9375 1.1641 1.6055 2.8438 2.4062 5.0312 2.4062zm-6.7812-20.656c1.4062-1.8516 2.9609-3.2227 4.6719-4.1094 1.707-0.88281 3.6719-1.3281 5.8906-1.3281 3.9375 0 7.1641 1.5625 9.6875 4.6875 2.5195 3.125 3.7812 7.1484 3.7812 12.062 0 4.918-1.2617 8.9375-3.7812 12.062-2.5234 3.125-5.75 4.6875-9.6875 4.6875-2.2188 0-4.1836-0.44531-5.8906-1.3281-1.7109-0.88281-3.2656-2.2539-4.6719-4.1094v4.6094h-10.188v-44.312h10.188z"/>
  </symbol>
  <symbol id="c" overflow="visible">
   <path d="m4.9062-31.891h10.188v31.891h-10.188zm0-12.422h10.188v8.3125h-10.188z"/>
  </symbol>
 </defs>
 <g>
  <path d="m242.67 554.17h-12.832c-77.004-5.8359-155.17-65.336-154-156.34 0-19.832 5.832-40.832 14-58.332 28-56 78.168-66.5 123.67-75.832 8.168-1.168 15.168-3.5 23.332-4.668 29.168-7 66.5-22.168 79.332-53.668 5.832-14 5.832-29.168 5.832-46.668 0-11.668 0-23.332 2.332-35 11.668-73.5 87.5-117.83 154-117.83 11.668 0 24.5 1.168 36.168 2.332h5.832c38.5 3.5 73.5 24.5 93.332 54.832 19.832 32.668 10.5 73.5 0 107.33-16.332 56-36.168 109.67-80.5 140-11.668 8.168-24.5 14-37.332 18.668-19.832 8.168-37.332 16.332-50.168 31.5-14 17.5-17.5 43.168-19.832 66.5-1.168 11.668-3.5 25.668-9.332 39.668-5.832 12.832-16.332 22.168-25.668 29.168-45.496 38.5-96.828 58.336-148.16 58.336zm234.5-525c-56 0-122.5 37.332-131.83 98-1.168 10.5-1.168 19.832-1.168 31.5 0 17.5 0 36.168-7 54.832-12.832 32.668-45.5 56-95.668 67.668-8.168 2.332-16.332 3.5-24.5 5.832-42 9.332-82.832 17.5-106.17 63-7 15.168-11.668 31.5-11.668 47.832-1.168 77 66.5 127.17 131.83 131.83 49 3.5 100.33-15.168 143.5-51.332 7-5.832 15.168-12.832 19.832-22.168 4.668-9.332 5.832-21 7-31.5 3.5-25.668 7-56 24.5-78.168 15.168-19.832 37.332-29.168 58.332-38.5 11.668-5.832 23.332-10.5 33.832-17.5 38.5-25.668 56-74.668 71.168-127.17 9.332-31.5 17.5-64.168 2.332-88.668-15.168-25.668-43.168-42-75.832-44.332h-5.832c-10.496 0.003906-20.996-1.1602-32.66-1.1602z"/>
  <path d="m178.5 374.5h-2.332c-7 0-11.668-5.832-11.668-11.668 0-7 5.832-11.668 11.668-11.668 2.332 0 5.832 0 8.168-2.332 5.832-3.5 12.832-1.168 16.332 4.668 3.5 5.832 1.168 12.832-4.668 16.332-4.668 3.5-10.5 4.668-17.5 4.668z"/>
  <path d="m228.67 483h-2.332c-5.832-1.168-11.668-5.832-10.5-12.832 1.168-5.832 5.832-11.668 12.832-10.5 2.332 0 4.668-1.168 5.832-2.332 4.668-4.668 11.668-4.668 16.332 0 4.668 4.668 4.668 11.668 0 16.332-5.832 5.832-14 9.332-22.164 9.332z"/>
  <path d="m306.83 385c-2.332 0-4.668-1.168-7-2.332-4.668-3.5-5.832-11.668-2.332-16.332 5.832-7 11.668-12.832 19.832-16.332 5.832-2.332 12.832 0 15.168 5.832 2.332 5.832 0 12.832-5.832 15.168-4.668 2.332-8.168 5.832-11.668 9.332-1.168 3.4961-4.668 4.6641-8.168 4.6641z"/>
  <path d="m364 443.33c-7 0-11.668-4.668-11.668-11.668s4.668-11.668 11.668-11.668c1.168 0 3.5-1.168 3.5-2.332 3.5-5.832 10.5-7 16.332-3.5s7 10.5 3.5 16.332c-5.832 8.1719-14 12.836-23.332 12.836z"/>
  <path d="m491.17 254.33c-5.832 0-10.5-4.668-11.668-10.5s4.668-11.668 10.5-12.832c8.168-1.168 16.332-8.168 17.5-16.332 1.168-5.832 7-10.5 14-9.332 5.832 1.168 10.5 7 9.332 14-4.6641 18.664-21 32.664-39.664 34.996z"/>
  <path d="m394.33 200.67c-1.168 0-2.332 0-3.5-1.168-5.832-2.332-9.332-9.332-7-15.168l5.832-15.168c2.332-5.832 9.332-9.332 15.168-7 5.832 2.332 9.332 9.332 7 15.168l-5.832 15.168c-2.332 4.668-7 8.168-11.668 8.168z"/>
  <path d="m441 99.168c-3.5 0-5.832-1.168-8.168-3.5-4.668-4.668-3.5-11.668 1.168-16.332 12.832-11.668 25.668-21 40.832-29.168 4.668-3.5 11.668-1.168 15.168 4.6641s1.168 12.832-4.668 16.332c-12.832 7-25.668 15.168-36.168 25.668-2.332 1.168-4.6641 2.3359-8.1641 2.3359z"/>
  <path d="m501.67 113.17v-2.332c-1.168-5.832 3.5-11.668 10.5-12.832 7-1.168 11.668 3.5 12.832 10.5v1.168z"/>
  <path d="m366.33 277.67c-2.332 0-4.668-1.168-7-2.332-5.832-3.5-7-10.5-2.332-16.332l3.5-5.832c3.5-5.832 10.5-7 16.332-2.332 5.832 3.5 7 10.5 2.332 16.332l-3.5 5.832c-2.332 2.3281-5.832 4.6641-9.332 4.6641z"/>
  <use x="70" y="735" xlink:href="#b"/>
  <use x="220.503906" y="735" xlink:href="#a"/>
  <use x="287.953125" y="735" xlink:href="#e"/>
  <use x="350.015625" y="735" xlink:href="#d"/>
  <use x="450.105469" y="735" xlink:href="#b"/>
  <use x="600.609375" y="735" xlink:href="#a"/>
  <use x="628.496094" y="735" xlink:href="#c"/>
 </g>
</svg>
