<svg xmlns="http://www.w3.org/2000/svg" xmlns:xlink="http://www.w3.org/1999/xlink" width="1280" zoomAndPan="magnify" viewBox="0 0 960 599.999999" height="800" preserveAspectRatio="xMidYMid meet" version="1.0"><rect x="-96" width="1152" fill="#ffffff" y="-60" height="719.999999" fill-opacity="1"/><rect x="-96" width="1152" fill="#ffffff" y="-60" height="719.999999" fill-opacity="1"/><rect x="-96" width="1152" fill="#ffffff" y="-60" height="719.999999" fill-opacity="1"/><path fill="#a5903a" d="M 857.214844 120.613281 C 849.761719 180.804688 834.285156 239.398438 807.375 294.988281 C 784.875 341.484375 758.390625 385.203125 727.753906 426.910156 C 694.085938 472.742188 649.636719 498.679688 594.949219 509.476562 C 528.570312 522.589844 462.230469 522.972656 396.957031 504.535156 C 353.246094 492.191406 314.277344 471.03125 283.886719 435.265625 C 250.796875 396.339844 225.640625 353.125 205.492188 306.507812 C 183.777344 256.28125 170.363281 203.539062 157.007812 150.757812 C 155.175781 143.476562 155.238281 135.734375 153.738281 128.347656 C 151.378906 116.765625 157.074219 109.253906 166.773438 105.886719 C 182.40625 100.457031 198.421875 95.613281 214.65625 92.464844 C 273.882812 80.976562 334.011719 78.414062 394.089844 77.800781 C 476.917969 76.949219 559.777344 77.191406 642.605469 78.550781 C 699.140625 79.476562 755.621094 83.308594 811.191406 95.199219 C 814.144531 95.832031 817.089844 96.519531 820.011719 97.253906 C 834.234375 100.828125 848.300781 104.664062 857.214844 120.613281 Z M 164.171875 121.71875 C 164.773438 139.585938 168.953125 155.089844 173.449219 170.488281 C 182.351562 200.992188 190.789062 231.660156 200.761719 261.800781 C 207.230469 281.355469 215.46875 300.390625 224 319.167969 C 246.125 367.851562 279.789062 407.941406 319.5625 442.980469 C 340.414062 461.347656 361.957031 480.308594 389.28125 487.363281 C 421.886719 495.785156 455.359375 501.324219 488.714844 506.34375 C 521.78125 511.320312 553.929688 502.386719 586.144531 496.3125 C 605.53125 492.65625 625.101562 489.191406 642.257812 478.894531 C 676.785156 458.152344 706.566406 431.640625 732.148438 400.667969 C 767.21875 358.199219 791.933594 309.726562 811.9375 258.71875 C 813.242188 255.378906 813.765625 251.734375 814.925781 247.144531 C 806.746094 251.53125 800.464844 256.351562 793.371094 258.402344 C 779.320312 262.464844 776.449219 273.300781 772.921875 286.15625 C 781.765625 282.578125 789.023438 279.648438 799.285156 275.507812 C 793.398438 286.683594 785.992188 291.445312 778.46875 294.375 C 764.578125 299.792969 756.929688 310.242188 751.082031 322.851562 C 750.8125 323.4375 751.464844 324.449219 751.816406 325.730469 C 755.488281 324.933594 759.148438 324.121094 762.816406 323.320312 C 763.386719 324.117188 763.9375 324.921875 764.492188 325.730469 C 744.472656 336.054688 727.902344 349.777344 717.457031 370.816406 C 721.304688 370.484375 724.585938 370.199219 727.863281 369.914062 C 711.464844 382.167969 692.5 389.929688 683.386719 409.734375 C 694.601562 410.972656 704.199219 401.113281 716.304688 405.980469 C 713.457031 414.339844 706.667969 415.820312 700.761719 417.585938 C 687.238281 421.632812 673.695312 426.183594 659.816406 428.148438 C 651.484375 429.328125 645.839844 432.878906 640.277344 438.066406 C 639.832031 438.488281 638.792969 438.28125 637.882812 438.378906 C 638.128906 436.375 638.367188 434.546875 638.597656 432.726562 C 621.933594 432.691406 619.382812 434.511719 612.757812 451.960938 C 630.960938 447.59375 648.546875 443.375 666.136719 439.15625 C 662.253906 447.886719 655.53125 451.042969 648.214844 452.675781 C 636.894531 455.199219 625.507812 457.601562 614.03125 459.097656 C 606.703125 460.054688 600.257812 461.625 595.46875 467.628906 C 595.117188 468.066406 593.726562 467.6875 596.058594 467.6875 C 591.929688 463.8125 589.515625 461.535156 586.613281 458.800781 C 600.191406 456.890625 606.183594 447.492188 610.546875 435.855469 C 606.566406 435.015625 602.847656 434.226562 597.28125 433.054688 C 618.863281 427.289062 626.152344 420.039062 631.488281 400.226562 C 608.910156 401.707031 586.46875 403.167969 564.027344 404.632812 C 569.460938 400.8125 575.234375 399.449219 581.058594 398.433594 C 598.460938 395.402344 615.917969 392.664062 633.292969 389.445312 C 637.023438 388.757812 641.800781 387.539062 643.800781 384.851562 C 649.421875 377.347656 653.84375 368.941406 659.316406 359.925781 C 630.003906 362.078125 602.660156 364.085938 575.328125 366.101562 C 575.234375 365.097656 575.128906 364.085938 575.035156 363.082031 C 576.894531 362.742188 578.746094 362.363281 580.601562 362.070312 C 606.027344 358.066406 631.476562 354.175781 656.875 349.96875 C 660.652344 349.347656 665.546875 348.3125 667.597656 345.65625 C 673.539062 337.980469 678.277344 329.378906 684.960938 318.816406 C 646.382812 322.789062 611.171875 323.320312 575.898438 320.742188 C 587.859375 318.605469 599.914062 317.976562 611.875 316.5625 C 645.4375 312.582031 678.992188 308.429688 712.480469 303.921875 C 715.988281 303.453125 720.359375 300.945312 722.152344 298.039062 C 726.5 291.023438 729.550781 283.21875 734.117188 273.652344 C 673.902344 281.449219 616.3125 285.085938 558.453125 281.863281 C 572.964844 279.59375 587.546875 278.597656 602.070312 277.070312 C 643.242188 272.726562 684.371094 267.921875 725.570312 263.8125 C 738.4375 262.53125 745.847656 256.855469 747.171875 242.179688 C 683.3125 252.1875 619.566406 258.78125 555.230469 255.042969 C 556.574219 253.769531 557.976562 253.289062 559.402344 253.152344 C 598.089844 249.203125 636.855469 246.03125 675.417969 241.15625 C 705.890625 237.316406 736.082031 231.253906 766.445312 226.480469 C 785.144531 223.539062 789.910156 218.121094 790.285156 197.269531 C 774.46875 200.777344 758.867188 204.761719 743.070312 207.59375 C 727.179688 210.445312 711.132812 212.417969 695.089844 214.292969 C 678.535156 216.230469 661.953125 217.847656 645.332031 219.117188 C 629.203125 220.355469 613.046875 221.617188 596.898438 221.683594 C 581.382812 221.757812 565.863281 220.316406 550.335938 219.539062 C 584.78125 215.898438 619.03125 213.617188 653.179688 210.351562 C 696.40625 206.21875 739.398438 200.601562 781.855469 190.847656 C 795.675781 187.667969 801.210938 180.929688 802.410156 166.757812 C 723.210938 184.582031 643.511719 187.839844 563.480469 187.851562 C 566.21875 186.238281 569.121094 185.703125 572.03125 185.390625 C 626.769531 179.601562 681.554688 174.292969 736.21875 167.910156 C 769.328125 164.042969 802.1875 158.3125 833.175781 145.050781 C 834.152344 144.632812 835.683594 145.5625 837.519531 145.988281 C 834.402344 158.769531 821.496094 157.238281 813.941406 163.546875 C 813.941406 169.09375 813.941406 174.882812 813.941406 180.707031 C 818.574219 180.453125 822.472656 180.238281 828.359375 179.921875 C 820.621094 185.226562 813.085938 188.183594 809.152344 193.691406 C 804.878906 199.667969 803.9375 208.035156 801.027344 216.917969 C 808.40625 215.394531 813.085938 214.421875 818.675781 213.273438 C 817.699219 221.394531 812.007812 223.597656 807.21875 225.042969 C 795.371094 228.640625 791.871094 237.375 789.402344 248.730469 C 799.902344 246.074219 808.984375 243.792969 818.085938 241.496094 C 835.28125 204.242188 840.101562 164.378906 844.257812 124.039062 C 841.84375 124.039062 840.722656 123.71875 839.894531 124.082031 C 803.394531 139.972656 764.714844 148.367188 725.570312 151.96875 C 667.765625 157.289062 609.691406 160.554688 551.652344 162.363281 C 474.855469 164.746094 398.089844 161.875 321.460938 155.847656 C 268.449219 151.6875 216.371094 143.144531 164.171875 121.71875 Z M 171.699219 112.480469 C 179.789062 115.738281 185.554688 118.570312 191.644531 120.414062 C 226.519531 131.015625 262.292969 137.886719 298.53125 140.324219 C 358.9375 144.390625 419.453125 147.742188 479.976562 149.039062 C 558.722656 150.726562 637.445312 147.167969 715.90625 140.105469 C 751.0625 136.929688 785.890625 130.691406 819.734375 120.160156 C 825.578125 118.34375 831.085938 115.425781 840.101562 111.597656 C 830.109375 108.289062 824.09375 105.472656 817.785156 104.359375 C 793.464844 100.070312 769.179688 94.5 744.636719 92.746094 C 688.777344 88.746094 632.792969 86.339844 576.832031 83.96875 C 499.578125 80.695312 422.355469 83.507812 345.226562 87.253906 C 304.457031 89.230469 263.804688 93.996094 223.203125 98.480469 C 206.449219 100.328125 189.472656 102.90625 171.699219 112.480469 Z M 712.542969 316.503906 C 691.800781 316.164062 686.941406 320.964844 683.925781 343.792969 C 704.085938 345.597656 704.96875 328.308594 712.542969 316.503906 Z M 690.832031 354.773438 C 681.996094 355.722656 675.34375 353.8125 671.117188 360.886719 C 666.789062 368.125 662.394531 375.328125 657.347656 383.675781 C 679.832031 386.003906 680.984375 367.777344 690.832031 354.773438 Z M 631.910156 422.226562 C 650 421.71875 656.445312 415.894531 662.667969 395.480469 C 642.910156 393.636719 641.125 411.195312 631.910156 422.226562 Z M 735.160156 298.035156 C 756.972656 297.929688 756.558594 281.378906 763.875 269.304688 C 742.160156 268.035156 742.8125 285.363281 735.160156 298.035156 Z M 717.132812 335.976562 C 733.261719 335.074219 735.214844 321.710938 742.105469 310.449219 C 722.015625 309.300781 723.34375 326.25 717.132812 335.976562 Z M 754.753906 257.925781 C 769.90625 258.210938 774.976562 249.925781 776.367188 237.667969 C 759.542969 238.203125 759.117188 238.585938 754.753906 257.925781 Z M 716.460938 349.59375 C 704.59375 351.996094 696.507812 361.882812 691.617188 378.820312 C 706.148438 373.382812 709.621094 359.992188 716.460938 349.59375 Z M 660.808594 417.085938 C 676.644531 412.535156 679.976562 400.160156 687.894531 390.742188 C 676.148438 393.007812 676.148438 393.007812 660.808594 417.085938 Z M 660.808594 417.085938 " fill-opacity="1" fill-rule="evenodd"/><path fill="#a5903a" d="M 367.625 423.0625 C 372.609375 428.492188 377.546875 433.964844 382.59375 439.324219 C 392.929688 450.308594 403.3125 461.230469 413.378906 471.859375 C 398.089844 469.746094 382.730469 467.625 364.050781 465.042969 C 369.125 461.558594 371.253906 460.109375 373.925781 458.28125 C 368.96875 452.804688 365.769531 447.828125 356.441406 446.847656 C 345.484375 445.699219 335.398438 438.585938 335.675781 424.507812 C 340.851562 428.425781 346.003906 432.324219 351.144531 436.210938 C 350.460938 430.324219 348.09375 426.058594 344.964844 422.472656 C 340.984375 417.914062 338.300781 421.226562 336.019531 424.78125 C 328.804688 420.4375 321.582031 416.09375 313.363281 411.148438 C 314.914062 409.03125 316.410156 407.011719 318.957031 403.5625 C 312.832031 397.566406 306.5625 391.417969 299.722656 384.726562 C 304.714844 369.394531 289.421875 365.152344 281.011719 357.046875 C 290.777344 340.742188 273.042969 339.160156 267.378906 330.535156 C 268.242188 329.722656 269.109375 328.855469 270.03125 328.050781 C 270.769531 327.429688 271.578125 326.890625 272.179688 326.433594 C 272.230469 311.113281 252.371094 315.613281 248.816406 301.988281 C 253.179688 302.382812 256.859375 302.722656 261.003906 303.105469 C 261.214844 301.976562 261.804688 300.585938 261.628906 299.3125 C 260.734375 293.132812 257.117188 290.125 250.972656 288.289062 C 244.253906 286.292969 236.941406 283.972656 231.109375 274.128906 C 240.347656 276.78125 246.359375 278.515625 253.617188 280.605469 C 252.886719 268.292969 249.324219 259.910156 237.0625 256.730469 C 231.972656 255.410156 227.378906 252.207031 223.445312 247.40625 C 230.160156 248.640625 236.886719 249.878906 245.363281 251.429688 C 244.359375 245.863281 243.519531 241.257812 242.808594 237.285156 C 234.460938 233.195312 227.019531 229.546875 217.613281 224.925781 C 226.292969 219.445312 232.253906 224.128906 238.304688 224.40625 C 241.988281 217.585938 239.355469 213.808594 232.769531 211.914062 C 227.441406 210.367188 221.96875 209.273438 216.757812 207.457031 C 214.277344 206.589844 212.234375 204.484375 210.578125 201.503906 C 231.785156 204.429688 252.25 209.457031 271.660156 218.929688 C 262.367188 217.769531 253.078125 216.605469 243.417969 215.394531 C 242.246094 223.804688 245.527344 227.53125 252.453125 229.359375 C 261.722656 231.796875 270.84375 234.75 279.972656 237.609375 C 283.210938 238.621094 286.335938 240.019531 289.054688 243.285156 C 276.296875 241.59375 263.546875 239.898438 250.765625 238.203125 C 250.714844 253.101562 250.765625 253.191406 263.921875 256.617188 C 273.992188 259.242188 284.089844 261.832031 293.988281 265.796875 C 281.871094 269.148438 270.117188 263.613281 258.15625 264.175781 C 259.761719 282.722656 260.921875 283.996094 277.839844 286.308594 C 286.742188 287.535156 295.648438 288.785156 304.457031 292.097656 C 292.289062 292.097656 280.117188 292.097656 267.746094 292.097656 C 267.421875 302.972656 271.953125 308.160156 281.1875 310.285156 C 292.351562 312.851562 303.359375 316.070312 314.265625 321.304688 C 308.75 321.304688 303.222656 321.617188 297.730469 321.222656 C 291.761719 320.804688 285.839844 319.722656 279.703125 318.90625 C 277.445312 328.75 283.09375 332.03125 290.09375 334.335938 C 300.496094 337.773438 310.925781 341.191406 323.011719 345.15625 C 318.585938 346.910156 315.933594 347.949219 311.152344 349.835938 C 316.046875 356.816406 319.921875 363.625 325.117188 369.207031 C 327.679688 371.945312 326.566406 373.128906 326.484375 375.902344 C 326.269531 382.582031 330.820312 386.6875 337.609375 388.0625 C 343.320312 389.207031 348.957031 390.683594 354.339844 394.304688 C 349.101562 394.808594 343.867188 395.3125 337.730469 395.914062 C 340.300781 407.785156 346.636719 415.308594 358.773438 415.125 C 365.6875 415.027344 367.625 417.875 368.140625 423.558594 C 363.570312 420.496094 358.992188 417.976562 353.226562 423.128906 C 359.386719 430.714844 361.367188 442.648438 375.492188 440.988281 C 372.664062 434.539062 370.15625 428.808594 367.625 423.0625 Z M 309.089844 347.339844 C 302.496094 345.863281 296.457031 344.511719 289.449219 342.953125 C 295.375 358.742188 295.574219 358.902344 313.070312 361.6875 C 311.679688 356.683594 310.453125 352.222656 309.089844 347.339844 Z M 394.550781 463.109375 C 381.71875 446.257812 381.71875 446.257812 372.714844 449.082031 C 377.433594 456.914062 382.445312 463.964844 394.550781 463.109375 Z M 304.457031 371.585938 C 307.339844 380.402344 311.414062 386.167969 321.726562 383.050781 C 320.210938 372.34375 313.734375 370.355469 304.457031 371.585938 Z M 336.257812 409.535156 C 332.683594 401.105469 331.117188 392.3125 318.816406 395.554688 C 322.308594 402.523438 324.878906 409.488281 336.257812 409.535156 Z M 336.257812 409.535156 " fill-opacity="1" fill-rule="evenodd"/><path fill="#a5903a" d="M 199.011719 176.644531 C 226.179688 182.710938 253.347656 188.777344 283.128906 195.433594 C 255.699219 199.359375 209.15625 189.703125 199.011719 176.644531 Z M 199.011719 176.644531 " fill-opacity="1" fill-rule="evenodd"/><path fill="#a5903a" d="M 434.089844 481.824219 C 415.410156 470.183594 401.34375 454.789062 394.164062 433.804688 C 395.105469 433.03125 396.042969 432.25 396.992188 431.472656 C 403.292969 439.46875 409.511719 447.53125 415.925781 455.429688 C 422.539062 463.558594 429.351562 471.527344 436.058594 479.566406 C 435.40625 480.316406 434.742188 481.070312 434.089844 481.824219 Z M 434.089844 481.824219 " fill-opacity="1" fill-rule="evenodd"/><path fill="#a5903a" d="M 260.488281 174.621094 C 236.832031 173.554688 213.203125 170.113281 192.460938 155.921875 C 215.128906 162.152344 237.816406 168.378906 260.488281 174.621094 Z M 260.488281 174.621094 " fill-opacity="1" fill-rule="evenodd"/><path fill="#a5903a" d="M 458.289062 482.535156 C 439.394531 473.703125 431.058594 464.9375 425.808594 450.832031 C 436.625 461.40625 447.457031 471.96875 458.289062 482.535156 Z M 458.289062 482.535156 " fill-opacity="1" fill-rule="evenodd"/><path fill="#a5903a" d="M 473.019531 480.285156 C 466.242188 474.867188 459.472656 469.453125 452.695312 464.03125 C 462.527344 465.558594 462.996094 465.890625 475.019531 477.953125 C 474.347656 478.730469 473.683594 479.503906 473.019531 480.285156 Z M 473.019531 480.285156 " fill-opacity="1" fill-rule="evenodd"/><path fill="#a5903a" d="M 491.40625 476.261719 C 487.390625 473.582031 483.273438 471.03125 479.386719 468.179688 C 477.074219 466.488281 475.136719 464.308594 474.84375 460.109375 C 481.15625 464.605469 487.480469 469.117188 493.804688 473.617188 C 492.992188 474.492188 492.199219 475.378906 491.40625 476.261719 Z M 491.40625 476.261719 " fill-opacity="1" fill-rule="evenodd"/></svg>