<?xml version="1.0" encoding="UTF-8"?>
<svg width="700pt" height="700pt" version="1.1" viewBox="0 0 700 700" xmlns="http://www.w3.org/2000/svg" xmlns:xlink="http://www.w3.org/1999/xlink">
 <defs>
  <symbol id="v" overflow="visible">
   <path d="m19.547-1.1719c-1.0117 0.52344-2.0625 0.91406-3.1562 1.1719-1.0938 0.26953-2.2344 0.40625-3.4219 0.40625-3.543 0-6.3516-0.98828-8.4219-2.9688-2.0625-1.9766-3.0938-4.6602-3.0938-8.0469 0-3.4062 1.0312-6.0977 3.0938-8.0781 2.0703-1.9766 4.8789-2.9688 8.4219-2.9688 1.1875 0 2.3281 0.13672 3.4219 0.40625 1.0938 0.26172 2.1445 0.65625 3.1562 1.1875v4.3906c-1.0234-0.6875-2.0273-1.1914-3.0156-1.5156-0.98047-0.32031-2.0156-0.48438-3.1094-0.48438-1.9609 0-3.5 0.625-4.625 1.875-1.1172 1.25-1.6719 2.9805-1.6719 5.1875 0 2.1875 0.55469 3.9141 1.6719 5.1719 1.125 1.25 2.6641 1.875 4.625 1.875 1.0938 0 2.1289-0.16016 3.1094-0.48438 0.98828-0.32031 1.9922-0.82812 3.0156-1.5156z"/>
  </symbol>
  <symbol id="b" overflow="visible">
   <path d="m14.297-11.609c-0.44922-0.20703-0.89062-0.35938-1.3281-0.45312-0.4375-0.10156-0.88281-0.15625-1.3281-0.15625-1.3125 0-2.3242 0.42188-3.0312 1.2656-0.71094 0.83594-1.0625 2.0391-1.0625 3.6094v7.3438h-5.0938v-15.953h5.0938v2.625c0.65625-1.0508 1.4062-1.8164 2.25-2.2969 0.85156-0.47656 1.875-0.71875 3.0625-0.71875 0.17578 0 0.36328 0.011719 0.5625 0.03125 0.19531 0.011719 0.48438 0.042969 0.85938 0.09375z"/>
  </symbol>
  <symbol id="a" overflow="visible">
   <path d="m18.375-8.0156v1.4531h-11.922c0.125 1.1992 0.55469 2.0938 1.2969 2.6875 0.73828 0.59375 1.7734 0.89062 3.1094 0.89062 1.0703 0 2.1719-0.15625 3.2969-0.46875 1.125-0.32031 2.2812-0.80469 3.4688-1.4531v3.9375c-1.2109 0.46094-2.418 0.80469-3.625 1.0312-1.2109 0.22656-2.4141 0.34375-3.6094 0.34375-2.8984 0-5.1484-0.72656-6.75-2.1875-1.5938-1.4688-2.3906-3.5312-2.3906-6.1875 0-2.5938 0.78516-4.6328 2.3594-6.125 1.5703-1.5 3.7344-2.25 6.4844-2.25 2.5078 0 4.5156 0.75781 6.0156 2.2656 1.5078 1.5117 2.2656 3.5312 2.2656 6.0625zm-5.2344-1.7031c0-0.96875-0.28906-1.75-0.85938-2.3438-0.5625-0.59375-1.2969-0.89062-2.2031-0.89062-0.99219 0-1.7969 0.28125-2.4219 0.84375-0.61719 0.55469-0.99609 1.3516-1.1406 2.3906z"/>
  </symbol>
  <symbol id="e" overflow="visible">
   <path d="m9.5938-7.1719c-1.0625 0-1.8672 0.18359-2.4062 0.54688-0.53125 0.35547-0.79688 0.88281-0.79688 1.5781 0 0.64844 0.21094 1.1523 0.64062 1.5156 0.4375 0.36719 1.0391 0.54688 1.8125 0.54688 0.95703 0 1.7656-0.34375 2.4219-1.0312s0.98438-1.5469 0.98438-2.5781v-0.57812zm7.7969-1.9375v9.1094h-5.1406v-2.3594c-0.6875 0.96875-1.4609 1.6719-2.3125 2.1094-0.85547 0.4375-1.8906 0.65625-3.1094 0.65625-1.6562 0-3-0.47656-4.0312-1.4375-1.0312-0.96875-1.5469-2.2188-1.5469-3.75 0-1.875 0.64062-3.25 1.9219-4.125 1.2891-0.875 3.3164-1.3125 6.0781-1.3125h3v-0.39062c0-0.8125-0.32031-1.4062-0.95312-1.7812-0.63672-0.375-1.6328-0.5625-2.9844-0.5625-1.0859 0-2.1016 0.10938-3.0469 0.32812-0.9375 0.21875-1.8086 0.54688-2.6094 0.98438v-3.8906c1.082-0.25781 2.1758-0.45703 3.2812-0.59375 1.1016-0.14453 2.207-0.21875 3.3125-0.21875 2.875 0 4.9453 0.57031 6.2188 1.7031 1.2812 1.1367 1.9219 2.9805 1.9219 5.5312z"/>
  </symbol>
  <symbol id="d" overflow="visible">
   <path d="m8.0156-20.484v4.5312h5.2656v3.6406h-5.2656v6.7656c0 0.74219 0.14453 1.2461 0.4375 1.5156 0.30078 0.26172 0.89062 0.39062 1.7656 0.39062h2.6094v3.6406h-4.3594c-2.0234 0-3.4531-0.41406-4.2969-1.25-0.83594-0.84375-1.25-2.2734-1.25-4.2969v-6.7656h-2.5312v-3.6406h2.5312v-4.5312z"/>
  </symbol>
  <symbol id="j" overflow="visible">
   <path d="m13.297-13.625v-8.5312h5.1406v22.156h-5.1406v-2.3125c-0.69922 0.94922-1.4688 1.6406-2.3125 2.0781-0.84375 0.42578-1.8242 0.64062-2.9375 0.64062-1.9688 0-3.5859-0.77344-4.8438-2.3281-1.2617-1.5625-1.8906-3.5781-1.8906-6.0469 0-2.457 0.62891-4.4688 1.8906-6.0312 1.2578-1.5625 2.875-2.3438 4.8438-2.3438 1.1016 0 2.0781 0.22656 2.9219 0.67188 0.85156 0.4375 1.6289 1.1211 2.3281 2.0469zm-3.3594 10.328c1.0938 0 1.9258-0.39453 2.5-1.1875 0.57031-0.80078 0.85938-1.9609 0.85938-3.4844 0-1.5078-0.28906-2.6641-0.85938-3.4688-0.57422-0.80078-1.4062-1.2031-2.5-1.2031-1.0859 0-1.9141 0.40234-2.4844 1.2031-0.57422 0.80469-0.85938 1.9609-0.85938 3.4688 0 1.5234 0.28516 2.6836 0.85938 3.4844 0.57031 0.79297 1.3984 1.1875 2.4844 1.1875z"/>
  </symbol>
  <symbol id="i" overflow="visible">
   <path d="m10.938-3.2969c1.0938 0 1.9258-0.39453 2.5-1.1875 0.57031-0.80078 0.85938-1.9609 0.85938-3.4844 0-1.5078-0.28906-2.6641-0.85938-3.4688-0.57422-0.80078-1.4062-1.2031-2.5-1.2031s-1.9336 0.40234-2.5156 1.2031c-0.58594 0.80469-0.875 1.9609-0.875 3.4688 0 1.5117 0.28906 2.668 0.875 3.4688 0.58203 0.80469 1.4219 1.2031 2.5156 1.2031zm-3.3906-10.328c0.70703-0.92578 1.4883-1.6094 2.3438-2.0469 0.85156-0.44531 1.832-0.67188 2.9375-0.67188 1.9688 0 3.582 0.78125 4.8438 2.3438 1.2695 1.5625 1.9062 3.5742 1.9062 6.0312 0 2.4688-0.63672 4.4844-1.9062 6.0469-1.2617 1.5547-2.875 2.3281-4.8438 2.3281-1.1055 0-2.0859-0.21875-2.9375-0.65625-0.85547-0.4375-1.6367-1.125-2.3438-2.0625v2.3125h-5.0938v-22.156h5.0938z"/>
  </symbol>
  <symbol id="h" overflow="visible">
   <path d="m0.35938-15.953h5.0938l4.2969 10.828 3.6406-10.828h5.0938l-6.7031 17.469c-0.67969 1.7695-1.4648 3.0078-2.3594 3.7188-0.89844 0.70703-2.0781 1.0625-3.5469 1.0625h-2.9531v-3.3438h1.5938c0.86328 0 1.4922-0.14062 1.8906-0.42188 0.39453-0.27344 0.70312-0.76562 0.92188-1.4844l0.14062-0.4375z"/>
  </symbol>
  <symbol id="f" overflow="visible">
   <path d="m12.953-22.156v3.3438h-2.8281c-0.71875 0-1.2266 0.13281-1.5156 0.39062-0.28125 0.26172-0.42188 0.71484-0.42188 1.3594v1.1094h4.3594v3.6406h-4.3594v12.312h-5.0938v-12.312h-2.5312v-3.6406h2.5312v-1.1094c0-1.7383 0.48438-3.0195 1.4531-3.8438 0.96875-0.83203 2.4688-1.25 4.5-1.25z"/>
  </symbol>
  <symbol id="u" overflow="visible">
   <path d="m2.4531-15.953h5.0938v15.953h-5.0938zm0-6.2031h5.0938v4.1562h-5.0938z"/>
  </symbol>
  <symbol id="g" overflow="visible">
   <path d="m14.906-15.453v3.875c-1.0859-0.45703-2.1367-0.80078-3.1562-1.0312-1.0117-0.22656-1.9688-0.34375-2.875-0.34375-0.96875 0-1.6875 0.125-2.1562 0.375-0.46875 0.24219-0.70312 0.60938-0.70312 1.1094 0 0.40625 0.17578 0.71875 0.53125 0.9375 0.35156 0.21875 0.99219 0.38281 1.9219 0.48438l0.89062 0.14062c2.6133 0.32422 4.3672 0.86719 5.2656 1.625 0.90625 0.76172 1.3594 1.9531 1.3594 3.5781 0 1.6992-0.63281 2.9766-1.8906 3.8281-1.25 0.85547-3.1211 1.2812-5.6094 1.2812-1.0547 0-2.1406-0.085938-3.2656-0.25-1.125-0.15625-2.2812-0.39844-3.4688-0.73438v-3.875c1.0195 0.49219 2.0625 0.85938 3.125 1.1094 1.0703 0.24219 2.1602 0.35938 3.2656 0.35938 0.98828 0 1.7344-0.13281 2.2344-0.40625 0.50781-0.26953 0.76562-0.67578 0.76562-1.2188 0-0.45703-0.17969-0.79688-0.53125-1.0156-0.34375-0.22656-1.0312-0.40625-2.0625-0.53125l-0.89062-0.10938c-2.2734-0.28125-3.8672-0.80469-4.7812-1.5781-0.90625-0.76953-1.3594-1.9414-1.3594-3.5156 0-1.6875 0.57812-2.9375 1.7344-3.75 1.1562-0.82031 2.9297-1.2344 5.3281-1.2344 0.9375 0 1.9219 0.074219 2.9531 0.21875 1.0391 0.14844 2.1641 0.37109 3.375 0.67188z"/>
  </symbol>
  <symbol id="t" overflow="visible">
   <path d="m2.4531-22.156h5.0938v22.156h-5.0938z"/>
  </symbol>
  <symbol id="c" overflow="visible">
   <path d="m10.047-12.688c-1.1367 0-2 0.40625-2.5938 1.2188s-0.89062 1.9805-0.89062 3.5c0 1.5312 0.29688 2.7031 0.89062 3.5156s1.457 1.2188 2.5938 1.2188c1.1016 0 1.9453-0.40625 2.5312-1.2188 0.59375-0.8125 0.89062-1.9844 0.89062-3.5156 0-1.5195-0.29688-2.6875-0.89062-3.5-0.58594-0.8125-1.4297-1.2188-2.5312-1.2188zm0-3.6562c2.7383 0 4.8789 0.74609 6.4219 2.2344 1.5391 1.4805 2.3125 3.5273 2.3125 6.1406 0 2.625-0.77344 4.6797-2.3125 6.1562-1.543 1.4805-3.6836 2.2188-6.4219 2.2188-2.7617 0-4.918-0.73828-6.4688-2.2188-1.5547-1.4766-2.3281-3.5312-2.3281-6.1562 0-2.6133 0.77344-4.6602 2.3281-6.1406 1.5508-1.4883 3.707-2.2344 6.4688-2.2344z"/>
  </symbol>
  <symbol id="s" overflow="visible">
   <path d="m0.4375-15.953h5.1094l3.9688 11.031 3.9531-11.031h5.125l-6.2812 15.953h-5.6094z"/>
  </symbol>
  <symbol id="r" overflow="visible">
   <path d="m17.234-13.297c0.64453-0.98828 1.4102-1.7422 2.2969-2.2656 0.89453-0.51953 1.875-0.78125 2.9375-0.78125 1.832 0 3.2266 0.57031 4.1875 1.7031 0.95703 1.125 1.4375 2.7656 1.4375 4.9219v9.7188h-5.125v-8.3125-0.39062c0.007812-0.13281 0.015625-0.32031 0.015625-0.5625 0-1.1328-0.16797-1.9531-0.5-2.4531-0.32422-0.50781-0.85938-0.76562-1.6094-0.76562-0.96875 0-1.7188 0.40234-2.25 1.2031-0.52344 0.79297-0.79297 1.9453-0.8125 3.4531v7.8281h-5.125v-8.3125c0-1.7695-0.15234-2.9062-0.45312-3.4062-0.30469-0.50781-0.84375-0.76562-1.625-0.76562-0.98047 0-1.7344 0.40234-2.2656 1.2031-0.53125 0.80469-0.79688 1.9492-0.79688 3.4375v7.8438h-5.125v-15.953h5.125v2.3281c0.625-0.89453 1.3438-1.5703 2.1562-2.0312 0.8125-0.45703 1.707-0.6875 2.6875-0.6875 1.1016 0 2.0781 0.26562 2.9219 0.79688s1.4844 1.2812 1.9219 2.25z"/>
  </symbol>
  <symbol id="q" overflow="visible">
   <path d="m18.484-9.7188v9.7188h-5.125v-7.4062c0-1.3945-0.03125-2.3516-0.09375-2.875-0.0625-0.51953-0.16797-0.90625-0.3125-1.1562-0.19922-0.33203-0.46875-0.58594-0.8125-0.76562-0.34375-0.1875-0.73438-0.28125-1.1719-0.28125-1.0625 0-1.9023 0.41406-2.5156 1.2344-0.60547 0.8125-0.90625 1.9492-0.90625 3.4062v7.8438h-5.0938v-22.156h5.0938v8.5312c0.76953-0.92578 1.5859-1.6094 2.4531-2.0469 0.86328-0.44531 1.8164-0.67188 2.8594-0.67188 1.8438 0 3.2383 0.57031 4.1875 1.7031 0.95703 1.125 1.4375 2.7656 1.4375 4.9219z"/>
  </symbol>
  <symbol id="p" overflow="visible">
   <path d="m2.6719-21.266h6.125l7.7344 14.578v-14.578h5.2031v21.266h-6.125l-7.7344-14.594v14.594h-5.2031z"/>
  </symbol>
  <symbol id="o" overflow="visible">
   <path d="m2.2812-6.2031v-9.75h5.125v1.5938c0 0.86719-0.007812 1.9531-0.015625 3.2656-0.011719 1.3047-0.015625 2.1719-0.015625 2.6094 0 1.2812 0.03125 2.2031 0.09375 2.7656 0.070312 0.5625 0.1875 0.97656 0.34375 1.2344 0.21875 0.33594 0.49219 0.58984 0.82812 0.76562 0.33203 0.17969 0.71875 0.26562 1.1562 0.26562 1.0625 0 1.8945-0.40625 2.5-1.2188 0.61328-0.8125 0.92188-1.9453 0.92188-3.4062v-7.875h5.0938v15.953h-5.0938v-2.3125c-0.77344 0.9375-1.5898 1.625-2.4531 2.0625-0.85547 0.4375-1.7969 0.65625-2.8281 0.65625-1.8438 0-3.25-0.5625-4.2188-1.6875-0.96094-1.1328-1.4375-2.7734-1.4375-4.9219z"/>
  </symbol>
  <symbol id="n" overflow="visible">
   <path d="m18.484-9.7188v9.7188h-5.125v-7.4375c0-1.375-0.03125-2.3203-0.09375-2.8438-0.0625-0.51953-0.16797-0.90625-0.3125-1.1562-0.19922-0.33203-0.46875-0.58594-0.8125-0.76562-0.34375-0.1875-0.73438-0.28125-1.1719-0.28125-1.0625 0-1.9023 0.41406-2.5156 1.2344-0.60547 0.8125-0.90625 1.9492-0.90625 3.4062v7.8438h-5.0938v-15.953h5.0938v2.3281c0.76953-0.92578 1.5859-1.6094 2.4531-2.0469 0.86328-0.44531 1.8164-0.67188 2.8594-0.67188 1.8438 0 3.2383 0.57031 4.1875 1.7031 0.95703 1.125 1.4375 2.7656 1.4375 4.9219z"/>
  </symbol>
  <symbol id="m" overflow="visible">
   <path d="m2.6719-21.266h9.1094c2.707 0 4.7852 0.60547 6.2344 1.8125 1.4453 1.1992 2.1719 2.9062 2.1719 5.125 0 2.2305-0.72656 3.9492-2.1719 5.1562-1.4492 1.1992-3.5273 1.7969-6.2344 1.7969h-3.625v7.375h-5.4844zm5.4844 3.9688v5.9375h3.0469c1.0625 0 1.8789-0.25391 2.4531-0.76562 0.58203-0.51953 0.875-1.2539 0.875-2.2031 0-0.94531-0.29297-1.6758-0.875-2.1875-0.57422-0.51953-1.3906-0.78125-2.4531-0.78125z"/>
  </symbol>
  <symbol id="l" overflow="visible">
   <path d="m2.4531-15.953h5.0938v15.672c0 2.1328-0.51562 3.7656-1.5469 4.8906-1.0234 1.125-2.5078 1.6875-4.4531 1.6875h-2.5156v-3.3438h0.89062c0.96875 0 1.6289-0.21875 1.9844-0.65625 0.36328-0.4375 0.54688-1.2969 0.54688-2.5781zm0-6.2031h5.0938v4.1562h-5.0938z"/>
  </symbol>
  <symbol id="k" overflow="visible">
   <path d="m15.344-15.453v4.1562c-0.69922-0.46875-1.3984-0.81641-2.0938-1.0469-0.69922-0.22656-1.4219-0.34375-2.1719-0.34375-1.4297 0-2.5391 0.41797-3.3281 1.25-0.79297 0.82422-1.1875 1.9805-1.1875 3.4688 0 1.5 0.39453 2.668 1.1875 3.5 0.78906 0.82422 1.8984 1.2344 3.3281 1.2344 0.80078 0 1.5547-0.11719 2.2656-0.35938 0.71875-0.23828 1.3828-0.58594 2-1.0469v4.1719c-0.80469 0.29297-1.6172 0.50781-2.4375 0.65625-0.8125 0.14453-1.6367 0.21875-2.4688 0.21875-2.875 0-5.125-0.73438-6.75-2.2031-1.625-1.4766-2.4375-3.5352-2.4375-6.1719 0-2.625 0.8125-4.6758 2.4375-6.1562 1.625-1.4766 3.875-2.2188 6.75-2.2188 0.83203 0 1.6562 0.078125 2.4688 0.23438 0.8125 0.14844 1.625 0.36719 2.4375 0.65625z"/>
  </symbol>
 </defs>
 <g>
  <path d="m546.13 57.316c-23.297-12.797-45.949-19.281-67.32-19.281-36.277 0-60.762 18.23-73.527 31.133l1.2656-6.0508c0.30859-1.4805-0.25-3.0039-1.4336-3.9414-1.1953-0.93359-2.8125-1.1094-4.1719-0.45312-22.652 10.832-38.953 38.16-48.031 57.266-0.39844-4.8242-1.1719-10.23-2.5625-15.973-4.6953-19.379-17.488-46.422-51.84-65.211-14.465-7.9141-28.496-11.93-41.68-11.93-38.715 0-57.02 33.637-57.785 35.062-0.74219 1.3945-0.58203 3.0977 0.39844 4.3359 0.98047 1.2383 2.6094 1.7773 4.125 1.3711 8.8945-2.3555 17.605-3.5508 25.875-3.5508 32.492 0 51.988 17.953 60.387 28.062l-15.918-1.2969c-1.9492-0.16406-3.6914 1.0977-4.1719 2.9766-0.47656 1.8789 0.46484 3.8281 2.2344 4.6133 22.148 9.8828 37.199 31.809 45.289 46.695-13.73-9.4375-36.812-21.582-64.68-21.582-23.164 0-45.312 8.4766-65.828 25.207-20.812 16.953-32.449 37.191-34.578 60.16-4.043 43.395 27.016 80.734 28.344 82.297 1.1719 1.3984 3.168 1.8125 4.8086 0.99219 1.6406-0.81641 2.5078-2.6523 2.0938-4.4453-7.3398-32.012 1.6172-61.062 26.605-86.344 8.582-8.6758 17.68-15.41 25.102-20.195l-2.7578 3.7852c-1.0859 1.4883-1.0156 3.5234 0.17969 4.9219 1.1953 1.3945 3.1914 1.7969 4.8281 0.96094 14.992-7.6289 30.184-11.496 45.113-11.496 11.906 0 22.055 2.4805 29.941 5.4258-0.98047 0.625-1.9258 1.3008-2.8125 2.043-18.516 2.8125-45.016 15.055-45.016 62.02 0 73.867 36.312 97.906 37.859 98.898 0.64844 0.42188 1.3867 0.625 2.1406 0.625 0.88672 0 1.7891-0.30859 2.5312-0.91016 1.3242-1.0977 1.7891-2.918 1.1719-4.5156-14.891-37.898-9.8008-72-6.0391-87.441l6.3828 11.305c0.88672 1.582 2.7109 2.3516 4.4688 1.8945 1.7461-0.46094 2.9648-2.043 2.9648-3.8438 0-13.027 2.2812-23.461 5.5117-31.758 1.6289 0.32031 3.3008 0.48828 5.0234 0.48828 3.8281 0 7.4492-0.83594 10.746-2.2969 20.109 63.613 16.875 127.29 10.242 170.69-6.4453 42.223-17.203 73.441-20.598 82.676-7.8516-0.30859-27.855 2.4727-62.387 29.703-4.2695 3.3711-4 6.7891-3.4531 8.5234 1.1484 3.6445 3.8281 12.188 74.719 16.402 19.902 1.1914 40.449 1.8008 59.074 1.8008 8.3867 0 16.387-0.12109 23.754-0.37891 40.57-1.3828 41.836-5.5312 42.77-8.5508 2.2812-7.4609-6.0977-15.41-27.172-25.773-10.355-5.0938-20.812-9.2734-25.602-11.125 4.8633-174.11-18.98-245.75-37.02-274.83 0.36719 0.015625 0.71875 0.035156 1.0859 0.035156 5.5352 0 10.855-1.7031 15.371-4.9336 4.6836-3.3438 8.0547-8.0195 9.7891-13.395 32.621 7.8008 61.133 27.223 61.5 27.477 0.66016 0.46094 1.4219 0.69531 2.1992 0.69922h0.082031c2.1992 0 3.9766-1.7773 3.9766-3.9766 0-0.60156-0.13281-1.1602-0.36719-1.6758l-3.9219-12.027c32.645 19.781 32.336 64.18 32.324 64.652-0.035156 1.7773 1.125 3.3555 2.8242 3.875 1.7109 0.51953 3.5391-0.16797 4.4961-1.6641 0 0 0.39844-0.61328 1.0156-1.7656 4.7852-8.8438 26.105-55.125-23.766-98.422-17.441-15.137-38.012-22.809-61.145-22.809-20.785 0-39 6.1836-50.371 11.195 0.12109-0.42188 0.20312-0.84766 0.30859-1.2656 24.816-35.188 84.152-46.621 84.812-46.742 1.7891-0.33203 3.1094-1.8242 3.25-3.6328 0.11719-1.8086-0.99219-3.4727-2.7109-4.043l-13.125-4.375c37.836-32.645 100.62-38.863 101.29-38.926 1.7344-0.15625 3.168-1.4414 3.5234-3.1484 0.32031-1.707-0.46094-3.4453-2.0039-4.2891zm-151.09 135.75c-0.20312 1.207-0.51172 2.3672-0.93359 3.4883-1.2891 3.4141-3.5391 6.375-6.5859 8.5391-3.1562 2.2617-6.8711 3.4531-10.746 3.4531-0.25 0-0.48438-0.074219-0.73438-0.085937-2.6094-0.10938-5.1445-0.70703-7.4414-1.832-2.7227-1.3359-5.1172-3.3203-6.9297-5.8398-0.36719-0.52344-0.70703-1.0625-1.0273-1.6094-0.39844-0.70703-0.74219-1.4414-1.0391-2.1836-0.53516-1.2852-0.91016-2.625-1.1367-3.9883l7.1211 0.78125c0.14453 0.015625 0.29687 0.023437 0.43359 0.023437 1.8008 0 3.4062-1.2188 3.8633-3l0.66016-2.6523 0.14453 0.19922c0.875 1.2305 2.3789 1.8555 3.8867 1.6094l6.1094-1.0195c1.1016-0.1875 2.0547-0.82812 2.6406-1.7109 0.20312-0.30859 0.36719-0.64063 0.48828-0.99609l0.21484 0.19922c1.1953 1.0742 2.9297 1.3125 4.375 0.60547l2.7812-1.3398 3.168-1.5352c0.47656 1.4453 0.76563 2.9531 0.86328 4.4727 0.11719 1.4609 0.074218 2.9414-0.17578 4.4219zm-64.418 28.621c-0.34375 0-0.67188-0.027344-1.0078-0.050781-0.17969-0.011719-0.36719-0.011719-0.54297-0.027344-2.793-0.22656-5.4023-1.0859-7.6992-2.4141-3.3242-1.9297-5.9805-4.8633-7.5938-8.3828-0.22656-0.49609-0.42188-1.0078-0.60547-1.5273-0.19922-0.60547-0.40234-1.1836-0.54688-1.8125-0.33984-1.3867-0.54297-2.8242-0.54297-4.3164 0-2.9414 0.70703-5.7109 1.9375-8.1836l5.3203 4.7617c1.4805 1.3242 3.7148 1.3516 5.2227 0.070313l2.0938-1.7656v0.23828c0 1.5156 0.86328 2.9062 2.2227 3.5703l3.4883 1.7031 2.0703 1.0156c1.375 0.66406 2.9648 0.48438 4.125-0.38672l0.070312 0.28125c0.21484 1.0039 0.82422 1.8477 1.6289 2.4102 0.28516 0.19141 0.59375 0.35156 0.93359 0.46484 0.20313 0.074218 0.42188 0.12891 0.63672 0.16797l3.8047 0.64844 2.6992 0.46094c-0.59375 1.918-1.5039 3.6914-2.6406 5.2891-0.10547 0.14062-0.20312 0.28125-0.32031 0.42188-1.7227 2.2734-3.9531 4.1289-6.5273 5.4141-2.4844 1.2344-5.2617 1.9492-8.2266 1.9492zm-0.20312-37.062c0.070312 0 0.13281-0.015625 0.20312-0.015625 3.875 0 7.4609 1.1953 10.438 3.2305 2.082 1.418 3.8398 3.25 5.1875 5.3672 1.4219 2.2109 2.3672 4.7383 2.7344 7.4492l-1.1836-0.20312-1.9961-0.34375-1.375-6.0664-0.10547-0.46484c-0.35547-1.5625-1.6055-2.7539-3.1797-3.0391-0.59375-0.10938-1.1953-0.074219-1.7461 0.082031-0.43359 0.11719-0.83594 0.30859-1.1953 0.55469-0.42188 0.29297-0.80078 0.66016-1.0859 1.1016l-2.332 3.5859-0.17969-0.085938v-6.3242c0-1.5469-0.89844-2.9531-2.3047-3.6055-1.4102-0.65234-3.0508-0.42578-4.2422 0.57813l-4.2695 3.6211-1.7227 1.4531-1.5273-1.375-1.5625-1.3828c3.1445-2.5352 7.1094-4.0625 11.445-4.1172zm21.074-2.4648c-0.36719 1.1367-0.66016 2.3047-0.86328 3.5039-0.011718 0.050781-0.011718 0.10547-0.011718 0.15625-0.94531-1.0859-1.9609-2.0938-3.0625-3.0156 1.332-0.10938 2.6367-0.33203 3.9375-0.64453zm37.766-4.3594-1.9258 0.93359-5-4.457c-1.1953-1.0625-2.9062-1.3086-4.3516-0.61719-1.4336 0.68359-2.332 2.1641-2.2695 3.7578l0.17969 4.2773-0.17969 0.027343-3.6914-5.1562c-0.89844-1.2617-2.4375-1.8789-3.9648-1.5938-1.5273 0.28516-2.7461 1.4297-3.1211 2.9297l-1.9258 7.6133-4.1133-0.45312c1.1133-4.082 3.5859-7.6367 7.0859-10.125 0.058593-0.039062 0.12109-0.082031 0.17969-0.12891 1.5508-1.0742 3.2148-1.9023 4.9688-2.457 0.71094-0.22656 1.4453-0.38672 2.1875-0.51172 0.35547-0.0625 0.71875-0.10547 1.0781-0.14453 0.61328-0.074219 1.2305-0.15234 1.8477-0.16797 0.15625-0.003906 0.32031-0.035156 0.47656-0.035156 5.1523 0 10.039 2.1602 13.512 5.8438zm-26.715-14.512c-1.0859 2.7227-2.7695 5.0977-4.9102 6.9883-1.457 1.3008-3.1328 2.3867-4.9883 3.1797-2.3203 1.0039-4.7852 1.5156-7.3047 1.5156-0.32812 0-0.62891-0.050781-0.94922-0.070312-7.0391-0.36328-13.289-4.6328-16.094-11.152-0.70703-1.6562-1.1602-3.3789-1.375-5.1211-0.12109-1.0508-0.14453-2.1055-0.09375-3.1602l4.6016 1.5508 2.1875 0.73047c0.41016 0.14062 0.84766 0.20312 1.2656 0.20312 1.4688 0 2.8711-0.82422 3.5508-2.2031l1.2188-2.4453 0.09375 0.21484c0.60547 1.3984 1.9375 2.3281 3.4648 2.4023l4.0469 0.19922 0.51953 0.023438 1.6055 0.082031c1.5039 0.0625 2.918-0.73047 3.6445-1.9766l0.16797 0.23438c0.94531 1.3008 2.5742 1.9062 4.1484 1.5234l3.25-0.78906 3.168-0.76562c0.16797 1.6055 0.12109 3.207-0.12109 4.8086-0.21875 1.3555-0.57422 2.7148-1.0977 4.0273zm-3.0859-15.984-1.3984 0.34375-3.9336-5.418c-0.83594-1.1445-2.1875-1.7461-3.5625-1.6211-0.17969 0.015625-0.375 0.039063-0.55859 0.085938-0.47656 0.10938-0.92188 0.32031-1.3242 0.58984-0.875 0.59375-1.5039 1.5234-1.6875 2.6094l-0.73047 4.2188-0.19141-0.011719-2.5078-5.8203c-0.60547-1.4219-1.9844-2.3555-3.5273-2.4023h-0.11719c-1.5039 0-2.8828 0.85156-3.5508 2.2031l-3.5 7.0352-3.2852-1.1055-0.64844-0.22266c0.09375-0.17969 0.20312-0.35547 0.30859-0.53516 1.9727-3.4883 5-6.2344 8.7617-7.8516 2.0547-0.87891 4.207-1.3594 6.4062-1.4688 0.082032 0 0.15625-0.003906 0.23438-0.011719 0.22656-0.011719 0.44922-0.027343 0.67578-0.027343 2.2812 0 4.4961 0.42187 6.5625 1.2031 3.8633 1.457 7.168 4.1875 9.332 7.8008zm-147.85-93.57c7.3906-9.043 22.203-22.598 44.555-22.871 0.23438 0 0.43359-0.046876 0.66406-0.046876 11.836 0 24.574 3.6875 37.859 10.953 25.426 13.902 41.516 34.02 47.852 59.785 2.8711 11.73 2.9766 22.043 2.5977 28.387-1.918 0.011719-3.7969 0.26953-5.6523 0.6875-1.5742 0.35547-3.1211 0.81641-4.625 1.457-3.75 1.6211-6.9844 4.043-9.5859 7.0508-6.4648-12.348-17.816-30.059-34.492-42.66-0.12891-0.097657-0.25-0.21484-0.37891-0.31641l4.7891 0.38672 2.5898 0.21094c1.457 0.10938 2.8945-0.58984 3.6797-1.8438 0.78906-1.2539 0.82422-2.8398 0.070313-4.1172-0.92188-1.582-23.164-38.668-72.094-38.668-0.12109 0-0.25781 0.015626-0.38672 0.015626-5.6641 0.03125-11.5 0.55078-17.441 1.5898zm-34.395 214.82c-0.12109-0.20312-0.25781-0.45312-0.375-0.66016-7.3633-12.312-16.297-31.43-17.016-52.523-0.10937-3.1953-0.050781-6.4414 0.25781-9.7109 1.9375-20.766 12.602-39.184 31.699-54.734 19.062-15.547 39.52-23.426 60.809-23.426 30.531 0 55.512 16.328 66.582 24.961-0.25781 1.6641-0.29688 3.332-0.23438 5 0.11719 3.2031 0.76562 6.3945 2.0664 9.4258 1.6992 3.9219 4.2578 7.2695 7.4102 9.8867-0.32031 0.023438-0.625 0.058594-0.93359 0.09375-9.2031-4.5156-23.273-9.4219-40.969-9.4219-11.645 0-23.391 2.1523-35.07 6.4102l4.8633-6.668c1.0625-1.457 1.0156-3.4375-0.12109-4.8359-1.125-1.3984-3.0508-1.8672-4.6953-1.1445-0.93359 0.41406-22.926 10.297-42.914 30.445-8.4531 8.5156-15.215 17.586-20.293 27.09-8.3477 15.594-12.094 32.359-11.066 49.812zm135.75-21.328-2.1055-3.7461-2.293-4.0547c-0.75391-1.3359-2.2461-2.1289-3.75-2.0117-0.23438 0.015625-0.41016 0.17969-0.63672 0.23828-1.2383 0.31641-2.3164 1.0898-2.7812 2.3047-0.66016 1.7266-14.547 38.852-1.8125 85.832-0.80078-1.0273-1.6172-2.1641-2.4453-3.3555-8.9414-12.832-19.203-35.027-20.457-70.293-0.074219-2.3633-0.12109-4.7734-0.12109-7.2578 0-33.336 13.891-47.289 29.812-52.348-1.4336 3.25-2.2344 6.832-2.2344 10.605 0 9.0586 4.5898 17.035 11.543 21.812 0.78125 0.53516 1.5742 1.0664 2.4141 1.5156-2.2773 5.9336-4.1289 12.809-5.1328 20.758zm121.11 261.97c18.84 9.1836 22.773 14.262 23.598 15.984-2.1133 0.83984-6.5781 1.6211-13.004 2.2695-19.676 1.9844-57.883 2.6992-104.31-0.058593-52.941-3.1484-64.668-8.75-67.094-10.504 0.09375-0.074219 0.17969-0.15234 0.29688-0.24609 40.262-31.758 58.895-27.832 58.992-27.801 0.12109 0.027344 0.23828 0.035156 0.35547 0.058594 0.082031 0.015625 0.14453 0.046875 0.22656 0.058594 7.6641 0.95703 12.828 3.1914 14.914 6.457 1.6406 2.5547 0.875 5.1289 0.83594 5.3125-0.57031 1.6445 0 3.4609 1.3984 4.4922 0.70703 0.50781 1.5391 0.76953 2.3555 0.76953 0.84766 0 1.6875-0.26953 2.4023-0.8125 8.168-6.207 17.961-9.4961 29.016-10.102 1.1914-0.0625 2.3164-0.25 3.5352-0.25 11.164 0 19.543 2.8711 19.734 2.9297l0.011719 0.003906h0.003907c0.52344 0.19531 13.777 5.125 26.734 11.438zm-52.656-262.09c12.727 35.188 27.039 105.59 23.414 241.72-2.1719-0.5-4.9883-1.0195-8.2188-1.4062-2.7305-0.32812-5.7383-0.55859-9.0195-0.55859-0.83984 0-1.6211 0.11719-2.4492 0.14062-10.617 0.35547-20.27 2.8828-28.723 7.7344-0.10547-0.32812-0.25-0.67188-0.37891-1.0039-0.30469-0.78906-0.66406-1.5859-1.168-2.3906-2.8242-4.6094-8.1445-7.7773-15.836-9.457 4.0195-11.176 14.188-41.848 20.406-82.453 6.8711-44.781 10.148-110.76-11.176-176.59 3.9531-3.5352 6.7305-8.2617 8.0039-13.574 0.15234-0.64844 0.375-1.2656 0.48438-1.9297 1.9727 2.2812 4.3047 4.1836 6.8945 5.6523 5 6.1758 11.43 16.633 17.766 34.109zm39.191-86.594c0.17969 0 0.36328-0.023438 0.54297-0.023438 21.168 0 39.98 7.0156 55.941 20.867 33.359 28.961 31.82 59.062 26.98 76.078-0.50781-2.8398-1.2031-5.9609-2.0781-9.2266-4.8164-17.867-15.953-40.441-41.809-51.02-0.87109-0.35547-1.7734-0.28125-2.6289-0.015625-0.56641 0.16797-1.1211 0.36719-1.5742 0.78125-1.1367 1.0547-1.5625 2.6719-1.0742 4.1484l3.6094 11.09c-0.89062-0.52344-1.9414-1.1133-2.9453-1.6875-11.91-6.7734-31.121-16.297-52.371-21.246 0.046875-4.3359-0.95703-8.5742-2.9648-12.426-0.070313-0.26953-0.15625-0.54688-0.28516-0.80469-0.21484-0.43359-0.48828-0.80078-0.82422-1.1094-0.27344-0.4375-0.53516-0.875-0.83594-1.3008-2.7344-3.832-6.4297-6.8086-10.605-8.7109 9.3867-2.9336 20.75-5.3281 32.922-5.3945zm12.27-58.031c-0.98047 0.97266-1.3867 2.3867-1.0742 3.7344 0.30859 1.3398 1.3008 2.4336 2.6094 2.8711l6.3945 2.1367c-18.012 5.082-49.652 16.613-69.832 38.711-0.035156-0.13281-0.070312-0.27344-0.11719-0.42187 0-0.16406-0.035157-0.33203-0.0625-0.49609-0.015625-0.11719-0.011719-0.23438-0.039063-0.35156-0.11719-0.46094-0.30859-0.87891-0.55859-1.2617-0.17969-0.48437-0.34375-0.96875-0.54687-1.4453-2.8828-6.7148-8.3281-11.789-14.914-14.293 5.7266-14.121 20.523-46.172 42.176-61.395l-2.6523 12.723c-0.39844 1.8711 0.60547 3.7617 2.3672 4.4922 1.7656 0.73047 3.8047 0.097656 4.8398-1.5039 0.25781-0.39063 25.52-38.109 73.965-39.84 1.1328-0.039063 2.2148-0.16406 3.3711-0.16406 16.625 0 34.164 4.2461 52.297 12.637-22.344 3.7734-68.77 14.801-98.223 43.867z"/>
  <use x="70" y="647.5" xlink:href="#v"/>
  <use x="91.40625" y="647.5" xlink:href="#b"/>
  <use x="105.789062" y="647.5" xlink:href="#a"/>
  <use x="125.570312" y="647.5" xlink:href="#e"/>
  <use x="145.253906" y="647.5" xlink:href="#d"/>
  <use x="159.195312" y="647.5" xlink:href="#a"/>
  <use x="178.976562" y="647.5" xlink:href="#j"/>
  <use x="210.007812" y="647.5" xlink:href="#i"/>
  <use x="230.886719" y="647.5" xlink:href="#h"/>
  <use x="260.054688" y="647.5" xlink:href="#f"/>
  <use x="272.742188" y="647.5" xlink:href="#e"/>
  <use x="292.425781" y="647.5" xlink:href="#u"/>
  <use x="302.421875" y="647.5" xlink:href="#g"/>
  <use x="319.78125" y="647.5" xlink:href="#e"/>
  <use x="339.464844" y="647.5" xlink:href="#t"/>
  <use x="349.460938" y="647.5" xlink:href="#c"/>
  <use x="369.5" y="647.5" xlink:href="#s"/>
  <use x="388.511719" y="647.5" xlink:href="#a"/>
  <use x="408.292969" y="647.5" xlink:href="#b"/>
  <use x="422.675781" y="647.5" xlink:href="#g"/>
  <use x="70" y="676.667969" xlink:href="#f"/>
  <use x="82.6875" y="676.667969" xlink:href="#b"/>
  <use x="97.074219" y="676.667969" xlink:href="#c"/>
  <use x="117.109375" y="676.667969" xlink:href="#r"/>
  <use x="157.65625" y="676.667969" xlink:href="#d"/>
  <use x="171.597656" y="676.667969" xlink:href="#q"/>
  <use x="192.363281" y="676.667969" xlink:href="#a"/>
  <use x="222.300781" y="676.667969" xlink:href="#p"/>
  <use x="246.710938" y="676.667969" xlink:href="#c"/>
  <use x="266.746094" y="676.667969" xlink:href="#o"/>
  <use x="287.511719" y="676.667969" xlink:href="#n"/>
  <use x="318.429688" y="676.667969" xlink:href="#m"/>
  <use x="339.804688" y="676.667969" xlink:href="#b"/>
  <use x="354.191406" y="676.667969" xlink:href="#c"/>
  <use x="374.226562" y="676.667969" xlink:href="#l"/>
  <use x="384.226562" y="676.667969" xlink:href="#a"/>
  <use x="404.007812" y="676.667969" xlink:href="#k"/>
  <use x="421.296875" y="676.667969" xlink:href="#d"/>
 </g>
</svg>
