<?xml version="1.0" encoding="utf-8"?>
<!-- Generator: Adobe Illustrator 16.0.0, SVG Export Plug-In . SVG Version: 6.00 Build 0)  -->
<!DOCTYPE svg PUBLIC "-//W3C//DTD SVG 1.1//EN" "http://www.w3.org/Graphics/SVG/1.1/DTD/svg11.dtd">
<svg version="1.1" xmlns="http://www.w3.org/2000/svg" xmlns:xlink="http://www.w3.org/1999/xlink" x="0px" y="0px" width="1400px"
	 height="980px" viewBox="0 0 1400 980" enable-background="new 0 0 1400 980" xml:space="preserve">
<g id="BACKGROUND">
</g>
<g id="OBJECTS">
	<g>
		<defs>
			<rect id="SVGID_1_" width="1400" height="980"/>
		</defs>
		<clipPath id="SVGID_2_">
			<use xlink:href="#SVGID_1_"  overflow="visible"/>
		</clipPath>
		<rect clip-path="url(#SVGID_2_)" fill="#DDD3B8" width="1400" height="980"/>
		<path opacity="0.21" clip-path="url(#SVGID_2_)" d="M98.687,88.967c18.49,9.553,39.981,24.667,36.595,45.202
			c-1.715,10.402-9.935,19.32-9.703,29.861c0.487,22.069,33.544,27.218,43.708,46.814c8.383,16.161-1.335,37.481,7.455,53.424
			c5.072,9.201,15.115,14.307,24.575,18.877c74.545,36.015,149.09,72.029,223.635,108.044
			c52.371,25.302,107.99,51.246,165.941,46.285c29.819-2.553,61.361-13.543,91.274-6.509c29.609,6.962,55.666,43.14,77.439,63.564
			c7.88,7.393,16.006,14.945,26.021,19.002c11.949,4.841,25.282,4.21,38.169,4.578c21,0.602,42.137,4.141,61.315,12.716
			c12.503,5.59,24.015,13.238,36.602,18.635c37.246,15.969,78.485,10.438,117.489,6.079c19.393-2.167,41.067-6.48,60.584-4.089
			c19.342,2.37,18.05,14.012,25.096,31.171c20.359,49.582,75.208,74.404,126.1,91.225c101.317,33.487,206.912,54.006,313.397,60.898
			c9.755,0.632,20.255,0.967,28.481-4.313c8.628-5.539,12.658-15.922,15.455-25.786c28.471-100.405-16.972-206.857-74.227-294.115
			c-119.922-182.765-299.432-328.029-507.249-395.827C782.644-64.963,518.593-36.152,261.78-41.195
			C171.618-42.965,79.97-48.917-9.075-31.009c-13.382,2.691-51.426,6.125-59.072,19.194c-11.036,18.861,22.04,26.066,35.775,33.147
			C11.324,43.857,55.011,66.401,98.687,88.967z"/>
		<path clip-path="url(#SVGID_2_)" fill="#47BAE2" d="M276.346,182.366c11.202,5.099,23.797,12.215,25.502,24.404
			c0.788,5.627-1.02,11.362-0.344,17.003c1.215,10.134,9.83,17.443,16.744,24.95c6.915,7.507,12.768,18.676,7.618,27.487
			c-27.268-2.727-54.076-9.993-78.99-21.406c-17.263-7.909-35.654-21.023-36.227-40.003c-0.143-4.732,0.888-9.501,0.152-14.179
			c-2.054-13.056-16.088-19.907-27.771-26.087c-10.675-5.647-20.744-12.438-29.98-20.218c-1.894-1.594-3.94-3.786-3.324-6.183
			c0.849-3.298,5.483-3.375,8.798-2.594c18.933,4.463,34.744,11.807,53.876,14.587C234.664,163.364,256.045,173.125,276.346,182.366
			z"/>
		<path clip-path="url(#SVGID_2_)" fill="#47BAE2" d="M967.028,448.945c21.037,7.895,41.807,16.907,63.793,21.542
			c27.642,5.827,58.526,5.36,80.47,23.15c8.65,7.013,14.124,22.569,4.284,27.782c-2.343,1.241-5.065,1.491-7.707,1.719
			c-53.5,4.596-108.631,9.027-159.836-7.138c-22.411-7.075-43.591-17.981-66.468-23.359c-20.635-4.851-42.214-5.092-62.609-10.87
			c-20.395-5.778-40.644-18.985-46.311-39.412c-0.321-1.158,96.695-4.376,104.835-4.327
			C910.012,438.231,935.544,437.129,967.028,448.945z"/>
		<path clip-path="url(#SVGID_2_)" fill="#47BAE2" d="M1670.373,695.598c-9.495-32.314-37.113-55.524-55.275-83.889
			c-52.139-81.423-19.953-188.258-30.78-284.336c-4.717-41.853-17.88-82.228-30.968-122.262
			c-22.6-69.135-45.199-138.269-67.8-207.402c-5.744-17.571-11.844-35.755-24.513-49.216c-14.078-14.958-34.424-22.115-54.255-27.46
			c-46.285-12.477-94.198-17.923-142.056-20.685c-65.164-3.759-130.501-2.613-195.764-1.467
			C679.616-94.274,290.068-87.422-98.424-60.762c-48.357,3.318-80.38,52.997-19.382,63.438
			C-56.984,13.088-3.417,6.768,54.861,35.382c41.303,20.28,77.864,49.61,120.175,67.694c36.009,15.393,75.019,22.145,112.537,33.369
			c39.844,11.919,77.968,28.873,115.964,45.78c22.67,10.087,49.795,33.052,36.414,53.947c-26.356,17.909-72.022-7.892-90.055,18.379
			c-15.334,22.34,11.562,49.504,35.673,61.87c59.577,30.554,124.042,51.552,190.184,61.95c9.686,1.523,19.818,2.787,29.118-0.318
			c7.943-2.651,14.541-8.258,22.131-11.795c12.685-5.912,27.319-5.706,41.241-4.282c65.662,6.718,126.999,37.663,192.658,44.392
			c44.787,4.591,91.21-2.112,134.163,11.374c19.837,6.229,38.176,16.575,57.957,22.978c48.919,15.835,104.504,6.963,150.701,29.539
			c6.702,3.275,13.65,7.874,15.562,15.084c3.364,12.69-10.012,22.698-18.375,32.817c-18.627,22.535-13.523,57.842,4.087,81.178
			c17.612,23.337,44.72,37.283,71.294,49.472c69.59,31.919,142.23,57.184,216.606,75.341
			c53.507,13.062,111.335,22.156,162.495,1.756c5.643-2.25,11.496-5.15,14.521-10.419
			C1673.31,709.571,1672.296,702.142,1670.373,695.598z M734.492,298.099c-0.289,5.599-2.973,11.391-7.965,13.944
			c-3.563,1.822-7.754,1.791-11.756,1.719c-21.398-0.387-42.797-0.774-64.195-1.161c-21.902-0.396-44.668-0.621-64.57,8.531
			c-6.307,2.9-12.28,6.727-19.034,8.33c-7.838,1.86-16.044,0.569-23.977-0.837c-42.795-7.585-85.033-18.314-126.26-32.071
			c-10.238-3.416-22.381-9.706-22.023-20.493c0.254-7.646,7.353-13.548,14.742-15.528c7.39-1.98,15.196-1.091,22.845-1.224
			c20.726-0.359,41.215-8.655,56.352-22.816c3.343-3.127,6.537-6.6,10.708-8.483c3.741-1.689,7.949-1.949,12.05-2.101
			c66.061-2.445,137.24,3.352,195.571,36.571C720.735,270.313,735.308,282.29,734.492,298.099z M1094.016,418.081
			c-4.336-1.557-9.503-5.972-6.781-9.691c17.043-1.857,34.371-1.076,51.178,2.305l8.652,3.195
			c6.881,1.243,13.023,6.027,15.914,12.394C1139.766,428.8,1115.99,425.972,1094.016,418.081z M1356.306,560.375
			c-1.124,0.786-2.522,1.06-3.884,1.226c-12.73,1.555-25.01-4.538-36.389-10.454c-9.049-4.704-18.099-9.409-27.148-14.114
			c-7.025-3.653-14.734-8.119-16.812-15.762c-1.027-3.783-0.474-7.786-0.41-11.706c0.253-15.639-7.545-30.545-18.169-42.024
			c-10.623-11.479-23.947-20.045-37.117-28.483c-6.392-4.095-13.284-7.911-18.777-12.965c7.369-7.169,35.219,4.49,45.271,7.282
			c8.339,2.315,16.848,4.887,23.704,10.168c18.033,13.89,18.666,40.741,30.671,60.08c12.13,19.541,34.527,29.574,53.777,42.158
			C1356.169,549.144,1361.343,556.85,1356.306,560.375z"/>
		<path clip-path="url(#SVGID_2_)" fill="#F1EDEE" d="M148.948,67.463c16.151,9.591,33.084,18.28,51.333,22.734
			c17.264,4.213,35.244,4.527,52.7,7.857c16.927,3.229,33.174,9.255,49.329,15.254c31.567,11.724,63.134,23.447,94.7,35.171
			c-41.019-28.995-83.928-58.787-133.5-66.9c-17.379-2.844-35.153-2.92-52.433-6.315c-19.249-3.782-37.436-11.589-55.455-19.343
			c-20.724-8.918-41.442-17.862-62.176-26.75C111.873,42.222,129.868,55.321,148.948,67.463z"/>
		<path clip-path="url(#SVGID_2_)" fill="#F1EDEE" d="M235.748,188.775c2.48,3.307,3.941,7.243,5.771,10.949
			c9.503,19.247,28.5,31.673,46.631,43.162c-19.369-1.414-37.824-12.296-48.435-28.561c-8.429-12.918-16.852-26.106-25.351-38.406
			C222.046,178.348,230.766,182.131,235.748,188.775z"/>
		<path clip-path="url(#SVGID_2_)" fill="#F1EDEE" d="M495.991,193.699c11.945,2.163,24.193,1.455,36.331,1.247
			c51.209-0.877,103.463,7.692,148.6,31.895c-64.391-23.481-135.879-7.098-204.114-13.543c-2.152-0.203-4.479-0.509-6.022-2.021
			c-1.462-1.431-1.862-3.59-2.318-5.585c-2.416-10.567-8.472-19.556-16.314-26.844C468.841,175.427,479.757,190.759,495.991,193.699
			z"/>
		<path clip-path="url(#SVGID_2_)" fill="#F1EDEE" d="M767.273,311.346c1.149,14.658,11.564,27.307,24.113,34.969
			s27.123,11.172,41.428,14.573c23.898,5.681,47.796,11.362,71.694,17.044c-52.114,4.362-105.05-1.314-155.055-16.625
			c-5.928-1.815-12.091-3.938-16.274-8.513c-4.183-4.576-5.501-12.373-1.192-16.831c4.058-4.199,11.813-4.484,14.041-9.882
			c0.6-1.454,0.665-3.066,0.685-4.639c0.19-15.769-4.27-29.728-9.695-44.229C760.112,267.185,766.034,295.54,767.273,311.346z"/>
		<path clip-path="url(#SVGID_2_)" fill="#F1EDEE" d="M518.731,345.748c33.654,5.186,68.646-0.668,101.672,7.624
			c-6.042,8.196-17.42,10.078-27.602,10.25c-46.192,0.777-84.374-21.191-127.133-34.171
			C482.535,336.99,500.437,342.928,518.731,345.748z"/>
		<path clip-path="url(#SVGID_2_)" fill="#F1EDEE" d="M976.387,387.298c31.382,6.053,60.062,21.438,88.186,36.62
			c-27.195-6.917-54.39-13.835-81.585-20.753c-10.927-2.78-21.883-5.565-33.055-7.083c-19.251-2.614-38.81-1.424-58.188-2.796
			c-15.018-1.063-31.97-3.403-44.772-11.723c8.28-7.794,46.178,1.565,58.968,1.766C929.465,383.696,953.158,382.817,976.387,387.298
			z"/>
		<path clip-path="url(#SVGID_2_)" fill="#F1EDEE" d="M872.36,462.314c9.268,1.972,18.205,5.231,27.086,8.533
			c50.166,18.654,102.202,39.418,155.408,33.608c-40.668,2.763-83.309,5.189-120.372-11.776
			c-7.762-3.553-15.131-7.903-22.763-11.728c-28.822-14.445-57.865-17.897-89.453-20.045
			C838.213,458.436,856.427,458.922,872.36,462.314z"/>
		<path clip-path="url(#SVGID_2_)" fill="#F1EDEE" d="M1231.617,567.886c3.478,12.26,12.515,22.113,21.952,30.677
			c54.265,49.246,127.8,70.067,198.491,89.37c-61.341-20.771-120.769-47.439-176.284-80.789c-5.995-3.602-12.056-7.375-16.54-12.743
			c-10.302-12.333-10.145-29.929-11.737-45.919c-1.429-14.333-4.977-28.108-9.373-41.784
			C1235.896,526.689,1225.846,547.542,1231.617,567.886z"/>
		<path clip-path="url(#SVGID_2_)" fill="#A5903A" d="M1392.417,350.203c9.912-5.942,19.454-12.492,28.583-19.575v-652.31
			c-0.338,0.883-0.67,1.768-0.984,2.655c0.421-2.141,0.741-4.172,0.984-6.123v-15.161c-4.965-31.072-43.25-27.505-67.903-47.337
			c3.439,27.347,5.701,45.321,8.384,66.641c-14.649-8.943-24.76-15.118-34.869-21.292c-3.556,2.996-7.111,5.992-10.666,8.987
			c19.312,29.533,42.004,57.467,56.99,89.056c14.916,31.43,22.094,66.525,32.668,100.019
			c-95.635-116.45-214.39-168.318-360.016-167.025c0,19.721,0,35.699,0,53.753c-31.29,2.301-32.12,3.059-92.038,90.75
			c20.287-0.032,40.575-0.032,67.358-0.032c-22.217,17.586-38.774,30.692-55.333,43.798c1.73,2.543,3.46,5.087,5.187,7.634
			c21.475-9.439,42.944-18.879,64.419-28.319c2.872,4.63,5.745,9.261,8.618,13.892c-26.936,18.014-53.871,36.027-80.806,54.043
			c-10.884,7.28-24.696,12.694-33.171,22.609c-30.554,35.743-60.268,64.401-64.375,114.526c-2.232,27.253,1.236,62.127,12.6,87.231
			c6.294-1.035,12.641-7.442,19.134-9.879c6.843-2.568,14.207-3.752,21.447-4.492c12.871-1.315,37.888-0.868,47.962-9.821
			c11.65-10.353,10.833-45.013,10.44-59.144c5.47,17.249,9.026,35.104,10.582,53.131c20.354,1.505,40.949-0.295,60.733-5.31
			c1.547-0.392,3.21-0.882,4.162-2.163c0.893-1.2,0.945-2.807,0.963-4.302c0.221-19.503,0.442-39.006,0.664-58.51
			c11.771,15.276,20.116,33.176,24.252,52.013c16.07-10.012,34.016-17.005,52.624-20.507c10.964-2.063,22.118-2.922,33.139-4.657
			c31.523-4.963,61.879-17.205,88.024-35.501c11.834-8.281,22.438-17.904,37.206-12.36c13.375,5.021,21.886,15.935,27.624,28.703
			c-13.657,0-21.557-0.576-29.338,0.159c-7.995,0.75-15.872,2.77-31.7,5.694c16.673,5.308,43.593,8.945,57.044,19.693
			c-39.028,9.744-76.847,13.22-114.459,30.375c-36.72,16.749-70.52,39.975-99.006,68.59c28.78,19.468,57.561,38.935,86.341,58.403
			c-30.647-6.48-60.446-16.97-88.396-31.117c-3.223-1.631-6.668-3.36-10.258-2.954c-5.198,0.589-8.787,5.35-11.533,9.803
			c-15.89,25.778-25.322,55.476-27.416,85.676c-0.499,7.209-0.581,14.446-0.232,21.666c28.344-1.062,56.842,2.049,84.289,9.202
			c-21.877,1.759-43.755,3.518-65.632,5.276c-4.153,0.333-8.709,0.852-11.572,3.878c-2.479,2.622-3.04,6.465-3.482,10.046
			c-5.536,44.845-10.393,93.343,12.135,132.512c11.13-0.362,22.261-0.723,33.391-1.085c-20.86,12.335-26.951,11.665-14.623,33.709
			c8.728,15.605,14.863,34.127,24.801,48.742c9.926-11.668,21.175-18.055,34.547-25.738c2.198-1.264,4.41-2.646,5.935-4.672
			c2.342-3.111,2.715-7.229,3.045-11.109c2.34-27.493,6.752-54.809,13.188-81.641c2.45,25.413,4.9,50.825,7.351,76.237
			c16.555-8.645,33.108-17.29,49.663-25.936c5.047-2.636,10.224-5.373,13.93-9.694c7.268-8.472,7.502-28.582,9.547-39.226
			c3.08-16.031,8.431-29.891,7.222-46.399c7.688,19.285,12.979,39.524,15.718,60.104c16.804-10.952,33.608-21.905,50.412-32.857
			c19.537-12.733,39.373-25.728,54.405-43.556c2.34-2.775,4.593-5.73,5.742-9.173c1.718-5.145,0.789-10.748-0.042-16.107
			c-3.244-20.91-4.751-42.088-4.499-63.247C1378.072,311.291,1384.404,331.099,1392.417,350.203z"/>
		<path clip-path="url(#SVGID_2_)" fill="#DDD3B8" d="M1118.569,454.092c0,0,161.99-331.483,313.483-400.48l-10.499,26.999
			C1421.554,80.611,1225.064,251.603,1118.569,454.092z"/>
		<path clip-path="url(#SVGID_2_)" fill="#DDD3B8" d="M895.08,79.111c0,0,47.997-161.99,289.485-169.492
			C1184.565-90.38,1003.075-82.878,895.08,79.111z"/>
		<g clip-path="url(#SVGID_2_)">
			<circle opacity="0.21" cx="505.084" cy="596.561" r="416.25"/>
			<circle fill="#F1EDEE" cx="491.291" cy="521.039" r="416.25"/>
			<circle fill="#CCBFC6" cx="491.29" cy="521.039" r="369.888"/>
			<circle fill="#CD5E91" cx="491.291" cy="521.039" r="335.392"/>
			<path opacity="0.21" d="M496.853,181.18c-67.145,0.079-134.916,20.262-193.786,62.158
				c-71.353,50.779-116.836,124.365-133.631,203.786c2.201,5.368,5.275,10.713,9.906,16.168
				c12.861,15.151,29.377,27.243,40.113,43.968c8.152,12.699,12.52,27.38,18.15,41.381c11.534,28.687,28.726,55.085,50.298,77.233
				c2.999,3.08,6.176,6.222,7.624,10.269c2.565,7.164-0.893,14.885-2.878,22.23c-4.227,15.634-0.358,34.679,13.297,43.387
				c14.425,9.198,37.114,6.068,45.47,20.997c2.959,5.285,3.258,11.869,6.827,16.765c4.876,6.688,14.251,8.226,20.529,13.62
				c11.555,9.93,9.272,29.197,18.991,40.931c7.764,9.374,21.427,11.832,29.935,20.536c7.92,8.103,9.995,20.033,13.366,30.852
				c0.193,0.622,0.427,1.226,0.633,1.843c84.68,14.298,174.814-3.724,250.31-57.453c49.692-35.364,86.84-81.79,110.491-133.544
				c-0.27-8.06,0.309-16.146,1.807-24.071c-24.098-1.258-45.951-21.01-49.629-44.859c-0.84-5.448-0.832-11.035-2.184-16.38
				c-2.869-11.355-11.416-20.226-17.949-29.946c-6.534-9.72-11.178-22.646-5.514-32.896c6-10.858,22.623-20.294,15.897-30.719
				c-2.093-3.244-5.929-4.797-9.365-6.555c-8.713-4.457-15.99-11.222-23.145-17.899c-22.822-21.301-46.083-43.169-60.518-70.85
				c-8.602-16.497-14.762-35.817-30.373-45.94c-6.116-3.966-13.251-6.157-19.34-10.165c-8.047-5.296-13.751-13.396-19.258-21.3
				C554.236,263.543,525.544,222.361,496.853,181.18z"/>
			<g>
				<g>
					<path opacity="0.21" d="M421.352,671.977c0,0-27.025-27.56-11.967-49.627c15.058-22.068,68.633-49.413,72.585-71.113
						c0,0,58.441,29.411,52.489,69.416C534.458,620.652,493.459,677.587,421.352,671.977z"/>
					<path fill="#F9F5F2" d="M413.002,661.579c0,0-27.025-27.559-11.968-49.627c15.058-22.068,68.634-49.413,72.585-71.113
						c0,0,58.44,29.411,52.489,69.416C526.109,610.255,485.109,667.189,413.002,661.579z"/>
					<path fill="#EAEAEA" d="M507.097,565.273c-0.91,1.76-1.396,3.822-1.4,5.778c-0.009,4.536,1.707,8.907,2.058,13.43
						c1.032,13.249-9.411,24.38-19.578,32.937c-18.343,15.436-39.203,29.122-62.532,35.529c-4.226,1.16-11.352,1.437-17.281,3.135
						c2.621,3.434,4.639,5.497,4.639,5.497c72.107,5.61,113.107-51.323,113.107-51.323
						C528.723,592.687,518.917,577.162,507.097,565.273z"/>
				</g>
				<g>
					<path opacity="0.21" d="M224.329,413.168c0,0,9.987-65.608,78.784-68.976c0,0,61.431,90.873,89.482,98.634
						c0,0-32.393,57.1-75.642,63.883C316.953,506.709,246.651,465.6,224.329,413.168z"/>
					<path fill="#F9F5F2" d="M227.792,400.29c0,0,9.987-65.608,78.784-68.976c0,0,61.431,90.873,89.482,98.635
						c0,0-32.393,57.1-75.642,63.883C320.416,493.832,250.114,452.723,227.792,400.29z"/>
					<path fill="#EAEAEA" d="M395.318,428.791c-16.362,9.047-32.725,18.094-49.087,27.141c-9.631,5.325-20.196,10.83-31.067,9.119
						c-9.061-1.427-16.546-7.636-23.333-13.806c-15.416-14.012-29.858-29.092-43.2-45.09c-4.78-5.732-10.497-17.291-16.527-22.022
						c-2.425,7.064-3.158,11.865-3.158,11.865c22.322,52.432,92.625,93.541,92.625,93.541
						C358.721,483.712,387.84,440.787,395.318,428.791z"/>
				</g>
				<g>
					<path opacity="0.21" d="M408.881,672.956c0,0,39.732-44.921,81.507-31.941c0,0,40.542,63.191,85.024,78.851
						c0,0-22.646,57.637-50.662,58.997C524.75,778.862,424.839,745.626,408.881,672.956z"/>
					<path fill="#F9F5F2" d="M426.259,670.362c0,0,39.731-44.921,81.507-31.942c0,0,40.542,63.192,85.024,78.851
						c0,0-22.646,57.637-50.662,58.997C542.127,776.268,442.217,743.031,426.259,670.362z"/>
					<path fill="#EAEAEA" d="M563.276,765.124c-45.364-12.642-86.493-40.066-115.551-77.129c-1.074-1.369-2.177-2.867-2.276-4.605
						c-0.13-2.287,1.495-4.266,3.093-5.906c12.927-13.274,29.973-21.169,47.358-26.831c3.937-1.282,11.532-2.188,17.211-4.448
						c-3.436-4.809-5.346-7.784-5.346-7.784c-41.775-12.979-81.507,31.942-81.507,31.942
						c15.958,72.669,115.869,105.905,115.869,105.905C549.681,775.9,556.842,771.44,563.276,765.124z"/>
				</g>
				<g>
					<path opacity="0.21" d="M496.474,854.522c0,0,7.72-59.473,49.59-72.143c0,0,68.997,29.602,114.611,17.633
						c0,0,13.556,60.424-8.881,77.256C651.793,877.269,550.426,905.754,496.474,854.522z"/>
					<path fill="#F9F5F2" d="M509.41,842.632c0,0,7.72-59.472,49.59-72.143c0,0,68.997,29.603,114.61,17.633
						c0,0,13.557,60.425-8.88,77.256C664.729,865.378,563.362,893.864,509.41,842.632z"/>
					<path fill="#EAEAEA" d="M675.996,844.295c-44.652,14.962-94.085,15.308-138.925,0.905c-1.657-0.531-3.411-1.154-4.467-2.537
						c-1.39-1.821-1.153-4.371-0.75-6.626c3.264-18.238,12.954-34.332,24.176-48.767c2.541-3.269,8.324-8.275,11.76-13.332
						c-5.542-2.056-8.791-3.449-8.791-3.449c-41.87,12.671-49.59,72.143-49.59,72.143c53.953,51.231,155.32,22.746,155.32,22.746
						C670.778,860.84,674.208,853.132,675.996,844.295z"/>
				</g>
				<g>
					<path opacity="0.21" d="M511.118,819.997c0,0-38.017-25.411-20.007-69.321c0,0,74.659-11.767,87.701-27
						c0,0,26.159,36.903,17.749,65.872C596.56,789.548,550.359,821.396,511.118,819.997z"/>
					<path fill="#F9F5F2" d="M504.095,814.072c0,0-38.018-25.411-20.007-69.321c0,0,74.658-11.766,87.701-27
						c0,0,26.158,36.903,17.748,65.872C589.537,783.623,543.336,815.471,504.095,814.072z"/>
					<path fill="#EAEAEA" d="M570.85,717.874c0.862,12.854,1.724,25.708,2.585,38.562c0.507,7.566,0.854,15.768-3.392,22.051
						c-3.539,5.236-9.601,8.092-15.435,10.523c-13.249,5.522-26.88,10.126-40.763,13.773c-4.974,1.308-13.857,1.495-18.572,3.875
						c3.699,3.578,6.479,5.439,6.479,5.439c39.241,1.398,85.442-30.45,85.442-30.45C594.42,756.764,576.149,726.046,570.85,717.874z
						"/>
				</g>
				<g>
					<path opacity="0.21" d="M149.319,229.059c0,0,53.478,77.07,46.939,153.857c0,0,26.348,61.465,82.798,39.819
						c0,0,16.298-129.098-95.697-213.292C183.36,209.443,150.22,208.588,149.319,229.059z"/>
					<path fill="#F9F5F2" d="M157.651,215.189c0,0,53.478,77.07,46.939,153.858c0,0,26.349,61.464,82.798,39.819
						c0,0,16.298-129.099-95.696-213.292C191.692,195.574,158.552,194.719,157.651,215.189z"/>
					<path fill="#EAEAEA" d="M191.692,195.574c0,0-1.857-0.044-4.688,0.152c7.359,12.443,18.058,24.2,25.609,36.382
						c9.311,15.019,17.79,30.554,25.384,46.509c14.688,30.858,27.239,64.004,34.079,97.574c0.614,2.658,1.208,5.361,1.083,8.088
						c-0.443,9.635-9.218,16.35-15.79,23.409c-1.319,1.417-2.544,3.048-3.613,4.792c9.71,1.913,20.904,1.268,33.632-3.613
						C287.389,408.866,303.688,279.768,191.692,195.574z"/>
				</g>
				<g>
					<path opacity="0.21" d="M343.599,452.562c0,0-47.477,32.701-45.594,69.704c0,0,57.017,57.142,63.12,86.618
						c0,0,76.584,7.002,85.194-37.861C446.319,571.022,422.683,479.64,343.599,452.562z"/>
					<path fill="#F9F5F2" d="M347.638,437.538c0,0-47.478,32.701-45.594,69.704c0,0,57.017,57.142,63.12,86.618
						c0,0,76.584,7.002,85.194-37.862C450.358,555.998,426.722,464.616,347.638,437.538z"/>
					<path fill="#EAEAEA" d="M435.46,556.837c-8.569,4.581-16.879,9.849-26.139,12.794c-9.26,2.945-19.9,3.291-28.217-1.733
						c-5.202-3.143-9.031-8.064-12.941-12.717c-17.11-20.359-38.113-38.934-59.938-54.13c-2.006-1.396-3.866-2.431-5.616-3.207
						c-0.502,3.091-0.727,6.227-0.566,9.398c0,0,57.018,57.142,63.12,86.618c0,0,76.584,7.002,85.194-37.862
						c0,0-0.352-1.354-1.104-3.766C444.531,552.396,439.742,554.548,435.46,556.837z"/>
				</g>
			</g>
			<g>
				<g>
					<path opacity="0.21" d="M391.024,661.491c0,0,9.298-33.986-27.537-48.277c-36.834-14.292-63.952,7.794-63.952,7.794
						S342.747,689.028,391.024,661.491z"/>
					<path fill="#E5A568" d="M392.44,650.86c0,0,9.297-33.986-27.538-48.278c-36.834-14.291-63.951,7.795-63.951,7.795
						S344.162,678.397,392.44,650.86z"/>
					<path fill="#FBC887" d="M386.027,643.486c0,0-41.811-34.621-85.076-33.109C300.951,610.377,349.667,630.026,386.027,643.486z"
						/>
				</g>
				<g>
					<path opacity="0.21" d="M335.212,568.893c0,0-5.32,94.491,39.542,98.133C419.617,670.668,353.776,543.449,335.212,568.893z"/>
					<path fill="#F8BB78" d="M343.009,555.552c0,0-5.32,94.492,39.542,98.134S361.573,530.108,343.009,555.552z"/>
				</g>
				<g>
					<path opacity="0.21" d="M149.188,361.58c0,0-12.525,20.489,14.831,47.49s65.238,28.767,82.951,18.56
						c17.713-10.206-18.273-57.303-29.718-66.929C205.807,351.075,171.002,323.942,149.188,361.58z"/>
					<path fill="#FBC887" d="M152.003,351.11c0,0-12.525,20.489,14.831,47.49s65.238,28.767,82.951,18.561
						c17.712-10.207-18.273-57.304-29.718-66.93C208.622,340.605,173.817,313.473,152.003,351.11z"/>
					<path fill="#E0A360" d="M167.07,354.226c0,0,49.984,17.649,79.239,54.984C246.309,409.21,196.396,378.249,167.07,354.226z"/>
				</g>
				<g>
					<path opacity="0.21" d="M429.198,632.561c0,0-11.515-21.073-48.56-10.825c-37.045,10.249-57.465,42.206-57.45,62.648
						c0.015,20.443,58.783,12.734,72.833,7.613S450.946,670.236,429.198,632.561z"/>
					<path fill="#FBC887" d="M430.362,620.126c0,0-11.515-21.072-48.56-10.824c-37.045,10.249-57.464,42.205-57.45,62.648
						c0.015,20.443,58.783,12.733,72.833,7.612C411.236,674.442,452.11,657.802,430.362,620.126z"/>
					<path fill="#E0A360" d="M420.148,631.633c0,0-40.222,34.527-87.171,41.27C332.977,672.902,384.703,645.075,420.148,631.633z"/>
				</g>
				<g>
					<path opacity="0.21" d="M175.171,440.539c0,0,23.306-17.134,44.483-1.494s52.151,2.216,56.654-1.485s27.961,8.22-12.948,35.11
						C222.452,499.56,153.569,481.741,175.171,440.539z"/>
					<path fill="#DCB886" d="M174.171,423.449c0,0,23.306-17.134,44.483-1.494s52.151,2.216,56.654-1.485s27.961,8.22-12.948,35.109
						C221.452,482.47,152.569,464.651,174.171,423.449z"/>
				</g>
				<g>
					<path opacity="0.21" d="M272.207,579.524c0,0,23.306-17.134,44.483-1.494c21.177,15.639,52.151,2.216,56.654-1.485
						s27.961,8.22-12.948,35.109C319.487,638.545,250.604,620.727,272.207,579.524z"/>
					<path fill="#DCB886" d="M271.207,562.435c0,0,23.307-17.134,44.483-1.494c21.178,15.639,52.151,2.215,56.654-1.485
						c4.503-3.701,27.961,8.22-12.948,35.109C318.487,621.455,249.604,603.637,271.207,562.435z"/>
				</g>
				<g>
					<path opacity="0.21" d="M366.98,754.545c0,0,5.637-28.371,31.819-31.121s39.98-33.559,40.807-39.328
						c0.826-5.771,26.181-12.804,14.138,34.647S378.843,799.529,366.98,754.545z"/>
					<path fill="#DCB886" d="M372.146,738.247c0,0,5.637-28.371,31.819-31.121s39.981-33.559,40.807-39.329
						c0.826-5.77,26.181-12.804,14.138,34.648C446.867,749.896,384.009,783.231,372.146,738.247z"/>
				</g>
				<g>
					<path opacity="0.21" d="M226.117,423.716c0,0-5.32,94.492,39.542,98.134S244.681,398.273,226.117,423.716z"/>
					<path fill="#F8BB78" d="M233.913,410.376c0,0-5.32,94.492,39.542,98.134S252.478,384.933,233.913,410.376z"/>
				</g>
				<g>
					<path opacity="0.21" d="M413.771,787.107c0,0,55.622,76.572,92.682,51.028C543.512,812.593,412.066,755.658,413.771,787.107z"
						/>
					<path fill="#F8BB78" d="M411.376,771.843c0,0,55.622,76.571,92.682,51.028S409.672,740.394,411.376,771.843z"/>
				</g>
				<g>
					<path opacity="0.21" d="M360.316,714.063c0,0,89.236,31.527,105.275-10.527S341.078,689.126,360.316,714.063z"/>
					<path fill="#F8BB78" d="M349.688,702.849c0,0,89.236,31.527,105.275-10.528C471.003,650.266,330.449,677.911,349.688,702.849z"
						/>
				</g>
				<g>
					<path opacity="0.21" d="M234.453,512.149c0,0-9.148,34.026,27.749,48.157c36.897,14.13,63.917-8.075,63.917-8.075
						S282.609,484.401,234.453,512.149z"/>
					<path fill="#E5A568" d="M237.972,499.062c0,0-9.148,34.026,27.749,48.156s63.917-8.074,63.917-8.074
						S286.128,471.313,237.972,499.062z"/>
					<path fill="#FBC887" d="M244.417,506.408c0,0,41.962,34.437,85.22,32.736C329.637,539.145,280.835,519.708,244.417,506.408z"/>
				</g>
				<g>
					<path opacity="0.21" d="M419.431,802.173c0,0,35.102,3.053,42.558-35.747c7.456-38.801-19.134-61.518-19.134-61.518
						S383.684,759.614,419.431,802.173z"/>
					<path fill="#E5A568" d="M428.012,788.274c0,0,35.103,3.053,42.558-35.747c7.457-38.8-19.134-61.518-19.134-61.518
						S392.265,745.716,428.012,788.274z"/>
					<path fill="#FBC887" d="M434.117,780.644c0,0,26.563-47.341,17.319-89.634C451.436,691.01,440.839,742.46,434.117,780.644z"/>
				</g>
				<g>
					<path opacity="0.21" d="M533.828,874.148c0,0,9.297-33.985-27.537-48.277c-36.835-14.292-63.952,7.794-63.952,7.794
						S485.55,901.686,533.828,874.148z"/>
					<path fill="#E5A568" d="M535.244,863.518c0,0,9.298-33.986-27.537-48.277c-36.834-14.292-63.951,7.794-63.951,7.794
						S486.966,891.055,535.244,863.518z"/>
					<path fill="#FBC887" d="M528.832,856.144c0,0-41.811-34.62-85.076-33.109C443.755,823.034,492.472,842.684,528.832,856.144z"/>
				</g>
			</g>
			<g>
				<g>
					<path opacity="0.21" d="M267.396,208.117c0,0-17.497,94.452,29.894,169.495c0,0,51.521-4.199,105.177-52.701
						C402.467,324.911,340.027,192.545,267.396,208.117z"/>
					<path fill="#B51C1E" d="M273.551,191.428c0,0-17.497,94.452,29.894,169.495c0,0,51.521-4.199,105.177-52.701
						C408.622,308.222,346.182,175.856,273.551,191.428z"/>
					<path fill="#E57454" d="M308.72,204.094c0,0,3.152,4.477,3.042,8.259c-0.109,3.782,6.217,1.853,5.162-0.972
						C315.869,208.557,308.72,204.094,308.72,204.094z"/>
					<path fill="#E57454" d="M276.916,198.3c0,0,3.152,4.477,3.042,8.259c-0.109,3.782,6.217,1.853,5.162-0.972
						C284.065,202.763,276.916,198.3,276.916,198.3z"/>
					<path fill="#E57454" d="M280.478,227.302c0,0,3.152,4.478,3.043,8.26c-0.109,3.782,6.217,1.853,5.162-0.972
						S280.478,227.302,280.478,227.302z"/>
					<path fill="#E57454" d="M350.322,228.393c0,0,3.152,4.478,3.042,8.259c-0.109,3.782,6.217,1.853,5.162-0.972
						C357.471,232.855,350.322,228.393,350.322,228.393z"/>
					<path fill="#E57454" d="M337.443,244.827c0,0,3.152,4.477,3.042,8.259s6.217,1.853,5.162-0.972
						C344.592,249.29,337.443,244.827,337.443,244.827z"/>
					<path fill="#E57454" d="M308.252,229.809c0,0,3.152,4.478,3.042,8.259c-0.109,3.782,6.217,1.853,5.162-0.972
						C315.401,234.271,308.252,229.809,308.252,229.809z"/>
					<path fill="#E57454" d="M285.324,258.91c0,0,3.152,4.478,3.042,8.26c-0.109,3.781,6.217,1.853,5.162-0.972
						C292.473,263.373,285.324,258.91,285.324,258.91z"/>
					<path fill="#E57454" d="M308.779,348.086c0,0,3.152,4.478,3.042,8.259c-0.109,3.782,6.217,1.854,5.162-0.972
						C315.928,352.549,308.779,348.086,308.779,348.086z"/>
					<path fill="#E57454" d="M317.602,274.295c0,0,3.152,4.478,3.043,8.26s6.217,1.853,5.162-0.972
						C324.751,278.758,317.602,274.295,317.602,274.295z"/>
					<path fill="#E57454" d="M353.147,291.563c0,0,3.152,4.478,3.042,8.26c-0.109,3.781,6.217,1.853,5.162-0.972
						C360.296,296.026,353.147,291.563,353.147,291.563z"/>
					<path fill="#E57454" d="M314.025,314.106c0,0,3.152,4.478,3.043,8.26c-0.109,3.781,6.217,1.853,5.162-0.973
						C321.174,318.569,314.025,314.106,314.025,314.106z"/>
					<path fill="#E57454" d="M380.972,272.681c0,0,3.152,4.478,3.042,8.259c-0.109,3.782,6.217,1.854,5.162-0.972
						C388.121,277.144,380.972,272.681,380.972,272.681z"/>
					<path fill="#E57454" d="M350.324,331.082c0,0,3.152,4.478,3.042,8.26c-0.109,3.781,6.217,1.853,5.162-0.972
						C357.473,335.545,350.324,331.082,350.324,331.082z"/>
					<path fill="#E57454" d="M281.388,295.163c0,0,3.152,4.477,3.042,8.259s6.217,1.854,5.162-0.972
						C288.536,299.626,281.388,295.163,281.388,295.163z"/>
					<path fill="#E57454" d="M389.1,308.739c0,0,3.152,4.477,3.043,8.259s6.217,1.854,5.162-0.972
						C396.249,313.202,389.1,308.739,389.1,308.739z"/>
				</g>
				<g>
					<path opacity="0.21" d="M332.579,311.793c0,0-17.504,38.419,11.09,100.274c28.594,61.854,73.37,41.717,84.902,32.682
						c0,0,27.967-4.973,35.891-20.27S400.194,264.023,332.579,311.793z"/>
					<path fill="#A32123" d="M336.514,300.276c0,0-17.504,38.419,11.09,100.273c28.594,61.855,73.37,41.717,84.901,32.682
						c0,0,27.968-4.973,35.891-20.27S404.129,252.506,336.514,300.276z"/>
					<path fill="#E57454" d="M378.859,318.358c0,0,3.169,4.502,3.06,8.305c-0.11,3.802,6.25,1.862,5.189-0.978
						S378.859,318.358,378.859,318.358z"/>
					<path fill="#E57454" d="M408.755,342.39c0,0,3.169,4.502,3.06,8.305c-0.11,3.802,6.25,1.862,5.189-0.978
						C415.943,346.877,408.755,342.39,408.755,342.39z"/>
					<path fill="#E57454" d="M442.709,375.753c0,0,3.169,4.501,3.059,8.304s6.251,1.863,5.189-0.977
						C449.896,380.239,442.709,375.753,442.709,375.753z"/>
					<path fill="#E57454" d="M345.35,307.687c0,0,3.169,4.501,3.059,8.304s6.251,1.863,5.189-0.977
						C352.537,312.174,345.35,307.687,345.35,307.687z"/>
					<path fill="#E57454" d="M343.428,380.033c0,0,3.169,4.501,3.059,8.304s6.251,1.863,5.189-0.977
						C350.615,384.521,343.428,380.033,343.428,380.033z"/>
					<path fill="#E57454" d="M340.011,340.743c0,0,3.169,4.502,3.059,8.305s6.251,1.862,5.189-0.978
						C347.199,345.23,340.011,340.743,340.011,340.743z"/>
					<path fill="#E57454" d="M373.824,362.518c0,0,3.169,4.502,3.059,8.305c-0.11,3.802,6.251,1.862,5.189-0.978
						C381.012,367.005,373.824,362.518,373.824,362.518z"/>
					<path fill="#E57454" d="M410.072,425.424c0,0,3.169,4.502,3.059,8.304c-0.11,3.803,6.251,1.863,5.19-0.977
						C417.259,429.911,410.072,425.424,410.072,425.424z"/>
					<path fill="#E57454" d="M448.02,410.53c0,0,3.169,4.502,3.059,8.305s6.251,1.863,5.19-0.978
						C455.207,415.018,448.02,410.53,448.02,410.53z"/>
					<path fill="#E57454" d="M413.602,389.483c0,0,3.169,4.502,3.06,8.304c-0.11,3.803,6.25,1.863,5.189-0.977
						S413.602,389.483,413.602,389.483z"/>
					<path fill="#E57454" d="M377.738,406.217c0,0,3.169,4.502,3.059,8.304c-0.11,3.803,6.251,1.863,5.189-0.977
						C384.926,410.704,377.738,406.217,377.738,406.217z"/>
				</g>
				<g>
					<path opacity="0.21" d="M396.861,387.151c0,0-17.497,94.451,29.894,169.495c0,0,51.521-4.2,105.177-52.702
						C531.932,503.944,469.492,371.579,396.861,387.151z"/>
					<path fill="#B51C1E" d="M403.016,370.462c0,0-17.497,94.452,29.894,169.495c0,0,51.521-4.199,105.177-52.702
						C538.087,487.255,475.647,354.89,403.016,370.462z"/>
					<path fill="#E57454" d="M438.186,383.127c0,0,3.152,4.478,3.042,8.26s6.217,1.853,5.162-0.972
						C445.334,387.59,438.186,383.127,438.186,383.127z"/>
					<path fill="#E57454" d="M406.381,377.333c0,0,3.152,4.478,3.042,8.26s6.217,1.853,5.162-0.972
						C413.53,381.796,406.381,377.333,406.381,377.333z"/>
					<path fill="#E57454" d="M409.943,406.336c0,0,3.152,4.478,3.043,8.26s6.217,1.853,5.162-0.972
						C417.092,410.799,409.943,406.336,409.943,406.336z"/>
					<path fill="#E57454" d="M479.787,407.426c0,0,3.152,4.478,3.043,8.26s6.217,1.854,5.162-0.972
						C486.936,411.89,479.787,407.426,479.787,407.426z"/>
					<path fill="#E57454" d="M466.909,423.86c0,0,3.152,4.478,3.042,8.259c-0.109,3.782,6.217,1.854,5.162-0.972
						C474.058,428.323,466.909,423.86,466.909,423.86z"/>
					<path fill="#E57454" d="M437.717,408.842c0,0,3.152,4.478,3.042,8.26c-0.109,3.782,6.217,1.854,5.162-0.972
						C444.866,413.306,437.717,408.842,437.717,408.842z"/>
					<path fill="#E57454" d="M414.789,437.943c0,0,3.152,4.478,3.042,8.26s6.217,1.854,5.162-0.972
						C421.938,442.407,414.789,437.943,414.789,437.943z"/>
					<path fill="#E57454" d="M438.244,527.119c0,0,3.152,4.478,3.043,8.26c-0.109,3.781,6.217,1.853,5.162-0.972
						C445.393,531.582,438.244,527.119,438.244,527.119z"/>
					<path fill="#E57454" d="M447.067,453.329c0,0,3.152,4.477,3.043,8.259s6.217,1.854,5.162-0.972
						C454.217,457.792,447.067,453.329,447.067,453.329z"/>
					<path fill="#E57454" d="M482.612,470.598c0,0,3.152,4.477,3.042,8.259s6.217,1.854,5.162-0.972
						C489.761,475.061,482.612,470.598,482.612,470.598z"/>
					<path fill="#E57454" d="M443.49,493.14c0,0,3.152,4.478,3.043,8.26s6.217,1.853,5.162-0.972
						C450.639,497.603,443.49,493.14,443.49,493.14z"/>
					<path fill="#E57454" d="M510.437,451.714c0,0,3.152,4.478,3.042,8.26c-0.109,3.782,6.217,1.853,5.162-0.972
						C517.586,456.177,510.437,451.714,510.437,451.714z"/>
					<path fill="#E57454" d="M479.79,510.115c0,0,3.152,4.478,3.042,8.26s6.217,1.854,5.162-0.972
						C486.938,514.579,479.79,510.115,479.79,510.115z"/>
					<path fill="#E57454" d="M410.853,474.196c0,0,3.152,4.478,3.043,8.26c-0.109,3.781,6.217,1.853,5.162-0.972
						C418.001,478.659,410.853,474.196,410.853,474.196z"/>
					<path fill="#E57454" d="M518.565,487.772c0,0,3.152,4.478,3.043,8.26c-0.109,3.781,6.217,1.853,5.162-0.972
						C525.714,492.235,518.565,487.772,518.565,487.772z"/>
				</g>
				<g>
					<path opacity="0.21" d="M462.044,490.827c0,0-17.504,38.418,11.09,100.273c28.595,61.854,73.371,41.717,84.902,32.682
						c0,0,27.967-4.973,35.891-20.27S529.659,443.057,462.044,490.827z"/>
					<path fill="#A32123" d="M465.979,479.31c0,0-17.504,38.419,11.09,100.273c28.595,61.855,73.371,41.718,84.902,32.682
						c0,0,27.968-4.972,35.891-20.269S533.594,431.539,465.979,479.31z"/>
					<path fill="#E57454" d="M508.324,497.392c0,0,3.169,4.502,3.06,8.305s6.25,1.863,5.189-0.977
						C515.512,501.879,508.324,497.392,508.324,497.392z"/>
					<path fill="#E57454" d="M538.221,521.423c0,0,3.169,4.502,3.06,8.305c-0.11,3.803,6.25,1.863,5.189-0.977
						C545.409,525.91,538.221,521.423,538.221,521.423z"/>
					<path fill="#E57454" d="M572.174,554.786c0,0,3.169,4.502,3.059,8.304c-0.11,3.803,6.251,1.863,5.189-0.977
						C579.362,559.273,572.174,554.786,572.174,554.786z"/>
					<path fill="#E57454" d="M474.815,486.72c0,0,3.169,4.502,3.059,8.305c-0.11,3.802,6.251,1.862,5.19-0.978
						C482.002,491.207,474.815,486.72,474.815,486.72z"/>
					<path fill="#E57454" d="M472.893,559.066c0,0,3.169,4.502,3.059,8.304c-0.11,3.803,6.251,1.863,5.189-0.977
						C480.081,563.554,472.893,559.066,472.893,559.066z"/>
					<path fill="#E57454" d="M469.477,519.777c0,0,3.169,4.501,3.059,8.304s6.251,1.863,5.19-0.977
						C476.664,524.265,469.477,519.777,469.477,519.777z"/>
					<path fill="#E57454" d="M503.29,541.552c0,0,3.169,4.501,3.059,8.304s6.251,1.863,5.189-0.977
						C510.477,546.038,503.29,541.552,503.29,541.552z"/>
					<path fill="#E57454" d="M539.537,604.457c0,0,3.169,4.502,3.059,8.305s6.251,1.863,5.189-0.978
						C546.725,608.944,539.537,604.457,539.537,604.457z"/>
					<path fill="#E57454" d="M577.485,589.564c0,0,3.169,4.501,3.059,8.304s6.251,1.863,5.19-0.977
						C584.672,594.052,577.485,589.564,577.485,589.564z"/>
					<path fill="#E57454" d="M543.067,568.517c0,0,3.169,4.502,3.06,8.305c-0.11,3.802,6.25,1.863,5.189-0.978
						C550.255,573.004,543.067,568.517,543.067,568.517z"/>
					<path fill="#E57454" d="M507.204,585.25c0,0,3.169,4.502,3.059,8.305s6.251,1.863,5.189-0.978
						C514.391,589.737,507.204,585.25,507.204,585.25z"/>
				</g>
				<g>
					<path opacity="0.21" d="M506.978,559.852c0,0-17.497,94.452,29.894,169.495c0,0,51.522-4.199,105.177-52.702
						C642.048,676.645,579.608,544.279,506.978,559.852z"/>
					<path fill="#B51C1E" d="M513.132,543.162c0,0-17.497,94.452,29.894,169.495c0,0,51.521-4.199,105.177-52.701
						C648.203,659.956,585.763,527.59,513.132,543.162z"/>
					<path fill="#E57454" d="M548.302,555.827c0,0,3.152,4.478,3.042,8.26c-0.109,3.782,6.217,1.854,5.162-0.972
						C555.451,560.291,548.302,555.827,548.302,555.827z"/>
					<path fill="#E57454" d="M516.498,550.034c0,0,3.152,4.477,3.043,8.259s6.217,1.854,5.162-0.972
						C523.646,554.497,516.498,550.034,516.498,550.034z"/>
					<path fill="#E57454" d="M520.06,579.036c0,0,3.152,4.478,3.043,8.26s6.217,1.854,5.162-0.972
						C527.208,583.5,520.06,579.036,520.06,579.036z"/>
					<path fill="#E57454" d="M589.903,580.127c0,0,3.152,4.478,3.042,8.259c-0.109,3.782,6.217,1.854,5.162-0.972
						C597.052,584.59,589.903,580.127,589.903,580.127z"/>
					<path fill="#E57454" d="M577.025,596.561c0,0,3.152,4.478,3.042,8.26c-0.109,3.782,6.217,1.853,5.162-0.972
						C584.174,601.023,577.025,596.561,577.025,596.561z"/>
					<path fill="#E57454" d="M547.833,581.543c0,0,3.152,4.478,3.043,8.259c-0.109,3.782,6.217,1.854,5.162-0.972
						C554.982,586.006,547.833,581.543,547.833,581.543z"/>
					<path fill="#E57454" d="M524.905,610.645c0,0,3.152,4.478,3.042,8.259c-0.109,3.782,6.217,1.854,5.162-0.972
						C532.054,615.107,524.905,610.645,524.905,610.645z"/>
					<path fill="#E57454" d="M548.361,699.819c0,0,3.152,4.478,3.042,8.26s6.217,1.854,5.162-0.972
						C555.51,704.282,548.361,699.819,548.361,699.819z"/>
					<path fill="#E57454" d="M557.184,626.029c0,0,3.152,4.478,3.042,8.259c-0.109,3.782,6.217,1.854,5.162-0.971
						C564.333,630.492,557.184,626.029,557.184,626.029z"/>
					<path fill="#E57454" d="M592.729,643.298c0,0,3.152,4.478,3.043,8.26c-0.11,3.781,6.217,1.853,5.162-0.972
						C599.877,647.761,592.729,643.298,592.729,643.298z"/>
					<path fill="#E57454" d="M553.606,665.841c0,0,3.152,4.477,3.043,8.259s6.217,1.854,5.162-0.972
						C560.755,670.304,553.606,665.841,553.606,665.841z"/>
					<path fill="#E57454" d="M620.553,624.415c0,0,3.152,4.477,3.043,8.259s6.217,1.854,5.162-0.972
						C627.702,628.878,620.553,624.415,620.553,624.415z"/>
					<path fill="#E57454" d="M589.906,682.816c0,0,3.152,4.478,3.042,8.259c-0.109,3.782,6.217,1.854,5.162-0.971
						C597.055,687.279,589.906,682.816,589.906,682.816z"/>
					<path fill="#E57454" d="M520.969,646.896c0,0,3.152,4.478,3.042,8.26s6.217,1.853,5.162-0.972
						C528.118,651.359,520.969,646.896,520.969,646.896z"/>
					<path fill="#E57454" d="M628.681,660.473c0,0,3.152,4.478,3.043,8.26s6.217,1.854,5.162-0.972S628.681,660.473,628.681,660.473
						z"/>
				</g>
				<g>
					<path opacity="0.21" d="M572.161,663.527c0,0-17.504,38.419,11.09,100.273c28.595,61.855,73.371,41.718,84.902,32.682
						c0,0,27.968-4.972,35.89-20.269C711.967,760.917,639.775,615.757,572.161,663.527z"/>
					<path fill="#A32123" d="M576.096,652.011c0,0-17.504,38.418,11.09,100.273c28.594,61.854,73.37,41.717,84.901,32.682
						c0,0,27.968-4.973,35.891-20.27C715.902,749.399,643.71,604.24,576.096,652.011z"/>
					<path fill="#E57454" d="M618.441,670.093c0,0,3.169,4.502,3.059,8.304c-0.11,3.803,6.251,1.863,5.189-0.977
						C625.628,674.58,618.441,670.093,618.441,670.093z"/>
					<path fill="#E57454" d="M648.337,694.124c0,0,3.169,4.502,3.06,8.304c-0.11,3.803,6.25,1.863,5.189-0.977
						S648.337,694.124,648.337,694.124z"/>
					<path fill="#E57454" d="M682.291,727.486c0,0,3.169,4.502,3.059,8.305c-0.11,3.802,6.251,1.863,5.189-0.978
						C689.478,731.974,682.291,727.486,682.291,727.486z"/>
					<path fill="#E57454" d="M584.931,659.421c0,0,3.169,4.501,3.059,8.304c-0.11,3.803,6.251,1.863,5.19-0.978
						C592.119,663.907,584.931,659.421,584.931,659.421z"/>
					<path fill="#E57454" d="M583.009,731.767c0,0,3.169,4.502,3.059,8.305s6.251,1.863,5.19-0.977
						C590.197,736.254,583.009,731.767,583.009,731.767z"/>
					<path fill="#E57454" d="M579.593,692.478c0,0,3.169,4.502,3.059,8.304c-0.11,3.803,6.251,1.863,5.19-0.977
						C586.78,696.965,579.593,692.478,579.593,692.478z"/>
					<path fill="#E57454" d="M613.406,714.252c0,0,3.169,4.502,3.059,8.304c-0.11,3.803,6.251,1.863,5.19-0.977
						C620.593,718.739,613.406,714.252,613.406,714.252z"/>
					<path fill="#E57454" d="M649.653,777.158c0,0,3.169,4.501,3.059,8.304s6.251,1.863,5.19-0.977
						C656.841,781.646,649.653,777.158,649.653,777.158z"/>
					<path fill="#E57454" d="M687.601,762.265c0,0,3.169,4.502,3.059,8.305c-0.11,3.802,6.251,1.862,5.19-0.978
						C694.789,766.752,687.601,762.265,687.601,762.265z"/>
					<path fill="#E57454" d="M653.183,741.218c0,0,3.169,4.501,3.06,8.304s6.251,1.863,5.189-0.977
						C660.371,745.704,653.183,741.218,653.183,741.218z"/>
					<path fill="#E57454" d="M617.32,757.951c0,0,3.169,4.501,3.059,8.304s6.251,1.863,5.189-0.977
						C624.507,762.438,617.32,757.951,617.32,757.951z"/>
				</g>
			</g>
			<g>
				<path opacity="0.21" d="M327.55,213.112l155.508,216.747c0,0,80.451-83.985,16.376-175.908
					C435.359,162.029,327.55,213.112,327.55,213.112z"/>
				<path fill="#804324" d="M327.081,191.777l155.508,216.747c0,0,80.451-83.985,16.376-175.908
					C434.891,140.694,327.081,191.777,327.081,191.777z"/>
				<path fill="#CDBE6B" d="M328.159,193.279l153.322,213.7c16.734-20.848,65.056-92.53,11.172-169.834
					C438.639,159.657,353.549,183.79,328.159,193.279z"/>
				<path fill="#E6D7B8" d="M452.472,366.548c8.674-10.074,13.222-32.731,8.875-43.695c-6.576-16.59,6.542,0.633,0.85-40.182
					c-5.692-40.814-40.543-36.357-51.93-33.134c-11.386,3.222-26.928-4.652-39.234-8.016c-3.844-1.051-5.661,0.31-6.342,2.678
					L452.472,366.548z"/>
				<path fill="#A38D75" d="M352.302,218.253c0,0,23.389,23.491,31.812,44.341C384.114,262.595,365.014,245.573,352.302,218.253z"/>
				<path fill="#A38D75" d="M440.678,341.433c0,0,23.389,23.491,31.813,44.341C472.491,385.773,453.391,368.753,440.678,341.433z"/>
				<path fill="#A38D75" d="M371.576,218.104c0,0,19.257,26.982,24.178,48.924C395.754,267.028,379.676,247.127,371.576,218.104z"/>
				<path fill="#A38D75" d="M383.792,206.676c0,0,15.143,29.489,16.831,51.913C400.623,258.589,387.599,236.567,383.792,206.676z"/>
				<path fill="#A38D75" d="M401.673,216.414c0,0,9.959,31.618,7.847,54.006C409.52,270.42,400.391,246.52,401.673,216.414z"/>
				<path fill="#A38D75" d="M414.899,205.525c0,0,5.189,32.741-0.202,54.572C414.697,260.098,409.192,235.113,414.899,205.525z"/>
				<path fill="#A38D75" d="M427.467,215.582c0,0-0.072,33.149-8.858,53.849C418.609,269.431,417.138,243.889,427.467,215.582z"/>
				<path fill="#A38D75" d="M439.322,215.216c0,0-4.263,32.874-15.596,52.296C423.727,267.513,425.497,241.99,439.322,215.216z"/>
				<path fill="#A38D75" d="M452.996,220.529c0,0-9.452,31.774-23.737,49.14C429.258,269.669,435.077,244.755,452.996,220.529z"/>
				<path fill="#A38D75" d="M466.628,228.652c0,0-14.79,29.667-31.856,44.31C434.772,272.962,444.8,249.425,466.628,228.652z"/>
				<path fill="#A38D75" d="M478.143,238.482c0,0-19.47,26.829-38.714,38.463C439.428,276.945,453.193,255.38,478.143,238.482z"/>
				<path fill="#A38D75" d="M505.548,316.534c0,0-33.149-0.072-53.849-8.858C451.7,307.676,477.242,306.205,505.548,316.534z"/>
				<path fill="#A38D75" d="M510.806,302.136c0,0-32.77,5.001-54.57-0.515C456.235,301.621,481.251,296.26,510.806,302.136z"/>
				<path fill="#A38D75" d="M503.803,289.991c0,0-31.624,9.939-54.011,7.812C449.792,297.803,473.699,288.69,503.803,289.991z"/>
				<path fill="#A38D75" d="M500.948,276.963c0,0-29.848,14.423-52.306,15.566C448.643,292.529,470.973,280.044,500.948,276.963z"/>
				<path fill="#A38D75" d="M495.858,263.689c0,0-27.259,18.863-49.271,23.465C446.588,287.154,466.72,271.367,495.858,263.689z"/>
				<path fill="#A38D75" d="M506.21,332.968c0,0-32.693-5.48-51.682-17.526C454.528,315.441,479.968,318.158,506.21,332.968z"/>
				<path fill="#A38D75" d="M492.104,343.089c0,0-31.418-10.574-48.266-25.468C443.838,317.621,468.53,324.321,492.104,343.089z"/>
				<path fill="#A38D75" d="M490.551,359.113c0,0-29.674-14.776-44.324-31.837C446.227,327.276,469.768,337.295,490.551,359.113z"/>
				<path fill="#A38D75" d="M481.166,369.625c0,0-27.253-18.871-39.311-37.853C441.854,331.772,463.72,345.056,481.166,369.625z"/>
				<path fill="#A38D75" d="M443.172,281.369c0,0,23.491-23.389,44.341-31.812C487.513,249.557,470.492,268.657,443.172,281.369z"/>
			</g>
			<g>
				<path opacity="0.21" d="M521.92,303.432l131.932,190.39c0,0-92.15,41.312-148.649-37.898S521.92,303.432,521.92,303.432z"/>
				<path fill="#804324" d="M504.607,296.827l131.932,190.39c0,0-92.15,41.312-148.649-37.898S504.607,296.827,504.607,296.827z"/>
				<path fill="#CDBE6B" d="M505.521,298.146l130.078,187.713c-21.931,7.608-94.65,26.229-142.164-40.384
					C445.807,378.703,490.356,316.146,505.521,298.146z"/>
				<path fill="#E6D7B8" d="M610.988,450.345c-10.769,4.157-30.626,1.27-38.326-5.481c-11.651-10.216-1.39,5.535-33.112-11.021
					c-31.722-16.557-17.914-43.762-11.958-52.135s4.047-23.381,4.884-34.427c0.262-3.451,1.904-4.539,4.04-4.406L610.988,450.345z"
					/>
				<path fill="#A38D75" d="M518.907,325.175c0,0,12.394,25.979,26.99,38.949C545.897,364.124,537.545,343.538,518.907,325.175z"/>
				<path fill="#A38D75" d="M593.886,433.375c0,0,12.394,25.979,26.99,38.949C620.876,472.324,612.524,451.738,593.886,433.375z"/>
				<path fill="#A38D75" d="M513.165,340.896c0,0,16.454,23.618,32.965,34.041C546.13,374.937,534.542,355.983,513.165,340.896z"/>
				<path fill="#A38D75" d="M500.256,347.555c0,0,19.704,20.983,37.551,28.903C537.808,376.458,523.594,359.385,500.256,347.555z"/>
				<path fill="#A38D75" d="M503.007,365.02c0,0,22.957,17.364,41.883,22.165C544.89,387.185,528.004,372.749,503.007,365.02z"/>
				<path fill="#A38D75" d="M490.245,372.661c0,0,25.266,13.791,44.693,15.748C534.938,388.409,516.108,376.621,490.245,372.661z"/>
				<path fill="#A38D75" d="M494.805,385.874c0,0,27.134,9.606,46.625,8.456C541.431,394.33,520.969,385.68,494.805,385.874z"/>
				<path fill="#A38D75" d="M491.049,395.463c0,0,28.131,6.1,47.321,2.493C538.37,397.956,516.979,391.963,491.049,395.463z"/>
				<path fill="#A38D75" d="M491.408,408.195c0,0,28.743,1.534,47.113-5.086C538.521,403.109,516.447,400.604,491.408,408.195z"/>
				<path fill="#A38D75" d="M494.076,421.714c0,0,28.577-3.445,45.53-13.134C539.606,408.58,517.431,409.919,494.076,421.714z"/>
				<path fill="#A38D75" d="M498.759,433.998c0,0,27.621-8.102,42.747-20.448C541.506,413.55,519.854,418.52,498.759,433.998z"/>
				<path fill="#A38D75" d="M554.606,479.172c0,0,9.607-27.134,8.457-46.626C563.062,432.546,554.412,453.008,554.606,479.172z"/>
				<path fill="#A38D75" d="M541.296,479.273c0,0,13.646-25.344,15.491-44.782C556.788,434.491,545.108,453.388,541.296,479.273z"/>
				<path fill="#A38D75" d="M533.406,470.005c0,0,17.35-22.967,22.138-41.896C555.543,428.108,541.119,445.004,533.406,470.005z"/>
				<path fill="#A38D75" d="M523.583,463.871c0,0,20.499-20.207,27.983-38.241C551.565,425.63,534.842,440.253,523.583,463.871z"/>
				<path fill="#A38D75" d="M514.209,455.837c0,0,23.377-16.794,33.559-33.455C547.769,422.382,528.986,434.244,514.209,455.837z"/>
				<path fill="#A38D75" d="M567.854,484.505c0,0,5.051-28.338,0.735-47.381C568.589,437.124,563.393,458.724,567.854,484.505z"/>
				<path fill="#A38D75" d="M580.245,475.919c0,0,0.513-28.779-6.756-46.902C573.489,429.017,571.769,451.165,580.245,475.919z"/>
				<path fill="#A38D75" d="M593.805,479.321c0,0-3.433-28.579-13.115-45.536C580.689,433.785,582.019,455.961,593.805,479.321z"/>
				<path fill="#A38D75" d="M605.138,474.71c0,0-7.488-27.793-19.497-43.189C585.642,431.521,590.13,453.277,605.138,474.71z"/>
				<path fill="#A38D75" d="M544.033,417.901c0,0-25.979,12.393-38.949,26.989C505.084,444.891,525.67,436.539,544.033,417.901z"/>
			</g>
			<g>
				<path opacity="0.21" d="M507.556,463.734L644.15,678.788c0,0,81.239-75.745,25.098-166.848
					C613.106,420.837,507.556,463.734,507.556,463.734z"/>
				<path fill="#804324" d="M508.259,443.366L644.853,658.42c0,0,81.239-75.745,25.098-166.848
					C613.81,400.469,508.259,443.366,508.259,443.366z"/>
				<path fill="#CDBE6B" d="M509.205,444.855l134.674,212.031c17.081-18.977,67.02-84.722,19.808-161.336
					C616.361,418.752,533.927,437.177,509.205,444.855z"/>
				<path fill="#E6D7B8" d="M618.398,616.771c8.814-9.138,14.372-30.496,10.819-41.186c-5.376-16.173,6.204,0.957,2.977-38.268
					c-3.228-39.224-36.699-36.853-47.729-34.394s-25.426-5.887-36.979-9.758c-3.609-1.209-5.415-0.01-6.191,2.212L618.398,616.771z"
					/>
				<path fill="#A38D75" d="M530.879,469.971c0,0,21.035,23.66,27.943,43.994C558.823,513.965,541.528,496.706,530.879,469.971z"/>
				<path fill="#A38D75" d="M608.507,592.188c0,0,21.035,23.66,27.943,43.995C636.451,636.183,619.156,618.923,608.507,592.188z"/>
				<path fill="#A38D75" d="M549.266,470.867c0,0,16.907,26.766,20.416,47.953C569.682,518.82,555.424,498.979,549.266,470.867z"/>
				<path fill="#A38D75" d="M561.53,460.629c0,0,12.849,28.935,13.25,50.406C574.779,511.035,563.548,489.336,561.53,460.629z"/>
				<path fill="#A38D75" d="M578.055,470.878c0,0,7.792,30.686,4.57,51.918C582.625,522.796,575.209,499.515,578.055,470.878z"/>
				<path fill="#A38D75" d="M591.252,461.209c0,0,3.183,31.498-3.134,52.024C588.119,513.233,584.216,489.112,591.252,461.209z"/>
				<path fill="#A38D75" d="M602.695,471.476c0,0-1.856,31.604-11.35,50.867C591.345,522.343,591.32,497.909,602.695,471.476z"/>
				<path fill="#A38D75" d="M614.018,471.766c0,0-5.836,31.116-17.689,49.024C596.329,520.79,599.393,496.55,614.018,471.766z"/>
				<path fill="#A38D75" d="M626.77,477.568c0,0-10.725,29.787-25.283,45.576C601.487,523.145,608.378,499.702,626.77,477.568z"/>
				<path fill="#A38D75" d="M639.331,486.049c0,0-15.701,27.491-32.764,40.533C606.567,526.582,617.397,504.68,639.331,486.049z"/>
				<path fill="#A38D75" d="M649.779,496.043c0,0-20.011,24.532-38.988,34.588C610.792,530.631,625.08,510.81,649.779,496.043z"/>
				<path fill="#A38D75" d="M671.704,571.943c0,0-31.604-1.855-50.868-11.35C620.836,560.594,645.27,560.568,671.704,571.943z"/>
				<path fill="#A38D75" d="M677.493,558.498c0,0-31.516,3.002-52.005-3.433C625.487,555.065,649.629,551.302,677.493,558.498z"/>
				<path fill="#A38D75" d="M671.471,546.541c0,0-30.69,7.771-51.921,4.536C619.55,551.077,642.836,543.677,671.471,546.541z"/>
				<path fill="#A38D75" d="M669.451,533.964c0,0-29.238,12.143-50.713,12.022C618.737,545.986,640.703,535.285,669.451,533.964z"/>
				<path fill="#A38D75" d="M665.312,521.032c0,0-27.008,16.518-48.245,19.719C617.068,540.751,637.115,526.782,665.312,521.032z"/>
				<path fill="#A38D75" d="M671.449,587.649c0,0-30.878-6.988-48.334-19.498C623.115,568.151,647.225,572.113,671.449,587.649z"/>
				<path fill="#A38D75" d="M657.453,596.539c0,0-29.387-11.776-44.649-26.886C612.804,569.653,635.986,577.373,657.453,596.539z"/>
				<path fill="#A38D75" d="M655.108,611.734c0,0-27.498-15.688-40.547-32.746C614.561,578.988,636.468,589.81,655.108,611.734z"/>
				<path fill="#A38D75" d="M645.593,621.251c0,0-24.97-19.463-35.443-38.211C610.149,583.04,630.282,596.885,645.593,621.251z"/>
				<path fill="#A38D75" d="M614.123,535.051c0,0,23.66-21.035,43.995-27.943C658.117,507.107,640.858,524.402,614.123,535.051z"/>
			</g>
			<g>
				<path opacity="0.21" d="M698.661,551.53l81.175,205.787c0,0-94.688,18.326-129.958-67.641
					C614.609,603.711,698.661,551.53,698.661,551.53z"/>
				<path fill="#804324" d="M684.002,541.616l81.176,205.786c0,0-94.688,18.326-129.958-67.64
					C599.95,593.796,684.002,541.616,684.002,541.616z"/>
				<path fill="#CDBE6B" d="M684.564,543.042L764.6,745.936c-22.051,2.294-93.726,3.757-123.386-68.537
					C611.482,604.931,666.541,556.473,684.564,543.042z"/>
				<path fill="#E6D7B8" d="M749.457,707.548c-10.92,1.519-28.754-5.494-34.442-13.45c-8.606-12.039-2.499,4.844-28.386-17.466
					c-25.888-22.309-7.119-44.595,0.244-51.082s8.86-20.858,12.046-30.947c0.995-3.151,2.759-3.806,4.716-3.216L749.457,707.548z"/>
				<path fill="#A38D75" d="M691.12,571.092c0,0,5.861,26.857,16.606,42.099C707.727,613.19,704.447,592.229,691.12,571.092z"/>
				<path fill="#A38D75" d="M737.253,688.042c0,0,5.861,26.857,16.606,42.099C753.859,730.141,750.58,709.179,737.253,688.042z"/>
				<path fill="#A38D75" d="M682.354,584.458c0,0,10.151,25.547,23.232,38.837C705.586,623.295,698.942,603.146,682.354,584.458z"/>
				<path fill="#A38D75" d="M668.9,587.836c0,0,13.747,23.806,28.616,35.06C697.516,622.896,688.021,603.922,668.9,587.836z"/>
				<path fill="#A38D75" d="M667.651,604.674c0,0,17.56,21.15,34.113,29.739C701.764,634.413,689.209,617.31,667.651,604.674z"/>
				<path fill="#A38D75" d="M654.118,608.998c0,0,20.487,18.33,38.125,24.385C692.243,633.383,677.304,618.317,654.118,608.998z"/>
				<path fill="#A38D75" d="M655.479,622.277c0,0,23.136,14.847,41.511,18.025C696.99,640.303,679.849,627.8,655.479,622.277z"/>
				<path fill="#A38D75" d="M649.896,630.375c0,0,24.827,11.803,43.457,12.633C693.353,643.008,674.77,632.771,649.896,630.375z"/>
				<path fill="#A38D75" d="M647.455,642.292c0,0,26.392,7.692,44.915,5.54C692.37,647.832,672.391,640.691,647.455,642.292z"/>
				<path fill="#A38D75" d="M646.989,655.444c0,0,27.323,3.025,45.198-2.289C692.187,653.155,671.276,649.566,646.989,655.444z"/>
				<path fill="#A38D75" d="M648.666,667.887c0,0,27.448-1.513,44.205-9.696C692.871,658.19,671.655,658.092,648.666,667.887z"/>
				<path fill="#A38D75" d="M690.748,722.063c0,0,14.847-23.136,18.026-41.511C708.773,680.553,696.27,697.693,690.748,722.063z"/>
				<path fill="#A38D75" d="M678.35,719.257c0,0,18.212-20.592,24.166-38.264C702.516,680.993,687.536,696.019,678.35,719.257z"/>
				<path fill="#A38D75" d="M673.033,708.919c0,0,21.139-17.574,29.717-34.132C702.75,674.787,685.655,687.353,673.033,708.919z"/>
				<path fill="#A38D75" d="M665.236,701.074c0,0,23.465-14.321,34.355-29.459C699.591,671.615,680.854,681.567,665.236,701.074z"/>
				<path fill="#A38D75" d="M658.272,691.561c0,0,25.397-10.521,38.497-23.793C696.769,667.768,676.718,674.704,658.272,691.561z"/>
				<path fill="#A38D75" d="M701.904,729.91c0,0,10.872-25.249,11.01-43.896C712.914,686.014,703.375,704.965,701.904,729.91z"/>
				<path fill="#A38D75" d="M715.297,724.627c0,0,6.75-26.648,3.941-45.084C719.238,679.543,712.811,699.763,715.297,724.627z"/>
				<path fill="#A38D75" d="M727.163,730.746c0,0,3.036-27.322-2.27-45.199C724.894,685.547,721.296,706.456,727.163,730.746z"/>
				<path fill="#A38D75" d="M738.706,728.929c0,0-0.904-27.475-8.714-44.409C729.992,684.52,729.424,705.729,738.706,728.929z"/>
				<path fill="#A38D75" d="M694.272,662.787c0,0-26.858,5.861-42.099,16.606C652.173,679.394,673.134,676.115,694.272,662.787z"/>
			</g>
			<path fill="#AA7474" d="M627.834,353.014c0,0,13.345,13.867,2.97,17.264c-10.375,3.397-23.546-0.787-23.546-0.787
				s-25.132,21.761-31.521,13.782c-6.389-7.979,6.691-29.91,11.319-33.615C591.684,345.951,627.834,353.014,627.834,353.014z"/>
			<path fill="#B37067" d="M527.197,261.325c2.104-4.098,6.891-6.641,11.464-6.094c0.259,6.7,5.347,12.036,9.298,17.452
				c3.952,5.417,6.922,13.105,2.985,18.531c-3.21,4.424-9.425,5.105-14.885,5.349c-1.588,0.071-3.238,0.127-4.698-0.501
				c-7.815-3.366-2.057-15.5-2.086-21.142C529.247,269.537,524.542,266.494,527.197,261.325z"/>
			<path fill="#B37067" d="M666.544,431.68c-0.645-4.561,1.798-9.399,5.849-11.591c4.076,5.323,11.311,6.747,17.663,8.892
				c6.353,2.145,13.215,6.711,13.128,13.415c-0.069,5.465-4.753,9.606-9.073,12.955c-1.256,0.975-2.572,1.973-4.126,2.301
				c-8.326,1.759-10.622-11.475-13.9-16.065C672.956,437.205,667.357,437.434,666.544,431.68z"/>
			<path fill="#B37067" d="M745.71,580.363c3.663-2.793,9.077-3.03,12.971-0.568c-2.649,6.159-0.353,13.166,0.886,19.755
				c1.236,6.59,0.609,14.809-5.279,18.013c-4.801,2.612-10.704,0.554-15.738-1.575c-1.463-0.619-2.978-1.279-4.024-2.475
				c-5.606-6.4,4.812-14.877,7.212-19.982C744.027,588.658,741.09,583.887,745.71,580.363z"/>
			<path fill="#B37067" d="M675.743,504.305c-0.645-4.561,1.797-9.399,5.849-11.591c4.076,5.323,11.311,6.747,17.663,8.892
				c6.352,2.145,13.214,6.711,13.127,13.415c-0.069,5.465-4.753,9.606-9.072,12.955c-1.256,0.975-2.572,1.972-4.126,2.301
				c-8.325,1.759-10.621-11.475-13.9-16.065C682.154,509.83,676.556,510.059,675.743,504.305z"/>
			<path fill="#B37067" d="M610.649,385.104c-0.645-4.561,1.797-9.4,5.849-11.591c4.076,5.323,11.311,6.747,17.663,8.892
				s13.214,6.711,13.128,13.415c-0.07,5.464-4.754,9.606-9.073,12.955c-1.256,0.974-2.572,1.972-4.127,2.3
				c-8.325,1.76-10.621-11.474-13.9-16.064C617.06,390.63,611.462,390.858,610.649,385.104z"/>
			<path fill="#3C1E1E" d="M555.206,352.016c1.031,3.263,1.908,6.702,4.091,9.337c4.709,5.682,15.161,4.698,18.728-1.763
				c0.508-0.919,0.89-1.92,1.001-2.964c0.297-2.799-1.343-5.396-2.914-7.732c-7.765-11.545-25.183-55.545-41.772-40.37
				c-4.34,3.97-7.598,11.365-3.903,16.493c2.371,3.291,10.679,2.615,14.299,5.648C549.911,335.001,553.239,345.798,555.206,352.016z
				"/>
			<path fill="#3C1E1E" d="M744.84,631.92c-1.836-2.888-3.566-5.987-6.354-7.972c-6.011-4.281-15.858-0.645-17.646,6.515
				c-0.255,1.019-0.366,2.085-0.206,3.122c0.433,2.781,2.685,4.87,4.803,6.725c10.471,9.162,38.609,47.209,50.744,28.281
				c3.174-4.952,4.422-12.937-0.467-16.943c-3.138-2.571-10.993,0.218-15.271-1.784C754.328,647.003,748.338,637.424,744.84,631.92z
				"/>
			<path fill="#3C1E1E" d="M611.956,405.443c-2.244-2.583-4.416-5.391-7.467-6.939c-6.581-3.34-15.779,1.72-16.482,9.065
				c-0.1,1.045-0.052,2.116,0.261,3.118c0.84,2.687,3.378,4.417,5.749,5.936c11.716,7.504,45.196,40.947,54.382,20.426
				c2.403-5.368,2.451-13.449-2.979-16.685c-3.484-2.077-10.838,1.848-15.366,0.505
				C623.581,418.949,616.233,410.366,611.956,405.443z"/>
			<path fill="#7E4C43" d="M513.047,250.341c0.816,1.16,1.656,2.344,2.817,3.157c0.509,0.356,1.046,0.615,1.599,0.785
				c4.213,1.294,9.378-2.53,10.403-7.148c1.16-5.225-1.156-10.526-3.416-15.378c-2.917-6.263-16.537-14.419-23.517-9.292
				C491.867,229.126,508.201,243.47,513.047,250.341z"/>
			<path fill="#7E4C43" d="M717.273,558.363c0.816,1.16,1.656,2.344,2.818,3.157c0.509,0.356,1.045,0.615,1.599,0.785
				c4.214,1.294,9.378-2.53,10.403-7.148c1.16-5.225-1.156-10.526-3.416-15.378c-2.917-6.263-16.536-14.419-23.516-9.292
				C696.093,537.148,712.428,551.492,717.273,558.363z"/>
			<path fill="#7E4C43" d="M659.098,473.215c0.816,1.16,1.656,2.344,2.818,3.157c0.509,0.356,1.045,0.615,1.599,0.785
				c4.213,1.294,9.378-2.53,10.404-7.148c1.16-5.225-1.156-10.526-3.416-15.378c-2.917-6.263-16.537-14.419-23.517-9.292
				C637.917,452,654.252,466.344,659.098,473.215z"/>
			<path fill="#D6ADAB" d="M468.301,200.924c3.221,4.446,9.106,6.236,12.623,10.451c3.071,3.68,4.235,9.072,8.358,11.517
				c6.106-1.54,10.347-8.354,9.031-14.513c-1.224-5.723-6.406-10.212-6.768-16.054c-0.223-3.603,1.369-7.637-0.702-10.595
				c-1.786-2.551-5.463-2.884-8.519-2.286c-3.055,0.598-6.047,1.878-9.151,1.646c-4.555-0.339-8.237-2.542-9.929,2.768
				C461.991,187.789,466.162,197.971,468.301,200.924z"/>
			<path fill="#D6ADAB" d="M731.596,585.927c-1.002-5.397-5.55-9.54-6.918-14.856c-1.193-4.642,0.068-10.012-2.605-13.989
				c-6.177-1.229-12.932,3.105-14.385,9.233c-1.352,5.694,1.403,11.973-0.777,17.404c-1.344,3.351-4.514,6.312-3.912,9.871
				c0.52,3.07,3.697,4.949,6.715,5.721c3.016,0.771,6.267,0.898,8.971,2.439c3.969,2.262,6.35,5.83,10.156,1.761
				C731.658,600.499,732.26,589.512,731.596,585.927z"/>
			<path fill="#D6ADAB" d="M572.26,324.956c3.22,4.445,9.105,6.235,12.623,10.45c3.07,3.681,4.234,9.072,8.357,11.517
				c6.106-1.539,10.347-8.354,9.031-14.512c-1.223-5.724-6.406-10.212-6.768-16.054c-0.224-3.604,1.368-7.638-0.702-10.595
				c-1.786-2.551-5.463-2.885-8.519-2.286c-3.055,0.599-6.047,1.878-9.151,1.646c-4.555-0.34-8.237-2.542-9.929,2.768
				C565.949,311.82,570.121,322.003,572.26,324.956z"/>
			<path fill="#D6ADAB" d="M709.299,470.321c-5.315-1.373-10.991,0.999-16.388-0.007c-4.712-0.879-9.046-4.292-13.781-3.548
				c-3.724,5.078-2.648,13.032,2.291,16.938c4.591,3.631,11.445,3.786,15.447,8.057c2.469,2.635,3.813,6.758,7.293,7.717
				c3.002,0.827,6.049-1.26,8.021-3.669c1.973-2.407,3.463-5.301,6.002-7.101c3.727-2.642,7.967-3.292,5.887-8.461
				C722.533,476.421,712.828,471.234,709.299,470.321z"/>
			<path fill="#D6ADAB" d="M751.822,685.954c3.221,4.445,9.106,6.235,12.623,10.45c3.07,3.681,4.234,9.072,8.357,11.517
				c6.107-1.539,10.348-8.354,9.031-14.512c-1.223-5.724-6.406-10.213-6.768-16.054c-0.224-3.604,1.369-7.638-0.702-10.595
				c-1.786-2.551-5.464-2.885-8.519-2.286c-3.056,0.598-6.047,1.878-9.151,1.646c-4.556-0.34-8.237-2.542-9.929,2.768
				C745.513,672.818,749.684,683.001,751.822,685.954z"/>
			<circle fill="#F1EDEE" cx="774.263" cy="554.241" r="2.14"/>
			<g>
				<g>
					<circle fill="#E589B7" cx="582.537" cy="228.597" r="4.103"/>
					<circle fill="#E589B7" cx="625.498" cy="274.063" r="12.742"/>
					<circle fill="#E589B7" cx="704.384" cy="306.818" r="8.192"/>
					<circle fill="#E589B7" cx="700.694" cy="358.333" r="12.404"/>
					<circle fill="#E589B7" cx="769.238" cy="409.846" r="13.573"/>
					<circle fill="#E589B7" cx="790.366" cy="488.114" r="14.747"/>
					<circle fill="#E589B7" cx="189.217" cy="544.237" r="4.02"/>
					<circle fill="#E589B7" cx="201.869" cy="588.181" r="13.143"/>
					<circle fill="#E589B7" cx="211.862" cy="645.327" r="7.314"/>
					<circle fill="#E589B7" cx="247.096" cy="621.157" r="6.577"/>
					<circle fill="#E589B7" cx="228.265" cy="578.114" r="3.039"/>
					<circle fill="#E589B7" cx="273.979" cy="702.207" r="10.314"/>
					<circle fill="#E589B7" cx="316.356" cy="718.141" r="4.78"/>
					<circle fill="#E589B7" cx="317.446" cy="765.247" r="9.176"/>
					<circle fill="#E589B7" cx="355.641" cy="785.159" r="8.122"/>
					<circle fill="#E589B7" cx="397.55" cy="813.362" r="1.519"/>
				</g>
			</g>
		</g>
		<g opacity="0.21" clip-path="url(#SVGID_2_)">
			<g>
				<circle cx="1022.412" cy="734.914" r="6.424"/>
				<circle cx="1044.021" cy="791.564" r="4.672"/>
				<circle cx="1101.254" cy="783.389" r="4.672"/>
				<circle cx="1115.854" cy="736.082" r="6.424"/>
				<circle cx="1056.285" cy="648.48" r="5.256"/>
				<circle cx="1218.641" cy="732.579" r="6.424"/>
				<circle cx="959.351" cy="772.305" r="8.773"/>
			</g>
		</g>
	</g>
</g>
</svg>
