<?xml version="1.0" encoding="UTF-8"?>
<svg width="700pt" height="700pt" version="1.1" viewBox="0 0 700 700" xmlns="http://www.w3.org/2000/svg" xmlns:xlink="http://www.w3.org/1999/xlink">
 <defs>
  <symbol id="t" overflow="visible">
   <path d="m18.766-1.125c-0.96875 0.5-1.9805 0.875-3.0312 1.125-1.043 0.25781-2.1367 0.39062-3.2812 0.39062-3.3984 0-6.0898-0.94531-8.0781-2.8438-1.9922-1.9062-2.9844-4.4844-2.9844-7.7344 0-3.2578 0.99219-5.8359 2.9844-7.7344 1.9883-1.9062 4.6797-2.8594 8.0781-2.8594 1.1445 0 2.2383 0.13281 3.2812 0.39062 1.0508 0.25 2.0625 0.625 3.0312 1.125v4.2188c-0.98047-0.65625-1.9453-1.1406-2.8906-1.4531-0.94922-0.3125-1.9492-0.46875-3-0.46875-1.875 0-3.3516 0.60547-4.4219 1.8125-1.0742 1.1992-1.6094 2.8555-1.6094 4.9688 0 2.1055 0.53516 3.7617 1.6094 4.9688 1.0703 1.1992 2.5469 1.7969 4.4219 1.7969 1.0508 0 2.0508-0.14844 3-0.45312 0.94531-0.3125 1.9102-0.80078 2.8906-1.4688z"/>
  </symbol>
  <symbol id="b" overflow="visible">
   <path d="m13.734-11.141c-0.4375-0.19531-0.87109-0.34375-1.2969-0.4375-0.41797-0.10156-0.83984-0.15625-1.2656-0.15625-1.2617 0-2.2305 0.40625-2.9062 1.2188-0.67969 0.80469-1.0156 1.9531-1.0156 3.4531v7.0625h-4.8906v-15.312h4.8906v2.5156c0.625-1 1.3438-1.7266 2.1562-2.1875 0.82031-0.46875 1.8008-0.70312 2.9375-0.70312 0.16406 0 0.34375 0.011719 0.53125 0.03125 0.19531 0.011719 0.47656 0.039062 0.84375 0.078125z"/>
  </symbol>
  <symbol id="c" overflow="visible">
   <path d="m17.641-7.7031v1.4062h-11.453c0.125 1.1484 0.53906 2.0078 1.25 2.5781 0.70703 0.57422 1.7031 0.85938 2.9844 0.85938 1.0312 0 2.082-0.14844 3.1562-0.45312 1.082-0.3125 2.1914-0.77344 3.3281-1.3906v3.7656c-1.1562 0.4375-2.3125 0.76562-3.4688 0.98438-1.1562 0.22656-2.3125 0.34375-3.4688 0.34375-2.7734 0-4.9297-0.70312-6.4688-2.1094-1.5312-1.4062-2.2969-3.3789-2.2969-5.9219 0-2.5 0.75391-4.4609 2.2656-5.8906 1.5078-1.4375 3.582-2.1562 6.2188-2.1562 2.4062 0 4.332 0.73047 5.7812 2.1875 1.4453 1.4492 2.1719 3.3828 2.1719 5.7969zm-5.0312-1.625c0-0.92578-0.27344-1.6719-0.8125-2.2344-0.54297-0.57031-1.25-0.85938-2.125-0.85938-0.94922 0-1.7188 0.26562-2.3125 0.79688s-0.96484 1.2969-1.1094 2.2969z"/>
  </symbol>
  <symbol id="i" overflow="visible">
   <path d="m9.2188-6.8906c-1.0234 0-1.793 0.17188-2.3125 0.51562-0.51172 0.34375-0.76562 0.85547-0.76562 1.5312 0 0.625 0.20703 1.1172 0.625 1.4688 0.41406 0.34375 0.98828 0.51562 1.7188 0.51562 0.92578 0 1.7031-0.32812 2.3281-0.98438 0.63281-0.66406 0.95312-1.4922 0.95312-2.4844v-0.5625zm7.4688-1.8438v8.7344h-4.9219v-2.2656c-0.65625 0.92969-1.3984 1.6055-2.2188 2.0312-0.82422 0.41406-1.8242 0.625-3 0.625-1.5859 0-2.8711-0.45703-3.8594-1.375-0.99219-0.92578-1.4844-2.1289-1.4844-3.6094 0-1.7891 0.61328-3.1016 1.8438-3.9375 1.2383-0.84375 3.1797-1.2656 5.8281-1.2656h2.8906v-0.39062c0-0.76953-0.30859-1.332-0.92188-1.6875-0.61719-0.36328-1.5703-0.54688-2.8594-0.54688-1.0547 0-2.0312 0.10547-2.9375 0.3125-0.89844 0.21094-1.7305 0.52344-2.5 0.9375v-3.7344c1.0391-0.25 2.0859-0.44141 3.1406-0.57812 1.0625-0.13281 2.125-0.20312 3.1875-0.20312 2.7578 0 4.75 0.54688 5.9688 1.6406 1.2266 1.0859 1.8438 2.8555 1.8438 5.3125z"/>
  </symbol>
  <symbol id="d" overflow="visible">
   <path d="m7.7031-19.656v4.3438h5.0469v3.5h-5.0469v6.5c0 0.71094 0.14062 1.1875 0.42188 1.4375s0.83594 0.375 1.6719 0.375h2.5156v3.5h-4.1875c-1.9375 0-3.3125-0.39844-4.125-1.2031-0.80469-0.8125-1.2031-2.1797-1.2031-4.1094v-6.5h-2.4219v-3.5h2.4219v-4.3438z"/>
  </symbol>
  <symbol id="h" overflow="visible">
   <path d="m12.766-13.078v-8.2031h4.9219v21.281h-4.9219v-2.2188c-0.66797 0.90625-1.4062 1.5703-2.2188 1.9844s-1.7578 0.625-2.8281 0.625c-1.8867 0-3.4336-0.75-4.6406-2.25-1.2109-1.5-1.8125-3.4258-1.8125-5.7812 0-2.3633 0.60156-4.2969 1.8125-5.7969 1.207-1.5 2.7539-2.25 4.6406-2.25 1.0625 0 2 0.21484 2.8125 0.64062 0.82031 0.42969 1.5664 1.0859 2.2344 1.9688zm-3.2188 9.9219c1.0391 0 1.8359-0.37891 2.3906-1.1406 0.55078-0.76953 0.82812-1.8828 0.82812-3.3438 0-1.457-0.27734-2.5664-0.82812-3.3281-0.55469-0.76953-1.3516-1.1562-2.3906-1.1562-1.043 0-1.8398 0.38672-2.3906 1.1562-0.55469 0.76172-0.82812 1.8711-0.82812 3.3281 0 1.4609 0.27344 2.5742 0.82812 3.3438 0.55078 0.76172 1.3477 1.1406 2.3906 1.1406z"/>
  </symbol>
  <symbol id="g" overflow="visible">
   <path d="m10.5-3.1562c1.0508 0 1.8516-0.37891 2.4062-1.1406 0.55078-0.76953 0.82812-1.8828 0.82812-3.3438 0-1.457-0.27734-2.5664-0.82812-3.3281-0.55469-0.76953-1.3555-1.1562-2.4062-1.1562-1.0547 0-1.8594 0.38672-2.4219 1.1562-0.55469 0.77344-0.82812 1.8828-0.82812 3.3281 0 1.4492 0.27344 2.5586 0.82812 3.3281 0.5625 0.77344 1.3672 1.1562 2.4219 1.1562zm-3.25-9.9219c0.67578-0.88281 1.4219-1.5391 2.2344-1.9688 0.82031-0.42578 1.7656-0.64062 2.8281-0.64062 1.8945 0 3.4453 0.75 4.6562 2.25 1.207 1.5 1.8125 3.4336 1.8125 5.7969 0 2.3555-0.60547 4.2812-1.8125 5.7812-1.2109 1.5-2.7617 2.25-4.6562 2.25-1.0625 0-2.0078-0.21094-2.8281-0.625-0.8125-0.42578-1.5586-1.0859-2.2344-1.9844v2.2188h-4.8906v-21.281h4.8906z"/>
  </symbol>
  <symbol id="f" overflow="visible">
   <path d="m0.34375-15.312h4.8906l4.125 10.391 3.5-10.391h4.8906l-6.4375 16.766c-0.64844 1.6953-1.4023 2.8828-2.2656 3.5625-0.86719 0.6875-2 1.0312-3.4062 1.0312h-2.8438v-3.2188h1.5312c0.83203 0 1.4375-0.13672 1.8125-0.40625 0.38281-0.26172 0.67969-0.73047 0.89062-1.4062l0.14062-0.42188z"/>
  </symbol>
  <symbol id="e" overflow="visible">
   <path d="m2.5781-20.406h5.25v7.4375l7.5938-7.4375h6.1094l-9.8281 9.6562 10.844 10.75h-6.5938l-8.125-8.0469v8.0469h-5.25z"/>
  </symbol>
  <symbol id="a" overflow="visible">
   <path d="m9.6406-12.188c-1.0859 0-1.9141 0.39062-2.4844 1.1719-0.57422 0.78125-0.85938 1.9062-0.85938 3.375s0.28516 2.5938 0.85938 3.375c0.57031 0.77344 1.3984 1.1562 2.4844 1.1562 1.0625 0 1.875-0.38281 2.4375-1.1562 0.57031-0.78125 0.85938-1.9062 0.85938-3.375s-0.28906-2.5938-0.85938-3.375c-0.5625-0.78125-1.375-1.1719-2.4375-1.1719zm0-3.5c2.6328 0 4.6914 0.71484 6.1719 2.1406 1.4766 1.418 2.2188 3.3867 2.2188 5.9062 0 2.5117-0.74219 4.4805-2.2188 5.9062-1.4805 1.418-3.5391 2.125-6.1719 2.125-2.6484 0-4.7148-0.70703-6.2031-2.125-1.4922-1.4258-2.2344-3.3945-2.2344-5.9062 0-2.5195 0.74219-4.4883 2.2344-5.9062 1.4883-1.4258 3.5547-2.1406 6.2031-2.1406z"/>
  </symbol>
  <symbol id="s" overflow="visible">
   <path d="m2.3594-21.281h4.8906v11.594l5.625-5.625h5.6875l-7.4688 7.0312 8.0625 8.2812h-5.9375l-5.9688-6.3906v6.3906h-4.8906z"/>
  </symbol>
  <symbol id="r" overflow="visible">
   <path d="m12.422-21.281v3.2188h-2.7031c-0.6875 0-1.1719 0.125-1.4531 0.375-0.27344 0.25-0.40625 0.6875-0.40625 1.3125v1.0625h4.1875v3.5h-4.1875v11.812h-4.8906v-11.812h-2.4375v-3.5h2.4375v-1.0625c0-1.6641 0.46094-2.8984 1.3906-3.7031 0.92578-0.80078 2.3672-1.2031 4.3281-1.2031z"/>
  </symbol>
  <symbol id="q" overflow="visible">
   <path d="m16.547-12.766c0.61328-0.94531 1.3477-1.6719 2.2031-2.1719 0.85156-0.5 1.7891-0.75 2.8125-0.75 1.7578 0 3.0977 0.54688 4.0156 1.6406 0.92578 1.0859 1.3906 2.6562 1.3906 4.7188v9.3281h-4.9219v-7.9844-0.35938c0.007813-0.13281 0.015625-0.32031 0.015625-0.5625 0-1.082-0.16406-1.8633-0.48438-2.3438-0.3125-0.48828-0.82422-0.73438-1.5312-0.73438-0.92969 0-1.6484 0.38672-2.1562 1.1562-0.51172 0.76172-0.77344 1.8672-0.78125 3.3125v7.5156h-4.9219v-7.9844c0-1.6953-0.14844-2.7852-0.4375-3.2656-0.29297-0.48828-0.8125-0.73438-1.5625-0.73438-0.9375 0-1.6641 0.38672-2.1719 1.1562-0.51172 0.76172-0.76562 1.8594-0.76562 3.2969v7.5312h-4.9219v-15.312h4.9219v2.2344c0.60156-0.86328 1.2891-1.5156 2.0625-1.9531 0.78125-0.4375 1.6406-0.65625 2.5781-0.65625 1.0625 0 2 0.25781 2.8125 0.76562 0.8125 0.51172 1.4258 1.2305 1.8438 2.1562z"/>
  </symbol>
  <symbol id="p" overflow="visible">
   <path d="m17.75-9.3281v9.3281h-4.9219v-7.1094c0-1.3438-0.03125-2.2656-0.09375-2.7656s-0.16797-0.86719-0.3125-1.1094c-0.1875-0.3125-0.44922-0.55469-0.78125-0.73438-0.32422-0.17578-0.69531-0.26562-1.1094-0.26562-1.0234 0-1.8242 0.39844-2.4062 1.1875-0.58594 0.78125-0.875 1.8711-0.875 3.2656v7.5312h-4.8906v-21.281h4.8906v8.2031c0.73828-0.88281 1.5195-1.5391 2.3438-1.9688 0.83203-0.42578 1.75-0.64062 2.75-0.64062 1.7695 0 3.1133 0.54688 4.0312 1.6406 0.91406 1.0859 1.375 2.6562 1.375 4.7188z"/>
  </symbol>
  <symbol id="o" overflow="visible">
   <path d="m2.5781-20.406h5.875l7.4219 14v-14h4.9844v20.406h-5.875l-7.4219-14v14h-4.9844z"/>
  </symbol>
  <symbol id="n" overflow="visible">
   <path d="m2.1875-5.9688v-9.3438h4.9219v1.5312c0 0.83594-0.007813 1.875-0.015625 3.125-0.011719 1.25-0.015625 2.0859-0.015625 2.5 0 1.2422 0.03125 2.1328 0.09375 2.6719 0.070313 0.54297 0.17969 0.93359 0.32812 1.1719 0.20703 0.32422 0.47266 0.57422 0.79688 0.75 0.32031 0.16797 0.69141 0.25 1.1094 0.25 1.0195 0 1.8203-0.39062 2.4062-1.1719 0.58203-0.78125 0.875-1.8672 0.875-3.2656v-7.5625h4.8906v15.312h-4.8906v-2.2188c-0.74219 0.89844-1.5234 1.5586-2.3438 1.9844-0.82422 0.41406-1.7344 0.625-2.7344 0.625-1.7617 0-3.1055-0.53906-4.0312-1.625-0.92969-1.082-1.3906-2.6602-1.3906-4.7344z"/>
  </symbol>
  <symbol id="m" overflow="visible">
   <path d="m17.75-9.3281v9.3281h-4.9219v-7.1406c0-1.3203-0.03125-2.2344-0.09375-2.7344s-0.16797-0.86719-0.3125-1.1094c-0.1875-0.3125-0.44922-0.55469-0.78125-0.73438-0.32422-0.17578-0.69531-0.26562-1.1094-0.26562-1.0234 0-1.8242 0.39844-2.4062 1.1875-0.58594 0.78125-0.875 1.8711-0.875 3.2656v7.5312h-4.8906v-15.312h4.8906v2.2344c0.73828-0.88281 1.5195-1.5391 2.3438-1.9688 0.83203-0.42578 1.75-0.64062 2.75-0.64062 1.7695 0 3.1133 0.54688 4.0312 1.6406 0.91406 1.0859 1.375 2.6562 1.375 4.7188z"/>
  </symbol>
  <symbol id="l" overflow="visible">
   <path d="m2.5781-20.406h8.7344c2.5938 0 4.582 0.57812 5.9688 1.7344 1.3945 1.1484 2.0938 2.7891 2.0938 4.9219 0 2.1367-0.69922 3.7812-2.0938 4.9375-1.3867 1.1562-3.375 1.7344-5.9688 1.7344h-3.4844v7.0781h-5.25zm5.25 3.8125v5.7031h2.9219c1.0195 0 1.8047-0.25 2.3594-0.75 0.5625-0.5 0.84375-1.2031 0.84375-2.1094 0-0.91406-0.28125-1.6172-0.84375-2.1094-0.55469-0.48828-1.3398-0.73438-2.3594-0.73438z"/>
  </symbol>
  <symbol id="k" overflow="visible">
   <path d="m2.3594-15.312h4.8906v15.031c0 2.0508-0.49609 3.6172-1.4844 4.7031-0.98047 1.082-2.4062 1.625-4.2812 1.625h-2.4219v-3.2188h0.85938c0.92578 0 1.5625-0.21094 1.9062-0.625 0.35156-0.41797 0.53125-1.2461 0.53125-2.4844zm0-5.9688h4.8906v4h-4.8906z"/>
  </symbol>
  <symbol id="j" overflow="visible">
   <path d="m14.719-14.828v3.9844c-0.65625-0.45703-1.3242-0.79688-2-1.0156-0.66797-0.21875-1.3594-0.32812-2.0781-0.32812-1.3672 0-2.4336 0.40234-3.2031 1.2031-0.76172 0.79297-1.1406 1.9062-1.1406 3.3438 0 1.4297 0.37891 2.543 1.1406 3.3438 0.76953 0.79297 1.8359 1.1875 3.2031 1.1875 0.75781 0 1.4844-0.10938 2.1719-0.32812 0.6875-0.22656 1.3203-0.56641 1.9062-1.0156v4c-0.76172 0.28125-1.5391 0.48828-2.3281 0.625-0.78125 0.14453-1.5742 0.21875-2.375 0.21875-2.7617 0-4.9219-0.70703-6.4844-2.125-1.5547-1.4141-2.3281-3.3828-2.3281-5.9062 0-2.5312 0.77344-4.5039 2.3281-5.9219 1.5625-1.4141 3.7227-2.125 6.4844-2.125 0.80078 0 1.5938 0.074219 2.375 0.21875 0.78125 0.13672 1.5547 0.35156 2.3281 0.64062z"/>
  </symbol>
 </defs>
 <g>
  <path d="m434.89 346.48c-2.168 0-4.1211-1.4961-4.6328-3.6914-0.58984-2.5664 1.0078-5.1172 3.5664-5.7109 0.92578-0.21094 1.6406-0.86719 1.9219-1.7539 0.27344-0.89062 0.0625-1.8438-0.58203-2.5469-2.9023-3.1602-3.9102-7.6836-2.6328-11.781 1.293-4.1289 4.7031-7.2695 8.8984-8.1992 0.88672-0.20312 1.6055-0.86719 1.8867-1.7578 0.32422-1.0469-0.09375-1.9922-0.58203-2.5312-1.7734-1.9414-1.6406-4.957 0.29688-6.7266 1.9414-1.7734 4.9492-1.6367 6.7266 0.29688 2.9062 3.1758 3.9219 7.6875 2.6602 11.781-1.2812 4.0977-4.6758 7.2539-8.875 8.2305-0.92578 0.20312-1.6406 0.875-1.9141 1.7539-0.33203 1.043 0.085938 1.9805 0.57031 2.5195 2.9102 3.1914 3.9141 7.707 2.6484 11.789-1.2773 4.0938-4.6719 7.2422-8.8633 8.2109-0.37891 0.070312-0.73828 0.11719-1.0938 0.11719z"/>
  <path d="m542.32 470.65c-0.65625 0-1.3281-0.14062-1.9727-0.42969-2.3984-1.0938-3.4453-3.9141-2.3594-6.3047 0.38672-0.85156 0.30078-1.8125-0.24219-2.5742-0.62891-0.87891-1.6523-1.1406-2.3984-1.0703-4.2969 0.38672-8.4727-1.5469-10.949-5.0352-2.4961-3.4961-2.9453-8.1094-1.1602-12.035 0.30078-0.66016 0.39844-1.6797-0.23438-2.5742-0.63672-0.89453-1.6367-1.125-2.375-1.0703-2.6602 0.20312-4.9336-1.6953-5.1758-4.3125-0.24219-2.6211 1.6914-4.9336 4.3125-5.1758 4.2773-0.37891 8.5078 1.5352 10.992 5.0391 2.4961 3.5039 2.9297 8.1211 1.1406 12.039-0.38672 0.83984-0.29297 1.7969 0.25391 2.5547 0.63672 0.90625 1.6914 1.1133 2.3633 1.082 4.3438-0.35938 8.5117 1.5625 10.98 5.0273 2.4961 3.5234 2.9336 8.1328 1.1484 12.047-0.78516 1.75-2.5156 2.793-4.3242 2.793z"/>
  <path d="m342.4 285.63c-2.375 0-4.4258-1.7695-4.7227-4.1836-0.09375-0.73828-0.54688-1.6875-1.5586-2.1328-0.98047-0.42969-1.9766-0.11719-2.5664 0.3125-3.4844 2.5469-8.0859 3.0508-12.02 1.3398-3.9609-1.707-6.7188-5.4375-7.1836-9.7344-0.085937-0.67188-0.54297-1.6172-1.5469-2.0625-0.99219-0.42969-1.9805-0.11719-2.582 0.3125-2.1289 1.5625-5.1016 1.0859-6.6523-1.0312-1.5469-2.1211-1.0859-5.1016 1.0352-6.6523 3.4883-2.5547 8.0977-3.0742 12.02-1.3477 3.9102 1.707 6.668 5.4219 7.1914 9.6875 0.10547 0.95312 0.68359 1.7305 1.5195 2.0938 1.0312 0.45312 2.0156 0.14062 2.6094-0.29297 3.4609-2.5352 8.0586-3.0508 12-1.3555 3.9219 1.7305 6.668 5.4414 7.1914 9.6992 0.32031 2.6094-1.5352 4.9844-4.1445 5.3047-0.20313 0.03125-0.40234 0.042968-0.58984 0.042968z"/>
  <path d="m358.3 107.8h-0.16797c-2.6211-0.089844-4.6758-2.2969-4.5938-4.9219 0.14453-4.3164 2.5703-8.2539 6.3281-10.289 3.7539-2.0273 8.3828-1.9141 12.059 0.28516 0.83984 0.51562 1.7734 0.54688 2.5859 0.10156 0.99609-0.53906 1.3594-1.5078 1.3906-2.2383 0.12891-4.2891 2.5547-8.2383 6.332-10.277 3.7617-2.0273 8.3711-1.9141 12.051 0.30859 2.25 1.3594 2.9727 4.2852 1.6133 6.5352-1.3477 2.2461-4.2852 2.9727-6.5352 1.6133-0.81641-0.48047-1.7852-0.51953-2.6094-0.078125-0.95312 0.51562-1.3164 1.4766-1.3398 2.2109-0.14453 4.3242-2.582 8.2617-6.3516 10.289-3.7539 2.0703-8.4062 1.9609-12.09-0.33203-0.58203-0.34766-1.6133-0.57031-2.5859-0.042969-0.80469 0.4375-1.3047 1.2773-1.3398 2.2383-0.082031 2.5703-2.1953 4.5977-4.7461 4.5977z"/>
  <path d="m529.56 191.72c-0.46875 0-0.94531-0.027344-1.4219-0.085937-4.2344-0.48828-7.957-3.2383-9.6875-7.1797-0.37891-0.88672-1.1406-1.4453-2.0547-1.5469-1.1328-0.16797-1.9727 0.42969-2.4023 1.0117-2.6133 3.457-6.8359 5.293-11.105 4.7812-4.25-0.5-7.9648-3.2578-9.6836-7.1914-1.0547-2.4062 0.039063-5.2188 2.4531-6.2734 2.3867-1.0547 5.2188 0.039063 6.2656 2.4531 0.29688 0.67188 0.99609 1.4297 2.0781 1.5586 1.0977 0.10156 1.9375-0.46094 2.3867-1.0547 2.582-3.4453 6.8203-5.2734 11.105-4.75 4.25 0.46484 7.9844 3.2266 9.6875 7.2109 0.36328 0.82812 1.1484 1.4102 2.0703 1.5195 1.0938 0.125 1.9375-0.44141 2.3672-1.0234 1.5625-2.1016 4.5352-2.5469 6.6602-0.98047 2.1055 1.5664 2.543 4.5547 0.97266 6.6602-2.2852 3.0977-5.9102 4.8906-9.6914 4.8906z"/>
  <path d="m175.97 223.41c-1.4609 0-2.9023-0.66797-3.832-1.9258-1.5664-2.1094-1.1211-5.0977 0.99219-6.6602 0.75781-0.55859 1.1406-1.4492 1.0469-2.3789-0.11719-1.0625-0.875-1.7578-1.5273-2.0508-3.9766-1.7812-6.7031-5.5234-7.1562-9.7812-0.51562-4.2344 1.3398-8.5078 4.8477-11.066 0.53906-0.41016 1.1328-1.2695 1.0078-2.3516-0.11719-1.0977-0.875-1.7969-1.5391-2.0938-2.4062-1.0586-3.4961-3.8711-2.4375-6.2773 1.0586-2.4023 3.8867-3.4844 6.2734-2.4375 3.9492 1.7422 6.6914 5.4766 7.1641 9.75 0.48047 4.2227-1.3555 8.4688-4.8008 11.055-0.62109 0.46094-1.1875 1.2812-1.0547 2.3398 0.11719 1.1484 0.87891 1.8555 1.5508 2.1523 3.9023 1.7148 6.6523 5.4375 7.1328 9.6992 0.46484 4.2891-1.3906 8.5273-4.8398 11.082-0.84766 0.64062-1.8398 0.94531-2.8281 0.94531z"/>
  <path d="m348.76 444.76c-0.48047 0-0.97266-0.078124-1.4609-0.23437-2.5039-0.80469-3.875-3.4883-3.0703-5.9883 1.3203-4.1055 4.7656-7.2188 8.9805-8.1211 4.1719-0.89453 8.5742 0.51563 11.48 3.6797 0.64453 0.71094 1.5664 0.99609 2.4531 0.8125 1.0977-0.23438 1.7305-1.0625 1.9648-1.7656 1.3164-4.0664 4.7539-7.168 8.9492-8.0703 4.2266-0.88672 8.625 0.53906 11.512 3.7109 1.7656 1.9414 1.625 4.957-0.32422 6.7188-1.9375 1.7656-4.957 1.625-6.7188-0.32422-0.48828-0.53906-1.3984-1.0547-2.4805-0.80078-1.0469 0.22266-1.6641 1.043-1.8867 1.7305-1.3789 4.1328-4.8203 7.2227-9.0039 8.1016-4.1953 0.92969-8.6289-0.49219-11.508-3.7227-0.46094-0.49219-1.3945-0.98438-2.4375-0.76562-1.0742 0.23047-1.6953 1.0469-1.9219 1.7344-0.65234 2.0156-2.5156 3.3047-4.5273 3.3047z"/>
  <path d="m211.33 459.05c-0.18359 0-0.37109-0.003907-0.55859-0.035157-2.6133-0.30859-4.4844-2.6719-4.1719-5.2734 0.50391-4.2969 3.2578-8.0195 7.2031-9.7148 3.9297-1.707 8.5234-1.1875 12.008 1.3477 0.76562 0.57031 1.7266 0.67188 2.5547 0.30859 1.0312-0.44141 1.4727-1.3672 1.5586-2.0898 0.51953-4.2773 3.2773-7.9922 7.1914-9.7031 3.9648-1.6914 8.5469-1.1758 12.02 1.3477 2.1211 1.5508 2.582 4.5352 1.0352 6.6523-1.5508 2.1172-4.5312 2.5859-6.6523 1.0352-0.58984-0.44141-1.6016-0.75781-2.6055-0.30859-0.81641 0.35156-1.418 1.1719-1.5273 2.1055-0.50391 4.2734-3.2656 7.9922-7.207 9.6836-3.9141 1.7188-8.5234 1.2109-11.996-1.3594-0.57813-0.42578-1.5742-0.73438-2.5742-0.29297-1.0117 0.42969-1.457 1.3672-1.5391 2.0898-0.30469 2.4219-2.3594 4.207-4.7383 4.207z"/>
  <path d="m451.19 464.86c0 4.6836-3.7969 8.4805-8.4805 8.4805-4.6797 0-8.4766-3.7969-8.4766-8.4805 0-4.6836 3.7969-8.4766 8.4766-8.4766 4.6836 0 8.4805 3.793 8.4805 8.4766"/>
  <path d="m389.11 340.73c0 4.6836-3.793 8.4766-8.4766 8.4766-4.6836 0-8.4805-3.793-8.4805-8.4766 0-4.6836 3.7969-8.4805 8.4805-8.4805 4.6836 0 8.4766 3.7969 8.4766 8.4805"/>
  <path d="m238.89 271.75c0 4.6836-3.7969 8.4766-8.4805 8.4766s-8.4766-3.793-8.4766-8.4766 3.793-8.4805 8.4766-8.4805 8.4805 3.7969 8.4805 8.4805"/>
  <path d="m373.6 175.26c0 4.6836-3.7969 8.4766-8.4766 8.4766-4.6836 0-8.4805-3.793-8.4805-8.4766 0-4.6836 3.7969-8.4805 8.4805-8.4805 4.6797 0 8.4766 3.7969 8.4766 8.4805"/>
  <path d="m532 254.46c0 4.6836-3.793 8.4766-8.4766 8.4766s-8.4805-3.793-8.4805-8.4766 3.7969-8.4805 8.4805-8.4805 8.4766 3.7969 8.4766 8.4805"/>
  <path d="m543.93 83.766c0 4.6836-3.7969 8.4766-8.4805 8.4766-4.6836 0-8.4766-3.793-8.4766-8.4766s3.793-8.4805 8.4766-8.4805c4.6836 0 8.4805 3.7969 8.4805 8.4805"/>
  <path d="m254.79 83.766c0 4.6836-3.7969 8.4766-8.4805 8.4766-4.6797 0-8.4766-3.793-8.4766-8.4766s3.7969-8.4805 8.4766-8.4805c4.6836 0 8.4805 3.7969 8.4805 8.4805"/>
  <path d="m524.09 365.36c0 4.6836-3.7969 8.4844-8.4844 8.4844-4.6836 0-8.4805-3.8008-8.4805-8.4844 0-4.6875 3.7969-8.4844 8.4805-8.4844 4.6875 0 8.4844 3.7969 8.4844 8.4844"/>
  <path d="m318.15 476.23c0 4.6836-3.7969 8.4805-8.4766 8.4805-4.6836 0-8.4805-3.7969-8.4805-8.4805s3.7969-8.4766 8.4805-8.4766c4.6797 0 8.4766 3.793 8.4766 8.4766"/>
  <path d="m167.45 323.5c0 4.6836-3.7969 8.4805-8.4805 8.4805s-8.4766-3.7969-8.4766-8.4805 3.793-8.4766 8.4766-8.4766 8.4805 3.793 8.4805 8.4766"/>
  <path d="m165.61 434.42c-1.6445 0-3.2539-0.32422-4.7812-0.96484-6.332-2.625-9.3594-9.9219-6.7305-16.273l4.3008-10.355c2.5859-6.1953 10.098-9.3125 16.297-6.7188 6.332 2.6328 9.3516 9.9297 6.7188 16.277l-4.3008 10.348c-1.9453 4.6719-6.457 7.6875-11.504 7.6875zm4.2891-25.75c-1.1875 0-2.25 0.71094-2.7109 1.8203l-4.3008 10.344c-0.61719 1.4961 0.09375 3.2148 1.5898 3.8398 1.5391 0.63672 3.2305-0.12891 3.8398-1.5859l4.3008-10.348c0.62109-1.4961-0.09375-3.2148-1.5898-3.8398-0.37109-0.16016-0.74219-0.23047-1.1289-0.23047z"/>
  <path d="m285.33 373.94c-0.51562 0-1.0352-0.035156-1.5625-0.10156l-11.105-1.3945c-3.3086-0.42187-6.2422-2.0938-8.2812-4.7148-2.0508-2.6328-2.9453-5.9062-2.5195-9.2188 0.82812-6.707 7.0391-11.621 13.895-10.809l11.129 1.3984c3.3164 0.42188 6.2656 2.1055 8.3047 4.75 2.0312 2.6328 2.918 5.8906 2.4922 9.1914-0.77734 6.2031-6.0859 10.898-12.352 10.898zm-10.812-16.777c-1.8086 0-3.0391 1.0977-3.2188 2.5469-0.10547 0.79687 0.11328 1.5586 0.58203 2.1719 0.48828 0.62109 1.1797 1.0195 1.9727 1.1211l11.48 1.418c1.4766 0 2.7227-1.1016 2.9062-2.5742 0.10547-0.78906-0.10547-1.5469-0.58203-2.1602-0.48047-0.62891-1.1797-1.0234-1.9648-1.1211l-11.121-1.3984c-0.023438-0.003907-0.039063-0.003907-0.054688-0.003907z"/>
  <path d="m284.17 208.68c-2.7656 0-5.4922-0.94141-7.6758-2.6562l-8.8125-6.9102c-5.4102-4.2617-6.3555-12.105-2.1094-17.5 4.0586-5.1875 12.258-6.2031 17.477-2.1211l8.8203 6.9141c2.625 2.0625 4.2969 5.0195 4.6875 8.332 0.39844 3.2969-0.51563 6.5586-2.5703 9.168-2.3867 3.0312-5.9648 4.7734-9.8164 4.7734zm-8.8047-22.312c-0.91406 0-1.7539 0.41016-2.3125 1.1211-1.0078 1.2812-0.77734 3.1289 0.5 4.1328l8.8086 6.9062c1.9648 1.5469 3.2812 0.57812 4.1289-0.50391 0.48828-0.61719 0.69922-1.3789 0.60547-2.1523-0.09375-0.78516-0.48828-1.4883-1.1094-1.9766l-8.8125-6.9141c-0.65625-0.50781-1.3438-0.61328-1.8086-0.61328z"/>
  <path d="m418.88 238.75c-0.69531 0-1.3945-0.054688-2.1016-0.17969-3.2695-0.54297-6.1445-2.3477-8.0742-5.0625-1.9258-2.7109-2.6836-6.0078-2.1328-9.2852l1.8633-11.055c1.1328-6.7031 7.4883-11.375 14.371-10.207 3.2656 0.54688 6.1367 2.3477 8.0625 5.0586s2.6875 6.0156 2.1406 9.2969l-1.8711 11.047c-1.0195 6.0234-6.1758 10.387-12.258 10.387zm2.2109-26.406c-1.8555 0-3.0391 1.043-3.2773 2.4141l-1.8633 11.043c-0.125 0.76562 0.054688 1.5469 0.50781 2.1914 0.46094 0.63672 1.1328 1.0625 1.8984 1.1914l0.51953 0.042968c1.4219 0 2.6367-1.0352 2.8789-2.457l1.8711-11.043c0.125-0.76562-0.050782-1.5469-0.50781-2.1914-0.45312-0.63672-1.1328-1.0625-1.9023-1.1914h-0.125z"/>
  <path d="m435.95 135.2c-6.4453 0-11.898-5.0273-12.414-11.453-0.27344-3.2969 0.76172-6.5312 2.918-9.0703 2.1562-2.5352 5.1641-4.082 8.4766-4.3555l11.172-0.91406c6.9141-0.54688 12.898 4.6602 13.43 11.418 0.27344 3.2969-0.76562 6.5234-2.918 9.0625-2.1562 2.543-5.168 4.0898-8.4844 4.3633l-11.176 0.90625c-0.33203 0.027344-0.67578 0.042968-1.0039 0.042968zm11.176-16.312-11.414 0.92578c-0.77734 0.066406-1.4883 0.42969-2 1.0352-0.50781 0.59766-0.75781 1.3555-0.6875 2.1328 0.125 1.5234 1.4102 2.7031 2.9219 2.7031l0.24609-0.003907 11.168-0.90625c0.77344-0.066406 1.4883-0.42969 1.9922-1.0312 0.50391-0.59766 0.75-1.3594 0.6875-2.1406-0.11328-1.5391-1.4023-2.7148-2.9141-2.7148z"/>
  <path d="m537.02 324.81c-1.4961 0-2.9609-0.26953-4.375-0.79688l-10.488-3.9609c-3.1133-1.1719-5.5781-3.4844-6.9492-6.5-1.3828-3.0352-1.4961-6.4219-0.3125-9.5469 2.3281-6.2031 9.7617-9.6133 16.031-7.2734l10.496 3.9492c3.125 1.1797 5.6016 3.5039 6.9727 6.5469 1.3672 3.0352 1.4727 6.418 0.28516 9.5273-1.7969 4.8047-6.4844 8.0547-11.66 8.0547zm-10.457-19.348c-1.2266 0-2.3359 0.76562-2.7617 1.9023-0.28125 0.74609-0.25781 1.5352 0.066406 2.2461 0.33203 0.71875 0.91406 1.2656 1.6523 1.5391l10.477 3.9531c1.4688 0.53906 3.2266-0.25781 3.7812-1.7188 0.28516-0.75 0.26172-1.5391-0.0625-2.2461-0.32422-0.72266-0.90625-1.2695-1.6523-1.5469l-10.484-3.9492c-0.32031-0.12109-0.66797-0.17969-1.0156-0.17969z"/>
  <path d="m471.14 422.96c-6.6133 0-12.074-5.1797-12.434-11.789l-0.58203-11.199c-0.17188-3.3203 0.95312-6.5 3.168-8.9766 2.2227-2.4805 5.2852-3.9414 8.6172-4.1094 0.085938-0.003906 0.58203-0.015624 0.66797-0.015624 6.6133 0 12.074 5.1797 12.434 11.789l0.58203 11.199c0.17188 3.3281-0.95703 6.5234-3.1914 9-2.2344 2.4688-5.293 3.9258-8.6133 4.082-0.078124 0.007812-0.57031 0.019531-0.64844 0.019531zm-0.55469-26.578c-0.96484 0.050782-1.6797 0.38672-2.207 0.97266-0.52734 0.58203-0.78906 1.332-0.75 2.1211l0.58203 11.188c0.089843 1.5508 1.3672 2.7773 2.9219 2.7773v4.7617l0.16406-4.7656c0.80078-0.039063 1.5195-0.375 2.0391-0.95703 0.52734-0.58203 0.79687-1.3398 0.75781-2.1289l-0.58203-11.195c-0.085938-1.5469-1.3711-2.7734-2.9258-2.7734z"/>
  <path d="m175.44 116.55c-0.042968 0-0.32031 0-0.35938-0.003906l-11.207-0.34766c-3.332-0.10156-6.4219-1.5-8.7148-3.9375-2.2734-2.4297-3.4648-5.6016-3.3555-8.9219 0.19141-6.7539 5.668-12.066 12.453-12.066l11.57 0.35156c3.3281 0.10547 6.4102 1.4961 8.6875 3.9102 2.2891 2.4258 3.4883 5.6016 3.3828 8.9375-0.1875 6.7656-5.6641 12.078-12.457 12.078zm-11.105-15.754c-1.6523 0-2.9688 1.2773-3.0117 2.8438-0.027344 0.80469 0.25391 1.5469 0.78516 2.1094 0.54297 0.57812 1.2695 0.90625 2.0547 0.92969l11.199 0.34766 0.078125 4.7617v-4.7617c1.5781 0 2.9062-1.2773 2.9453-2.8398 0.027343-0.80469-0.25781-1.5508-0.79688-2.1172-0.53906-0.57031-1.2695-0.90234-2.0547-0.92578l-11.199-0.34766c0.007812 0 0.007812 0 0 0z"/>
  <use x="70" y="644" xlink:href="#t"/>
  <use x="90.550781" y="644" xlink:href="#b"/>
  <use x="104.359375" y="644" xlink:href="#c"/>
  <use x="123.347656" y="644" xlink:href="#i"/>
  <use x="142.242188" y="644" xlink:href="#d"/>
  <use x="155.628906" y="644" xlink:href="#c"/>
  <use x="174.617188" y="644" xlink:href="#h"/>
  <use x="204.410156" y="644" xlink:href="#g"/>
  <use x="224.453125" y="644" xlink:href="#f"/>
  <use x="252.453125" y="644" xlink:href="#e"/>
  <use x="274.148438" y="644" xlink:href="#a"/>
  <use x="293.382812" y="644" xlink:href="#b"/>
  <use x="307.195312" y="644" xlink:href="#a"/>
  <use x="326.429688" y="644" xlink:href="#s"/>
  <use x="345.050781" y="644" xlink:href="#a"/>
  <use x="364.289062" y="644" xlink:href="#b"/>
  <use x="378.09375" y="644" xlink:href="#a"/>
  <use x="70" y="672" xlink:href="#r"/>
  <use x="82.183594" y="672" xlink:href="#b"/>
  <use x="95.992188" y="672" xlink:href="#a"/>
  <use x="115.226562" y="672" xlink:href="#q"/>
  <use x="154.152344" y="672" xlink:href="#d"/>
  <use x="167.535156" y="672" xlink:href="#p"/>
  <use x="187.46875" y="672" xlink:href="#c"/>
  <use x="216.207031" y="672" xlink:href="#o"/>
  <use x="239.640625" y="672" xlink:href="#a"/>
  <use x="258.878906" y="672" xlink:href="#n"/>
  <use x="278.8125" y="672" xlink:href="#m"/>
  <use x="308.492188" y="672" xlink:href="#l"/>
  <use x="329.015625" y="672" xlink:href="#b"/>
  <use x="342.820312" y="672" xlink:href="#a"/>
  <use x="362.058594" y="672" xlink:href="#k"/>
  <use x="371.65625" y="672" xlink:href="#c"/>
  <use x="390.648438" y="672" xlink:href="#j"/>
  <use x="407.242188" y="672" xlink:href="#d"/>
 </g>
</svg>
