<?xml version="1.0" encoding="UTF-8"?>
<svg width="700pt" height="700pt" version="1.1" viewBox="0 0 700 700" xmlns="http://www.w3.org/2000/svg" xmlns:xlink="http://www.w3.org/1999/xlink">
 <defs>
  <symbol id="x" overflow="visible">
   <path d="m0.015625 0h-0.015625v-0.015625h0.015625-0.015625v0.015625h0.015625z"/>
  </symbol>
  <symbol id="c" overflow="visible">
   <path d="m0.015625-0.015625h-0.015625v0.015625-0.015625h0.015625z"/>
  </symbol>
  <symbol id="a" overflow="visible">
   <path d="m0.015625 0h-0.015625 0.015625-0.015625v-0.015625h0.015625v0.015625zm0-0.015625h-0.015625z"/>
  </symbol>
  <symbol id="b" overflow="visible">
   <path d="m0.015625 0h-0.015625 0.015625zm0-0.015625v0.015625h-0.015625c0-0.0078125 0.0039062-0.015625 0.015625-0.015625h-0.015625 0.015625z"/>
  </symbol>
  <symbol id="e" overflow="visible">
   <path d="m0-0.015625h0.015625-0.015625v0.015625h0.015625-0.015625z"/>
  </symbol>
  <symbol id="i" overflow="visible">
   <path d="m0.015625-0.015625v0.015625h-0.015625v-0.015625h0.015625zm0 0.015625v-0.015625h-0.015625v0.015625h0.015625z"/>
  </symbol>
  <symbol id="m" overflow="visible">
   <path d="m0.015625 0v-0.015625h-0.015625v0.015625h0.015625zm-0.015625-0.015625h0.015625v0.015625h-0.015625z"/>
  </symbol>
  <symbol id="h" overflow="visible">
   <path d="m0-0.015625 0.015625 0.015625v-0.015625 0.015625h-0.015625z"/>
  </symbol>
  <symbol id="l" overflow="visible">
   <path d="m0.015625-0.015625h-0.015625v0.015625h0.015625v-0.015625zm0 0v0.015625h-0.015625v-0.015625h0.015625z"/>
  </symbol>
  <symbol id="w" overflow="visible">
   <path d="m0-0.015625v0.015625z"/>
  </symbol>
  <symbol id="k" overflow="visible">
   <path d="m0-0.015625h0.015625v0.015625h-0.015625z"/>
  </symbol>
  <symbol id="g" overflow="visible">
   <path d="m0.015625-0.015625h-0.015625 0.015625v0.015625h-0.015625 0.015625-0.015625v-0.015625h0.015625z"/>
  </symbol>
  <symbol id="f" overflow="visible">
   <path d="m0.015625-0.015625v0.015625-0.015625h-0.015625v0.015625-0.015625h0.015625z"/>
  </symbol>
  <symbol id="j" overflow="visible">
   <path d="m0-0.015625h0.015625v0.015625h-0.015625zm0 0h0.015625z"/>
  </symbol>
  <symbol id="d" overflow="visible">
   <path d="m0.015625-0.015625h-0.015625v0.015625h0.015625v-0.015625zm0 0v0.015625h-0.015625v-0.015625h0.015625z"/>
  </symbol>
  <symbol id="v" overflow="visible">
   <path d="m0-0.015625 0.015625 0.015625v-0.015625 0.015625h-0.015625z"/>
  </symbol>
  <symbol id="u" overflow="visible">
   <path d="m0-0.015625v0.015625z"/>
  </symbol>
  <symbol id="t" overflow="visible">
   <path d="m0.015625-0.015625h-0.015625 0.015625-0.015625v0.015625-0.015625h0.015625z"/>
  </symbol>
  <symbol id="s" overflow="visible">
   <path d="m0.015625-0.015625h0.015625v0.015625h-0.015625v-0.015625 0.015625-0.015625h-0.015625v0.015625-0.015625h0.015625z"/>
  </symbol>
  <symbol id="r" overflow="visible">
   <path d="m0.015625-0.015625v0.015625-0.015625h-0.015625v0.015625-0.015625h0.015625z"/>
  </symbol>
  <symbol id="q" overflow="visible">
   <path d="m0-0.015625h0.015625v0.015625-0.015625 0.015625l-0.015625-0.015625v0.015625z"/>
  </symbol>
  <symbol id="p" overflow="visible">
   <path d="m0 0v-0.015625 0.015625h0.015625v-0.015625 0.015625h-0.015625z"/>
  </symbol>
  <symbol id="o" overflow="visible">
   <path d="m0-0.015625v0.015625z"/>
  </symbol>
  <symbol id="n" overflow="visible">
   <path d="m0.015625-0.015625h-0.015625v0.015625h0.015625-0.015625v-0.015625h0.015625z"/>
  </symbol>
 </defs>
 <g>
  <path d="m234.38 359.06c3.5469 0 7.0664 0.039062 10.555 0.11719l2.457-4.8242c0.69922-1.3789 2.3867-1.9258 3.7617-1.2266 1.3789 0.69922 1.9258 2.3867 1.2266 3.7617l-1.2539 2.4648c37.535 1.3281 71.258 7.0703 96.598 15.672 29.953 10.172 48.48 24.582 48.48 40.828 0 0.47656-0.015625 0.94922-0.050781 1.4219-0.03125 0.95312-0.070313 1.8633-0.11328 2.7422-2.2734 43.652-23.785 74.883-53.805 94.984-3.4531 2.3125-7.0234 4.4766-10.688 6.4922-3.9219 10.684-15.996 18.844-32.094 24.461-18.434 6.4336-42.344 9.6484-65.086 9.5156-0.59375-0.003906-1.1406-0.1875-1.5898-0.50781-0.44922 0.31641-1 0.50391-1.5898 0.50781-22.742 0.13281-46.656-3.082-65.086-9.5156-16.59-5.7891-28.906-14.281-32.43-25.449-2.9453-1.7188-5.8203-3.5352-8.6172-5.457-29.277-20.105-50.055-51.359-52.328-95.047-0.042968-0.84766-0.082031-1.7344-0.11328-2.6562-0.035156-0.49609-0.050781-0.99219-0.050781-1.4922 0-6.6875 3.0898-13.039 8.7969-18.902 5.6172-5.7734 13.836-11.102 24.168-15.82 14.996-6.8477 34.516-12.457 57.023-16.301 13.293-2.2695 27.633-3.9297 42.703-4.875-0.52734-1.0625-0.82422-2.2578-0.82422-3.5195 0-2.1914 0.88672-4.1719 2.3242-5.6094s3.418-2.3242 5.6094-2.3242c2.1914 0 4.1719 0.88672 5.6094 2.3242s2.3242 3.418 2.3242 5.6094c0 1.0039-0.1875 1.9609-0.52734 2.8438 4.8125-0.14844 9.6875-0.22266 14.617-0.22266zm-58.344 80.789c-1.2188 0.94141-2.9727 0.71875-3.9141-0.50391-0.94141-1.2188-0.71875-2.9727 0.50391-3.9141l9.957-7.6523c1.2188-0.94141 2.9727-0.71875 3.9141 0.50391 0.94141 1.2188 0.71875 2.9727-0.50391 3.9141zm70.645-71.77c-0.69922 1.3789-2.3867 1.9258-3.7617 1.2266-1.3789-0.69922-1.9258-2.3867-1.2266-3.7617l0.41797-0.81641c-2.5625-0.042969-5.1406-0.0625-7.7305-0.0625-25.516 0-49.598 2.0469-70.895 5.6875-22.062 3.7695-41.113 9.2266-55.645 15.863-9.6992 4.4297-17.348 9.3633-22.48 14.637-4.6719 4.8008-7.1992 9.8477-7.1992 15.008 0 13.578 17.07 26.16 44.672 35.535 28.5 9.6758 67.934 15.66 111.55 15.66 0.46094 0 0.92578 0 1.3867-0.003906-0.35938-0.90234-0.55469-1.8906-0.55469-2.9219 0-2.1914 0.88672-4.1719 2.3242-5.6094s3.418-2.3242 5.6094-2.3242c2.1914 0 4.1719 0.88672 5.6094 2.3242s2.3242 3.418 2.3242 5.6094c0 0.92578-0.16016 1.8164-0.45312 2.6445 37.117-1.2852 70.391-6.9219 95.305-15.383 27.602-9.3711 44.672-21.957 44.672-35.535s-17.07-26.16-44.672-35.535c-25.43-8.6328-59.566-14.328-97.609-15.457l-1.6367 3.2148zm-12.273 37.508c0.69922 1.3789 0.15234 3.0625-1.2266 3.7617-1.3789 0.69922-3.0625 0.15234-3.7617-1.2266l-5.6992-11.188c-0.69922-1.3789-0.15234-3.0625 1.2266-3.7617 1.3789-0.69922 3.0625-0.15234 3.7617 1.2266zm63.547-94.367c0.011719 0.054688 0.023437 0.11328 0.035156 0.17188 0.48438 2.3984 0.95703 4.6172 1.4219 6.6406 1.3594 5.9297 5.6602 5.4609 10.621 4.9258 0.61719-0.066407 1.2422-0.13672 2.2539-0.22656 8.4141-0.76172 18.664-1.8867 30.016-3.5781 11.293-1.6797 23.516-3.9023 35.805-6.8477 35.137-8.418 74.445-15.766 110.93-21.73 56.945-9.3047 107.07-15.258 123.84-16.645 10.719-0.88672 10.535-5.1953 10.188-13.434-0.03125-0.73047-0.0625-1.4844-0.097656-2.4453-0.67578-19.492-3.3984-43.867-6.8672-68.32-5.125-36.156-11.91-72.543-16.102-93.5-1.5039-7.5273-2.4219-11.559-4.3242-12.824-1.2305-0.81641-3.3242-0.82812-6.7188-0.24609-0.89063 0.19922-1.8125 0.37891-2.7656 0.54297-0.015624 0.003907-0.027343 0.003907-0.042968 0.007813-1.3164 0.28125-2.7773 0.61719-4.4023 1.0039l-33.746 8.0312c-1.9023 0.5-3.875 0.95703-5.8828 1.3984l-0.070313 0.015624c-0.042969 0.011719-0.085937 0.019532-0.12891 0.027344-0.77734 0.17188-1.5547 0.33984-2.3398 0.51172-8.332 1.8086-17.02 3.6953-22.578 8.0547-6.3477 4.9844-12.23 11.242-18.109 17.504-9.957 10.598-19.914 21.199-32.582 26.371-5.043 2.0586-9.7617 2.4805-13.801 1.6484-3.6133-0.74219-6.668-2.4727-8.9297-4.9336-2.2734-2.4688-3.7344-5.6484-4.1523-9.2695-0.46094-3.9883 0.35156-8.5078 2.7656-13.18 2.3008-4.4492 4.5859-8.1758 8.418-12.547 1.668-1.9023 3.6289-3.9219 6.0117-6.168-26.004 0.99609-52.047 0.95703-72.664 0.92578-9.9492-0.015625-18.625-0.027344-25.434 0.078125-12.512 0.19922-24.34 1.3555-36.109 2.5078-12.965 1.2695-25.863 2.5312-39.547 2.5312-0.80469 0-1.7734 0.63672-2.6211 1.8711-0.94141 1.375-1.6367 3.375-1.793 5.9961-1.1172 18.484 1.3984 55.375 5.3516 93.496 4.0039 38.621 9.4766 78.438 14.145 101.64zm-4.5273 5.6484-1.2031 0.96094c-1.207 0.96094-2.9648 0.75781-3.9258-0.44922-0.96094-1.207-0.75781-2.9648 0.44922-3.9258l3.418-2.7266c-0.63672-3.25-1.2891-6.793-1.9492-10.582-0.84375 0.60937-1.8828 0.96875-3.0039 0.96875-2.8359 0-5.1328-2.2969-5.1328-5.1328s2.2969-5.1328 5.1328-5.1328c0.51562 0 1.0156 0.078126 1.4883 0.21875-0.68359-4.2539-1.375-8.7344-2.0625-13.395-1.7656-0.8125-2.9922-2.5938-2.9922-4.6641 0-1.5469 0.68359-2.9297 1.7617-3.8711-2.5703-18.324-5.0625-38.824-7.1523-58.992-3.9805-38.383-6.5078-75.605-5.3711-94.391 0.22656-3.7188 1.293-6.6836 2.7578-8.8164 1.957-2.8516 4.6602-4.3203 7.2383-4.3203 13.602 0 26.281-1.2422 39.02-2.4883 11.863-1.1602 23.777-2.3281 36.547-2.5273 6.8125-0.10938 15.527-0.09375 25.52-0.078125 15.988 0.023437 35.258 0.054687 55.27-0.40625-0.32031-3.2266-0.52344-6.1406-0.64062-8.7617-0.14844-3.2969-0.15625-6.1133-0.097656-8.5078 0.10156-4.1602 0.34766-7.5742 1.1172-11.219 0.77344-3.6523 2.0547-7.4766 4.2266-12.418 0.78125-1.7773 1.832-4.3906 3.0625-7.4492 2.7148-6.7422 6.2969-15.641 10.055-23.234 4.2656-8.625 8.6562-14.816 15.688-18.797 6.9102-3.9141 16.152-5.5039 30.113-4.9453 10.707 0.42969 20.449 0.91016 29.609 1.3594 34.773 1.707 61.094 2.9961 89.641-0.66406 1.5273-0.19141 2.9258 0.89062 3.1172 2.418s-0.89062 2.9258-2.418 3.1172c-29.059 3.7266-55.574 2.4258-90.602 0.70703-9.2539-0.45312-19.102-0.9375-29.562-1.3594-12.852-0.51563-21.172 0.84375-27.137 4.2227-5.8477 3.3125-9.6406 8.7539-13.434 16.414-3.668 7.4141-7.2031 16.191-9.8789 22.84-1.2422 3.0859-2.3008 5.7148-3.1289 7.6016-2.0078 4.5781-3.1836 8.0586-3.875 11.324-0.69141 3.2773-0.91406 6.3945-1.0078 10.211-0.054687 2.2578-0.046875 4.9375 0.097657 8.1367 0.11719 2.582 0.32422 5.5156 0.66797 8.8633 6.0938-0.16797 12.234-0.38281 18.348-0.66406l0.023438-0.019531c-0.007812-0.085937-0.011719-0.17188-0.011719-0.25781 0-2.1523-0.03125-3.3711-0.054687-4.4219-0.054688-2.2188-0.09375-3.8516 0.0625-5.3633-0.38281-0.57422-0.85156-1.0586-1.3867-1.457-0.76562-0.57422-1.668-0.99219-2.6211-1.2617-1.4844-0.41797-2.3516-1.9609-1.9375-3.4453 0.41797-1.4844 1.9609-2.3516 3.4453-1.9375 1.5352 0.43359 3.0312 1.1289 4.3633 2.1094 0.57422-1.1836 1.3047-2.5391 2.2422-4.1758 4.0469-7.0781 4.7539-11.121 5.3711-15.793-3.1406-2.4141-5.9336-5.1094-7.6367-7.8359-0.81641-1.3125-0.41406-3.0352 0.89844-3.8516 1.3125-0.81641 3.0352-0.41406 3.8516 0.89844 1.75 2.7969 5.1523 5.7031 8.8086 8.1875 3.5156 2.3906 7.1602 4.3438 9.8086 5.457-0.097656-0.73438-0.22656-1.4961-0.37891-2.2695-1.0273-5.207-3.1484-10.668-4.793-13.266-0.82031-1.3047-0.42969-3.0273 0.875-3.8516 1.3047-0.82031 3.0273-0.42969 3.8516 0.875 1.9375 3.0664 4.4023 9.3281 5.5586 15.168 0.023438 0.12109 0.046875 0.23828 0.070313 0.35937 0.90625-1.8711 1.5664-3.6094 1.9102-5.1328 0.33984-1.5039 1.832-2.4492 3.3359-2.1094 1.5039 0.33984 2.4492 1.832 2.1094 3.3359-1.0117 4.5078-4.1328 10.242-8.1133 16.035-0.039062 0.058593-0.078125 0.11719-0.12109 0.17578-0.70312 1.0195-1.4297 2.0391-2.1797 3.0547-6.418 8.7227-14.359 17.258-19.254 21.289-1.8555 1.5273-3.5469 2.9531-5.1016 4.2891-0.050781 0.046876-0.10547 0.09375-0.16016 0.14063-4.9922 4.3086-8.5156 7.7188-11.199 10.781-3.457 3.9414-5.5391 7.3438-7.6523 11.43-1.875 3.625-2.5156 7.0469-2.1758 9.9883 0.27734 2.418 1.2305 4.5156 2.707 6.1211 1.4844 1.6133 3.5117 2.7539 5.9336 3.25 2.9961 0.61328 6.6055 0.25781 10.586-1.3672 11.543-4.7109 21.078-14.863 30.613-25.012 6.0391-6.4297 12.078-12.855 18.723-18.07 6.5742-5.1602 15.906-7.1875 24.852-9.1289 0.77734-0.16797 1.5547-0.33594 2.3242-0.50781 0.011718-0.003906 0.023437-0.007812 0.035156-0.007812l6-1.4258c3.4648-0.92188 6.5977-1.9922 9.0625-3.4258 2.5078-1.457 4.7422-3.0859 6.7852-4.8477 2.0703-1.7852 3.9531-3.7109 5.7227-5.7539 1.0078-1.1641 2.7734-1.293 3.9375-0.28516 1.1641 1.0078 1.293 2.7734 0.28516 3.9375-1.6797 1.9336-3.4531 3.7773-5.375 5.5156l13.281-3.1602c1.668-0.39844 3.1992-0.74609 4.6133-1.0391 0.058594-0.015625 0.11719-0.027344 0.17578-0.035156 0.72266-0.14844 1.4141-0.28125 2.0781-0.39844 7.1836-1.5352 12.43-4.3281 17.402-6.9727 5.5781-2.9648 10.836-5.7617 18.191-6.7422 1.5273-0.19922 2.9297 0.87891 3.1289 2.4062 0.19922 1.5273-0.87891 2.9297-2.4062 3.1289-6.3008 0.83984-11.148 3.418-16.289 6.1523-2.3984 1.2734-4.8555 2.582-7.5586 3.7891 2.9453 2.6797 4.0742 7.457 5.6992 15.586 4.1875 20.938 10.973 57.367 16.145 93.828 3.4844 24.578 6.2227 49.141 6.9102 68.91 0.023438 0.71484 0.0625 1.5742 0.097656 2.4023 0.49609 11.758 0.75781 17.902-15.305 19.23-16.746 1.3867-66.723 7.3164-123.41 16.582-36.438 5.9531-75.629 13.277-110.54 21.641-12.594 3.0195-24.957 5.2695-36.285 6.957-11.273 1.6797-21.684 2.8164-30.32 3.6016-0.48047 0.042969-1.332 0.13672-2.168 0.22656-7.6016 0.82422-14.188 1.5391-16.66-9.2344-0.17578-0.77344-0.35547-1.5781-0.53906-2.4062zm-61.516-4.4922c1.1484-1.0312 2.9141-0.94141 3.9492 0.20703 1.0312 1.1484 0.94141 2.9141-0.20703 3.9492l-9.332 8.3984c-1.1484 1.0312-2.9141 0.94141-3.9492-0.20703-1.0312-1.1484-0.94141-2.9141 0.20703-3.9492zm-17.906 42.41c-0.42188-0.42187-1.0039-0.68359-1.6484-0.68359s-1.2266 0.26172-1.6484 0.68359c-0.42188 0.42188-0.68359 1.0039-0.68359 1.6484s0.26172 1.2266 0.68359 1.6484c0.42188 0.42187 1.0039 0.68359 1.6484 0.68359s1.2266-0.26172 1.6484-0.68359c0.42188-0.42188 0.68359-1.0039 0.68359-1.6484s-0.26172-1.2266-0.68359-1.6484zm30.785 107.69c-0.42187-0.42187-1.0039-0.68359-1.6484-0.68359s-1.2266 0.26172-1.6484 0.68359c-0.42188 0.42188-0.68359 1.0039-0.68359 1.6484s0.26172 1.2266 0.68359 1.6484c0.42187 0.42187 1.0039 0.68359 1.6484 0.68359s1.2266-0.26172 1.6484-0.68359c0.42188-0.42188 0.68359-1.0039 0.68359-1.6484s-0.26172-1.2266-0.68359-1.6484zm-31.078-22.953c2.1914 0 4.1719 0.88672 5.6094 2.3242s2.3242 3.418 2.3242 5.6094c0 2.1914-0.88672 4.1719-2.3242 5.6094s-3.418 2.3242-5.6094 2.3242c-2.1914 0-4.1719-0.88672-5.6094-2.3242s-2.3242-3.418-2.3242-5.6094c0-2.1914 0.88672-4.1719 2.3242-5.6094s3.418-2.3242 5.6094-2.3242zm1.6484 6.2812c-0.42188-0.42188-1.0039-0.68359-1.6484-0.68359-0.64453 0-1.2266 0.26172-1.6484 0.68359-0.42188 0.42187-0.68359 1.0039-0.68359 1.6484s0.26172 1.2266 0.68359 1.6484c0.42188 0.42188 1.0039 0.68359 1.6484 0.68359 0.64453 0 1.2266-0.26172 1.6484-0.68359 0.42188-0.42187 0.68359-1.0039 0.68359-1.6484s-0.26172-1.2266-0.68359-1.6484zm-23.711-58.312c2.1914 0 4.1719 0.88672 5.6094 2.3242s2.3242 3.418 2.3242 5.6094c0 2.1914-0.88672 4.1719-2.3242 5.6094s-3.418 2.3242-5.6094 2.3242c-2.1914 0-4.1719-0.88672-5.6094-2.3242s-2.3242-3.418-2.3242-5.6094c0-2.1914 0.88672-4.1719 2.3242-5.6094s3.418-2.3242 5.6094-2.3242zm1.6484 6.2812c-0.42188-0.42188-1.0039-0.68359-1.6484-0.68359-0.64453 0-1.2266 0.26172-1.6484 0.68359-0.42188 0.42187-0.68359 1.0039-0.68359 1.6484s0.26172 1.2266 0.68359 1.6484c0.42188 0.42188 1.0039 0.68359 1.6484 0.68359 0.64453 0 1.2266-0.26172 1.6484-0.68359 0.42188-0.42187 0.68359-1.0039 0.68359-1.6484s-0.26172-1.2266-0.68359-1.6484zm68.477-7.9219c2.1914 0 4.1719 0.88672 5.6094 2.3242s2.3242 3.418 2.3242 5.6094-0.88672 4.1719-2.3242 5.6094-3.418 2.3242-5.6094 2.3242c-2.1914 0-4.1719-0.88672-5.6094-2.3242s-2.3242-3.418-2.3242-5.6094 0.88672-4.1719 2.3242-5.6094 3.418-2.3242 5.6094-2.3242zm1.6484 6.2812c-0.42188-0.42187-1.0039-0.68359-1.6484-0.68359-0.64453 0-1.2266 0.26172-1.6484 0.68359-0.42188 0.42188-0.68359 1.0039-0.68359 1.6484s0.26172 1.2266 0.68359 1.6484c0.42188 0.42187 1.0039 0.68359 1.6484 0.68359 0.64453 0 1.2266-0.26172 1.6484-0.68359 0.42188-0.42188 0.68359-1.0039 0.68359-1.6484s-0.26172-1.2266-0.68359-1.6484zm-6.3164-97.285c2.8359 0 5.1328 2.2969 5.1328 5.1328 0 2.8359-2.2969 5.1328-5.1328 5.1328-2.8359 0-5.1328-2.2969-5.1328-5.1328 0-2.8359 2.2969-5.1328 5.1328-5.1328zm-22.398 39.199c2.8359 0 5.1328 2.2969 5.1328 5.1328 0 2.8359-2.2969 5.1328-5.1328 5.1328-2.8359 0-5.1328-2.2969-5.1328-5.1328 0-2.8359 2.2969-5.1328 5.1328-5.1328zm-28.855 72.352c2.8359 0 5.1328 2.2969 5.1328 5.1328s-2.2969 5.1328-5.1328 5.1328c-2.8359 0-5.1328-2.2969-5.1328-5.1328s2.2969-5.1328 5.1328-5.1328zm62.922 13.516c2.8359 0 5.1328 2.2969 5.1328 5.1328s-2.2969 5.1328-5.1328 5.1328c-2.8359 0-5.1328-2.2969-5.1328-5.1328s2.2969-5.1328 5.1328-5.1328zm-27.195 6.4414c2.8359 0 5.1328 2.2969 5.1328 5.1328 0 2.8359-2.2969 5.1328-5.1328 5.1328s-5.1328-2.2969-5.1328-5.1328c0-2.8359 2.2969-5.1328 5.1328-5.1328zm39.418-52.566c2.8359 0 5.1328 2.2969 5.1328 5.1328s-2.2969 5.1328-5.1328 5.1328c-2.8359 0-5.1328-2.2969-5.1328-5.1328s2.2969-5.1328 5.1328-5.1328zm-9.4219-33.207c2.8359 0 5.1328 2.2969 5.1328 5.1328 0 2.8359-2.2969 5.1328-5.1328 5.1328-2.8359 0-5.1328-2.2969-5.1328-5.1328 0-2.8359 2.2969-5.1328 5.1328-5.1328zm-2.2891-26.34c2.1914 0 4.1719 0.88672 5.6094 2.3242s2.3242 3.418 2.3242 5.6094c0 2.1914-0.88672 4.1719-2.3242 5.6094s-3.418 2.3242-5.6094 2.3242-4.1719-0.88672-5.6094-2.3242-2.3242-3.418-2.3242-5.6094c0-2.1914 0.88672-4.1719 2.3242-5.6094s3.418-2.3242 5.6094-2.3242zm1.6484 6.2812c-0.42188-0.42188-1.0039-0.68359-1.6484-0.68359-0.64453 0-1.2266 0.26172-1.6484 0.68359-0.42188 0.42187-0.68359 1.0039-0.68359 1.6484s0.26172 1.2266 0.68359 1.6484c0.42188 0.42188 1.0039 0.68359 1.6484 0.68359 0.64453 0 1.2266-0.26172 1.6484-0.68359 0.42188-0.42187 0.68359-1.0039 0.68359-1.6484s-0.26172-1.2266-0.68359-1.6484zm206.47-214.12c-0.71484-0.28516-1.0625-1.1016-0.77734-1.8164 0.28516-0.71484 1.1016-1.0625 1.8164-0.77734 0.98828 0.39844 2.0625 1.0508 3 1.9062 0.82813 0.75781 1.5508 1.6758 2.0195 2.7188 0.31641 0.70312 0.003906 1.5312-0.69922 1.8477s-1.5312 0.003906-1.8477-0.69922c-0.30859-0.6875-0.79297-1.2969-1.3516-1.8086-0.67188-0.61328-1.4453-1.082-2.1562-1.3711zm-24.043 17.602c-0.46094 0.61719-1.3359 0.74219-1.9531 0.27734-0.61719-0.46094-0.74219-1.3359-0.27734-1.9531 0.35547-0.47656 0.72656-1.0117 1.0938-1.543 1.8242-2.6367 3.5742-5.1719 7.0273-5.4297 1.8672-0.14062 3.8867 0.51563 5.7344 1.5586 2.082 1.1797 3.9883 2.8828 5.1797 4.4844 0.46094 0.61719 0.32812 1.4922-0.28906 1.9531-0.61719 0.46094-1.4922 0.32812-1.9531-0.28906-0.98047-1.3164-2.5664-2.7305-4.3164-3.7188-1.4023-0.79297-2.8789-1.293-4.1484-1.1992-2.125 0.16016-3.5039 2.1523-4.9375 4.2266-0.36719 0.53125-0.73828 1.0703-1.1602 1.6328zm24.438-60.184c-0.69531 4.2344-1.8906 8.4766-5.6445 15.043-3.6016 6.3008-3.5703 7.5391-3.4453 12.621l0.003906 0.17188c4.6328-4.0625 11.559-11.641 17.301-19.441 0.70312-0.95313 1.3828-1.9062 2.043-2.8555 0.054687-0.10938 0.10156-0.22266 0.14844-0.34375-2.6758-0.93359-6.5547-2.8086-10.402-5.1953zm102.93 30.539c0.74609-0.19922 1.5117 0.24219 1.7109 0.98828 0.19922 0.74609-0.24219 1.5117-0.98828 1.7109-5.2812 1.4141-12.27 3.0469-20.281 4.7344-7.5547 1.5898-15.98 3.2148-24.699 4.7305-0.76172 0.12891-1.4844-0.38281-1.6133-1.1445-0.12891-0.76172 0.38281-1.4844 1.1445-1.6133 8.7422-1.5195 17.129-3.1367 24.602-4.707 7.918-1.6641 14.852-3.2891 20.129-4.6992zm-148.8 18.273c0.76953-0.007812 1.4023 0.60938 1.4102 1.3789 0.007813 0.76953-0.60938 1.4023-1.3789 1.4102-16.777 0.23828-32.84 0.15234-46.59 0.078125-10.578-0.058594-19.781-0.10547-26.883 0.003906-0.76953 0.011719-1.4062-0.60156-1.418-1.3711-0.011719-0.76953 0.60156-1.4062 1.3711-1.418 7.1133-0.11328 16.34-0.0625 26.938-0.003907 13.734 0.074219 29.781 0.16016 46.543-0.078125zm-66.594 190.02c-0.75 0.17969-1.5-0.28516-1.6797-1.0352-0.17969-0.75 0.28516-1.5 1.0352-1.6797 35.082-8.4062 74.359-15.746 110.84-21.707 56.879-9.2969 106.97-15.242 123.73-16.629 0.76953-0.0625 1.4453 0.50781 1.5078 1.2812 0.0625 0.76953-0.50781 1.4453-1.2812 1.5078-16.754 1.3867-66.766 7.3242-123.52 16.598-36.449 5.957-75.672 13.285-110.64 21.664zm-54.094-176.02c-0.082031-0.76562 0.47266-1.457 1.2422-1.5352 0.76562-0.082032 1.457 0.47266 1.5352 1.2422l18.668 175.46c0.082032 0.76562-0.47266 1.457-1.2422 1.5352-0.76562 0.082031-1.457-0.47266-1.5352-1.2422zm-10.887 0.14844c-0.16406-1.5352 0.94922-2.9102 2.4844-3.0742 1.5352-0.16406 2.9102 0.94922 3.0742 2.4844l18.668 175.46c0.16406 1.5352-0.94922 2.9102-2.4844 3.0742-1.5352 0.16406-2.9102-0.94922-3.0742-2.4844zm-178.71 271.88c-0.69922 0.32031-1.5273 0.011719-1.8477-0.6875-0.32031-0.69922-0.011719-1.5273 0.6875-1.8477 12.535-5.7227 28.875-10.418 47.73-13.637 18.133-3.0977 38.605-4.8398 60.266-4.8398 0.77344 0 1.3984 0.625 1.3984 1.3984 0 0.77344-0.625 1.3984-1.3984 1.3984-21.512 0-41.824 1.7266-59.793 4.7969-18.633 3.1836-34.738 7.8008-47.039 13.418zm111.11 151.74c0.45703-0.32031 1.0117-0.50781 1.6133-0.50391 22.152 0.12891 45.387-2.9844 63.227-9.2109 10.766-3.7578 19.488-8.5977 24.633-14.469-25.941 12.094-55.707 17.488-84.09 16.809-1.8672-0.042969-3.6602-0.11328-5.3828-0.19922-1.6445 0.085938-3.3594 0.14844-5.1523 0.19531-29.133 0.73438-59.262-4.957-85.117-17.754 5.0117 6.3008 14.082 11.465 25.426 15.422 17.84 6.2266 41.074 9.3398 63.227 9.2109 0.60156-0.003906 1.1562 0.18359 1.6133 0.50391zm-0.16016-13.16c0.054687-0.003906 0.10547-0.003906 0.16016-0.003906h0.003906c0.054688 0 0.10547 0 0.16016 0.003906 1.8477 0.097656 3.6328 0.16406 5.3555 0.20703 30.543 0.73047 62.695-5.7539 89.562-20.289 0.050782-0.027344 0.10156-0.054688 0.15234-0.082032 3.8203-2.0742 7.5352-4.3086 11.121-6.7109 25.551-17.105 44.637-42.668 50-77.559-7.9883 9.2578-22.395 17.422-41.406 23.875-29.055 9.8672-69.133 15.969-113.34 15.969-44.211 0-84.285-6.1016-113.34-15.969-19.031-6.4609-33.449-14.637-41.434-23.906 5.2305 34.957 23.684 60.551 48.598 77.656 28.098 19.297 64.402 27.883 99.293 27.004 1.6367-0.042969 3.3438-0.10938 5.1211-0.19922z"/>
  <use x="70" y="560.078125" xlink:href="#x"/>
  <use x="70.019531" y="560.078125" xlink:href="#c"/>
  <use x="70.03125" y="560.078125" xlink:href="#a"/>
  <use x="70.050781" y="560.078125" xlink:href="#b"/>
  <use x="70.066406" y="560.078125" xlink:href="#e"/>
  <use x="70.082031" y="560.078125" xlink:href="#a"/>
  <use x="70.097656" y="560.078125" xlink:href="#i"/>
  <use x="70.128906" y="560.078125" xlink:href="#m"/>
  <use x="70.144531" y="560.078125" xlink:href="#h"/>
  <use x="70.171875" y="560.078125" xlink:href="#l"/>
  <use x="70.195312" y="560.078125" xlink:href="#w"/>
  <use x="70.203125" y="560.078125" xlink:href="#a"/>
  <use x="70.222656" y="560.078125" xlink:href="#k"/>
  <use x="70.238281" y="560.078125" xlink:href="#g"/>
  <use x="70.253906" y="560.078125" xlink:href="#b"/>
  <use x="70.273438" y="560.078125" xlink:href="#f"/>
  <use x="70.292969" y="560.078125" xlink:href="#i"/>
  <use x="70.3125" y="560.078125" xlink:href="#c"/>
  <use x="70.332031" y="560.078125" xlink:href="#j"/>
  <use x="70.351562" y="560.078125" xlink:href="#b"/>
  <use x="70.371094" y="560.078125" xlink:href="#f"/>
  <use x="70.390625" y="560.078125" xlink:href="#b"/>
  <use x="70.40625" y="560.078125" xlink:href="#g"/>
  <use x="70.421875" y="560.078125" xlink:href="#d"/>
  <use x="70.441406" y="560.078125" xlink:href="#v"/>
  <use x="70.457031" y="560.078125" xlink:href="#g"/>
  <use x="70.472656" y="560.078125" xlink:href="#k"/>
  <use x="70.492188" y="560.078125" xlink:href="#h"/>
  <use x="70.507812" y="560.078125" xlink:href="#u"/>
  <use x="70" y="560.105469" xlink:href="#t"/>
  <use x="70.011719" y="560.105469" xlink:href="#c"/>
  <use x="70.023438" y="560.105469" xlink:href="#d"/>
  <use x="70.042969" y="560.105469" xlink:href="#s"/>
  <use x="70.078125" y="560.105469" xlink:href="#e"/>
  <use x="70.09375" y="560.105469" xlink:href="#r"/>
  <use x="70.109375" y="560.105469" xlink:href="#a"/>
  <use x="70.136719" y="560.105469" xlink:href="#q"/>
  <use x="70.160156" y="560.105469" xlink:href="#d"/>
  <use x="70.179688" y="560.105469" xlink:href="#p"/>
  <use x="70.199219" y="560.105469" xlink:href="#f"/>
  <use x="70.226562" y="560.105469" xlink:href="#j"/>
  <use x="70.246094" y="560.105469" xlink:href="#c"/>
  <use x="70.257812" y="560.105469" xlink:href="#d"/>
  <use x="70.277344" y="560.105469" xlink:href="#o"/>
  <use x="70.285156" y="560.105469" xlink:href="#a"/>
  <use x="70.304688" y="560.105469" xlink:href="#n"/>
  <use x="70.320312" y="560.105469" xlink:href="#e"/>
 </g>
</svg>
