<?xml version="1.0" encoding="UTF-8"?>
<svg width="700pt" height="700pt" version="1.1" viewBox="0 0 700 700" xmlns="http://www.w3.org/2000/svg" xmlns:xlink="http://www.w3.org/1999/xlink">
 <defs>
  <symbol id="u" overflow="visible">
   <path d="m3.7812-0.21875c-0.19922 0.09375-0.40234 0.16797-0.60938 0.21875-0.21094 0.050781-0.42969 0.078125-0.65625 0.078125-0.6875 0-1.2344-0.1875-1.6406-0.5625-0.39844-0.38281-0.59375-0.90625-0.59375-1.5625s0.19531-1.1758 0.59375-1.5625c0.40625-0.38281 0.95312-0.57812 1.6406-0.57812 0.22656 0 0.44531 0.027344 0.65625 0.078125 0.20703 0.054687 0.41016 0.13281 0.60938 0.23438v0.84375c-0.19922-0.13281-0.39844-0.23438-0.59375-0.29688-0.1875-0.0625-0.38672-0.09375-0.59375-0.09375-0.375 0-0.67188 0.125-0.89062 0.375-0.21875 0.24219-0.32812 0.57422-0.32812 1 0 0.41797 0.10938 0.75 0.32812 1 0.21875 0.24219 0.51562 0.35938 0.89062 0.35938 0.20703 0 0.40625-0.03125 0.59375-0.09375 0.19531-0.0625 0.39453-0.16016 0.59375-0.29688z"/>
  </symbol>
  <symbol id="c" overflow="visible">
   <path d="m2.7656-2.25c-0.085937-0.039062-0.17188-0.066406-0.26562-0.078125-0.085938-0.019531-0.16797-0.03125-0.25-0.03125-0.25 0-0.44922 0.085937-0.59375 0.25-0.13672 0.15625-0.20312 0.38672-0.20312 0.6875v1.4219h-0.98438v-3.0781h0.98438v0.5c0.13281-0.19531 0.28125-0.34375 0.4375-0.4375 0.16406-0.09375 0.36328-0.14062 0.59375-0.14062h0.10938c0.039062 0 0.097656 0.007812 0.17188 0.015625z"/>
  </symbol>
  <symbol id="a" overflow="visible">
   <path d="m3.5469-1.5469v0.28125h-2.2969c0.019531 0.23047 0.10156 0.40234 0.25 0.51562 0.14453 0.11719 0.34375 0.17188 0.59375 0.17188 0.20703 0 0.42188-0.03125 0.64062-0.09375s0.44141-0.15625 0.67188-0.28125v0.76562c-0.23047 0.085938-0.46484 0.14844-0.70312 0.1875-0.23047 0.050781-0.46094 0.078125-0.6875 0.078125-0.5625 0-1-0.14062-1.3125-0.42188-0.30469-0.28125-0.45312-0.67969-0.45312-1.2031 0-0.5 0.14844-0.89062 0.45312-1.1719 0.30078-0.28906 0.71875-0.4375 1.25-0.4375 0.48828 0 0.875 0.14844 1.1562 0.4375 0.28906 0.29297 0.4375 0.68359 0.4375 1.1719zm-1-0.32812c0-0.1875-0.058594-0.33594-0.17188-0.45312-0.10547-0.11328-0.24609-0.17188-0.42188-0.17188-0.19922 0-0.35938 0.054688-0.48438 0.15625-0.11719 0.10547-0.18359 0.26172-0.20312 0.46875z"/>
  </symbol>
  <symbol id="f" overflow="visible">
   <path d="m1.8594-1.3906c-0.21094 0-0.36719 0.039063-0.46875 0.10938-0.10547 0.074219-0.15625 0.17969-0.15625 0.3125 0 0.125 0.039063 0.22656 0.125 0.29688 0.082031 0.0625 0.19531 0.09375 0.34375 0.09375 0.1875 0 0.34375-0.0625 0.46875-0.1875 0.13281-0.13281 0.20312-0.30469 0.20312-0.51562v-0.10938zm1.5-0.375v1.7656h-0.98438v-0.45312c-0.13672 0.1875-0.28906 0.32422-0.45312 0.40625-0.16797 0.082031-0.37109 0.125-0.60938 0.125-0.3125 0-0.57031-0.09375-0.76562-0.28125-0.19922-0.1875-0.29688-0.42578-0.29688-0.71875 0-0.36328 0.11719-0.62891 0.35938-0.79688 0.25-0.16406 0.64062-0.25 1.1719-0.25h0.59375v-0.078125c0-0.15625-0.0625-0.26953-0.1875-0.34375-0.125-0.070313-0.32031-0.10938-0.57812-0.10938-0.21094 0-0.40625 0.023438-0.59375 0.0625-0.17969 0.042969-0.34375 0.10547-0.5 0.1875v-0.75c0.20703-0.050781 0.41406-0.085938 0.625-0.10938 0.21875-0.03125 0.42969-0.046875 0.64062-0.046875 0.5625 0 0.96094 0.10938 1.2031 0.32812 0.25 0.21875 0.375 0.57422 0.375 1.0625z"/>
  </symbol>
  <symbol id="b" overflow="visible">
   <path d="m1.5469-3.9531v0.875h1.0156v0.70312h-1.0156v1.2969c0 0.14844 0.023437 0.24609 0.078125 0.29688 0.0625 0.054688 0.17578 0.078125 0.34375 0.078125h0.51562v0.70312h-0.84375c-0.39844 0-0.67969-0.078125-0.84375-0.23438-0.15625-0.16406-0.23438-0.44531-0.23438-0.84375v-1.2969h-0.48438v-0.70312h0.48438v-0.875z"/>
  </symbol>
  <symbol id="k" overflow="visible">
   <path d="m2.5781-2.6406v-1.6406h0.98438v4.2812h-0.98438v-0.45312c-0.13672 0.1875-0.28906 0.32422-0.45312 0.40625-0.16797 0.082031-0.35547 0.125-0.5625 0.125-0.38672 0-0.70312-0.14844-0.95312-0.45312-0.24219-0.30078-0.35938-0.69141-0.35938-1.1719 0-0.46875 0.11719-0.85156 0.35938-1.1562 0.25-0.30078 0.56641-0.45312 0.95312-0.45312 0.20703 0 0.39453 0.042969 0.5625 0.125 0.16406 0.085938 0.31641 0.21484 0.45312 0.39062zm-0.65625 2c0.20703 0 0.36719-0.070313 0.48438-0.21875 0.11328-0.15625 0.17188-0.38281 0.17188-0.6875 0-0.28906-0.058594-0.50781-0.17188-0.65625-0.11719-0.15625-0.27734-0.23438-0.48438-0.23438-0.21094 0-0.37109 0.078125-0.48438 0.23438-0.10547 0.14844-0.15625 0.36719-0.15625 0.65625 0 0.30469 0.050781 0.53125 0.15625 0.6875 0.11328 0.14844 0.27344 0.21875 0.48438 0.21875z"/>
  </symbol>
  <symbol id="j" overflow="visible">
   <path d="m2.1094-0.64062c0.21875 0 0.37891-0.070313 0.48438-0.21875 0.11328-0.15625 0.17188-0.38281 0.17188-0.6875 0-0.28906-0.058594-0.50781-0.17188-0.65625-0.10547-0.15625-0.26562-0.23438-0.48438-0.23438-0.21094 0-0.37109 0.078125-0.48438 0.23438-0.11719 0.14844-0.17188 0.36719-0.17188 0.65625 0 0.29297 0.054687 0.51562 0.17188 0.67188 0.11328 0.15625 0.27344 0.23438 0.48438 0.23438zm-0.65625-2c0.13281-0.17578 0.28516-0.30469 0.45312-0.39062 0.16406-0.082031 0.35938-0.125 0.57812-0.125 0.375 0 0.67969 0.15234 0.92188 0.45312 0.25 0.30469 0.375 0.6875 0.375 1.1562 0 0.48047-0.125 0.87109-0.375 1.1719-0.24219 0.30469-0.54688 0.45312-0.92188 0.45312-0.21875 0-0.41406-0.042969-0.57812-0.125-0.16797-0.082031-0.32031-0.21875-0.45312-0.40625v0.45312h-0.98438v-4.2812h0.98438z"/>
  </symbol>
  <symbol id="e" overflow="visible">
   <path d="m0.0625-3.0781h1l0.82812 2.0938 0.70312-2.0938h0.98438l-1.2969 3.375c-0.13672 0.34375-0.29297 0.58203-0.46875 0.71875-0.16797 0.13281-0.39062 0.20312-0.67188 0.20312h-0.57812v-0.65625h0.3125c0.16406 0 0.28516-0.027344 0.35938-0.078125 0.082031-0.054687 0.14453-0.14844 0.1875-0.28125l0.015625-0.078125z"/>
  </symbol>
  <symbol id="i" overflow="visible">
   <path d="m0.51562-4.1094h2.8594v0.79688h-1.7969v0.76562h1.6875v0.79688h-1.6875v0.95312h1.8594v0.79688h-2.9219z"/>
  </symbol>
  <symbol id="h" overflow="visible">
   <path d="m0.4375-1.2031v-1.875h1v0.29688c0 0.16797-0.007812 0.38281-0.015625 0.64062v0.5c0 0.25 0.003906 0.43359 0.015625 0.54688 0.019531 0.10547 0.046875 0.17969 0.078125 0.21875 0.039063 0.074219 0.09375 0.125 0.15625 0.15625s0.13281 0.046875 0.21875 0.046875c0.20703 0 0.36719-0.078125 0.48438-0.23438 0.125-0.15625 0.1875-0.375 0.1875-0.65625v-1.5156h0.98438v3.0781h-0.98438v-0.45312c-0.15625 0.1875-0.32031 0.32422-0.48438 0.40625-0.16797 0.082031-0.35156 0.125-0.54688 0.125-0.35547 0-0.625-0.10938-0.8125-0.32812s-0.28125-0.53516-0.28125-0.95312z"/>
  </symbol>
  <symbol id="g" overflow="visible">
   <path d="m2.9688-2.9844v0.79688c-0.13672-0.09375-0.27344-0.16016-0.40625-0.20312-0.13672-0.039063-0.27734-0.0625-0.42188-0.0625-0.27344 0-0.48438 0.085937-0.64062 0.25-0.15625 0.15625-0.23438 0.375-0.23438 0.65625 0 0.29297 0.078125 0.52344 0.23438 0.6875 0.15625 0.15625 0.36719 0.23438 0.64062 0.23438 0.15625 0 0.30078-0.019531 0.4375-0.0625 0.14453-0.050781 0.27344-0.11719 0.39062-0.20312v0.79688c-0.15625 0.0625-0.3125 0.10156-0.46875 0.125-0.15625 0.03125-0.32031 0.046875-0.48438 0.046875-0.55469 0-0.98438-0.14062-1.2969-0.42188-0.3125-0.28906-0.46875-0.69141-0.46875-1.2031 0-0.5 0.15625-0.89062 0.46875-1.1719 0.3125-0.28906 0.74219-0.4375 1.2969-0.4375 0.16406 0 0.32812 0.015625 0.48438 0.046875 0.15625 0.023437 0.3125 0.0625 0.46875 0.125z"/>
  </symbol>
  <symbol id="t" overflow="visible">
   <path d="m0.46875-4.2812h0.98438v4.2812h-0.98438z"/>
  </symbol>
  <symbol id="s" overflow="visible">
   <path d="m1.4531-0.45312v1.625h-0.98438v-4.25h0.98438v0.4375c0.13281-0.17578 0.28516-0.30469 0.45312-0.39062 0.16406-0.082031 0.35938-0.125 0.57812-0.125 0.375 0 0.67969 0.15234 0.92188 0.45312 0.25 0.30469 0.375 0.6875 0.375 1.1562 0 0.48047-0.125 0.87109-0.375 1.1719-0.24219 0.30469-0.54688 0.45312-0.92188 0.45312-0.21875 0-0.41406-0.042969-0.57812-0.125-0.16797-0.082031-0.32031-0.21875-0.45312-0.40625zm0.65625-1.9844c-0.21094 0-0.37109 0.078125-0.48438 0.23438-0.11719 0.14844-0.17188 0.36719-0.17188 0.65625 0 0.29297 0.054687 0.51562 0.17188 0.67188 0.11328 0.15625 0.27344 0.23438 0.48438 0.23438 0.21875 0 0.37891-0.070313 0.48438-0.21875 0.11328-0.15625 0.17188-0.38281 0.17188-0.6875 0-0.28906-0.058594-0.50781-0.17188-0.65625-0.10547-0.15625-0.26562-0.23438-0.48438-0.23438z"/>
  </symbol>
  <symbol id="r" overflow="visible">
   <path d="m2.5-4.2812v0.64062h-0.54688c-0.13672 0-0.23438 0.027344-0.29688 0.078125-0.054688 0.054688-0.078125 0.14062-0.078125 0.26562v0.21875h0.84375v0.70312h-0.84375v2.375h-0.98438v-2.375h-0.48438v-0.70312h0.48438v-0.21875c0-0.33203 0.09375-0.57812 0.28125-0.73438 0.1875-0.16406 0.47656-0.25 0.875-0.25z"/>
  </symbol>
  <symbol id="d" overflow="visible">
   <path d="m1.9375-2.4531c-0.21875 0-0.38672 0.078125-0.5 0.23438-0.11719 0.15625-0.17188 0.38281-0.17188 0.67188 0 0.30469 0.054687 0.53125 0.17188 0.6875 0.11328 0.15625 0.28125 0.23438 0.5 0.23438s0.38281-0.078125 0.5-0.23438c0.11328-0.15625 0.17188-0.38281 0.17188-0.6875 0-0.28906-0.058594-0.51562-0.17188-0.67188-0.11719-0.15625-0.28125-0.23438-0.5-0.23438zm0-0.70312c0.53125 0 0.94141 0.14844 1.2344 0.4375 0.30078 0.28125 0.45312 0.67188 0.45312 1.1719 0 0.51172-0.15234 0.91406-0.45312 1.2031-0.29297 0.28125-0.70312 0.42188-1.2344 0.42188s-0.94922-0.14062-1.25-0.42188c-0.29297-0.28906-0.4375-0.69141-0.4375-1.2031 0-0.5 0.14453-0.89062 0.4375-1.1719 0.30078-0.28906 0.71875-0.4375 1.25-0.4375z"/>
  </symbol>
  <symbol id="q" overflow="visible">
   <path d="m3.3281-2.5781c0.125-0.1875 0.26953-0.32812 0.4375-0.42188 0.17578-0.10156 0.36719-0.15625 0.57812-0.15625 0.35156 0 0.625 0.10938 0.8125 0.32812s0.28125 0.53906 0.28125 0.95312v1.875h-1v-1.6094-0.0625-0.125c0-0.21875-0.03125-0.375-0.09375-0.46875-0.0625-0.10156-0.16797-0.15625-0.3125-0.15625-0.1875 0-0.33594 0.078125-0.4375 0.23438-0.09375 0.15625-0.14062 0.38281-0.14062 0.67188v1.5156h-1v-1.6094c0-0.34375-0.03125-0.5625-0.09375-0.65625-0.054687-0.10156-0.15625-0.15625-0.3125-0.15625-0.1875 0-0.33594 0.078125-0.4375 0.23438-0.10547 0.15625-0.15625 0.38281-0.15625 0.67188v1.5156h-0.98438v-3.0781h0.98438v0.4375c0.125-0.16406 0.26562-0.28906 0.42188-0.375 0.15625-0.09375 0.32812-0.14062 0.51562-0.14062 0.21875 0 0.40625 0.054688 0.5625 0.15625 0.16406 0.10547 0.28906 0.24609 0.375 0.42188z"/>
  </symbol>
  <symbol id="p" overflow="visible">
   <path d="m3.5781-1.875v1.875h-1v-1.4375c0-0.26953-0.007813-0.45312-0.015625-0.54688-0.011719-0.10156-0.03125-0.17969-0.0625-0.23438-0.03125-0.0625-0.085938-0.10938-0.15625-0.14062-0.0625-0.039063-0.13672-0.0625-0.21875-0.0625-0.21094 0-0.375 0.085937-0.5 0.25-0.11719 0.15625-0.17188 0.375-0.17188 0.65625v1.5156h-0.98438v-4.2812h0.98438v1.6406c0.15625-0.17578 0.31641-0.30469 0.48438-0.39062 0.16406-0.082031 0.34766-0.125 0.54688-0.125 0.35156 0 0.625 0.10938 0.8125 0.32812s0.28125 0.53906 0.28125 0.95312z"/>
  </symbol>
  <symbol id="o" overflow="visible">
   <path d="m0.51562-4.1094h1.1875l1.5 2.8125v-2.8125h1v4.1094h-1.1875l-1.5-2.8281v2.8281h-1z"/>
  </symbol>
  <symbol id="n" overflow="visible">
   <path d="m3.5781-1.875v1.875h-1v-1.4375c0-0.26953-0.007813-0.45312-0.015625-0.54688-0.011719-0.10156-0.03125-0.17969-0.0625-0.23438-0.03125-0.0625-0.085938-0.10938-0.15625-0.14062-0.0625-0.039063-0.13672-0.0625-0.21875-0.0625-0.21094 0-0.375 0.085937-0.5 0.25-0.11719 0.15625-0.17188 0.375-0.17188 0.65625v1.5156h-0.98438v-3.0781h0.98438v0.4375c0.15625-0.17578 0.31641-0.30469 0.48438-0.39062 0.16406-0.082031 0.34766-0.125 0.54688-0.125 0.35156 0 0.625 0.10938 0.8125 0.32812s0.28125 0.53906 0.28125 0.95312z"/>
  </symbol>
  <symbol id="m" overflow="visible">
   <path d="m0.51562-4.1094h1.7656c0.51953 0 0.92188 0.11719 1.2031 0.34375 0.28125 0.23047 0.42188 0.5625 0.42188 1 0 0.42969-0.14062 0.76172-0.42188 1-0.28125 0.23047-0.68359 0.34375-1.2031 0.34375h-0.70312v1.4219h-1.0625zm1.0625 0.76562v1.1562h0.59375c0.19531 0 0.35156-0.050781 0.46875-0.15625 0.11328-0.10156 0.17188-0.24219 0.17188-0.42188 0-0.1875-0.058594-0.32812-0.17188-0.42188-0.11719-0.10156-0.27344-0.15625-0.46875-0.15625z"/>
  </symbol>
  <symbol id="l" overflow="visible">
   <path d="m0.46875-3.0781h0.98438v3.0156c0 0.41406-0.10156 0.73438-0.29688 0.95312-0.19922 0.21875-0.48438 0.32812-0.85938 0.32812h-0.48438v-0.65625h0.17188c0.1875 0 0.3125-0.042969 0.375-0.125 0.070313-0.085938 0.10938-0.25 0.10938-0.5zm0-1.2031h0.98438v0.79688h-0.98438z"/>
  </symbol>
 </defs>
 <g>
  <path d="m178.39 325.16c14.941 0 27.098-12.156 27.098-27.098s-12.156-27.098-27.098-27.098c-14.941 0-27.098 12.156-27.098 27.098s12.156 27.098 27.098 27.098zm0-36.129c4.9805 0 9.0312 4.0508 9.0312 9.0312s-4.0508 9.0312-9.0312 9.0312-9.0312-4.0508-9.0312-9.0312c0-4.9766 4.0508-9.0312 9.0312-9.0312z"/>
  <path d="m160.32 424.52c0 14.941 12.156 27.098 27.098 27.098s27.098-12.156 27.098-27.098-12.156-27.098-27.098-27.098-27.098 12.156-27.098 27.098zm36.129 0c0 4.9805-4.0508 9.0312-9.0312 9.0312s-9.0312-4.0508-9.0312-9.0312 4.0508-9.0312 9.0312-9.0312c4.9766 0 9.0312 4.0508 9.0312 9.0312z"/>
  <path d="m602.9 415.48h-192.17c1.6016-3.668 2.4922-7.7148 2.4922-11.965 0-12.945-8.2539-24.395-20.531-28.488l-8.293-2.7656c-4.5742-13.184-13.723-23.906-25.371-30.578v-5.6641c0-11.621 2.75-23.258 7.9453-33.652 6.6211-13.238 10.121-28.062 10.121-42.867v-8.1289c0-33.898-17.184-65.879-45.16-84.703v-31.188c0-14.941-12.156-27.098-27.098-27.098h-9.0312v-2.1289c0-13.395-8.0352-25.27-20.477-30.242l-15.566-6.2266c-4.4961-1.8008-7.7031-5.6211-8.75-10.191 6.0273-7.0312 9.1289-16.098 8.6055-25.516-1.0117-18.262-15.535-32.883-33.785-34.016-10.082-0.625-19.688 2.832-27.027 9.7305-7.2383 6.8047-11.391 16.402-11.391 26.332 0 8.6367 3.1133 16.961 8.6641 23.465-1.0469 4.5703-4.25 8.3984-8.75 10.199l-15.566 6.2266c-12.438 4.9766-20.477 16.844-20.477 30.242v2.1289h-9.0312c-14.941 0-27.098 12.156-27.098 27.098v31.188c-27.977 18.824-45.16 50.805-45.16 84.703v8.1289c0 14.805 3.5 29.629 10.121 42.867 5.1953 10.395 7.9453 22.031 7.9453 33.652 0 9.6172-1.8125 19.02-5.3828 27.949l-4.9961 12.484c-5.1016 12.754-7.6875 26.184-7.6875 39.918 0 59.27 48.219 107.49 107.49 107.49h82.875c12.512 21.574 35.852 36.129 62.535 36.129 39.844 0 72.258-32.414 72.258-72.258v-18.066h207.74c14.941 0 27.098-12.156 27.098-27.098 0-14.938-12.156-27.094-27.098-27.094zm-233.37-29.129 17.445 5.8164c4.8945 1.6289 8.1797 6.1914 8.1797 11.348 0 6.5977-5.3672 11.965-11.965 11.965h-132.55c-4.9805 0-9.0312-4.0508-9.0312-9.0312s4.0508-9.0312 9.0312-9.0312h27.098v-9.0312c0-9.9609 8.1055-18.066 18.066-18.066h5.5703l2.6172-5.2109c3.9648-7.9297 11.934-12.855 20.797-12.855h6.0312c17.773 0 33.199 12.043 37.512 29.285zm-240.94-108.22c-2.8789-5.7539-4.3984-12.195-4.3984-18.629 0-7.668 2.9844-14.879 8.4102-20.301l0.17578-0.17578c6.6797 4.1758 16.277 6.6367 25.133 8.4062 17.625 3.5234 40.938 5.4648 65.641 5.4648 24.703 0 48.012-1.9414 65.641-5.4648 8.8555-1.7695 18.453-4.2305 25.133-8.4062l0.17578 0.17578c5.4219 5.4219 8.4062 12.629 8.4062 20.301 0 6.4336-1.5234 12.879-4.3984 18.633-8.9453 17.883-13.672 37.898-13.672 57.891v3.2695c-5.7734 3.1758-10.758 7.7227-14.484 13.371-14.352 2.1836-25.957 12.836-29.531 26.688h-10.18c-14.941 0-27.098 12.156-27.098 27.098s12.156 27.098 27.098 27.098v36.129l-72.137-0.003907c-14.281 0-27.859-5.5898-38.23-15.746-10.383-10.16-16.094-23.512-16.082-37.594 0.003907-6.7969 1.2891-13.445 3.8125-19.754l4.9922-12.484c6.1445-15.355 9.2578-31.527 9.2578-48.07 0-19.988-4.7266-40.008-13.664-57.895zm18.199-52.324c11.035-4.0508 37.387-9.0312 76.758-9.0312 39.371 0 65.723 4.9805 76.758 9.0312-11.035 4.0508-37.387 9.0312-76.758 9.0312-39.375 0-65.723-4.9805-76.758-9.0312zm22.562-119.55c0-5.9688 3.582-11.254 9.1211-13.469l15.566-6.2266c12.438-4.9766 20.473-16.848 20.473-30.246v-4.0352l-3.0078-2.6914c-3.8281-3.4297-6.0234-8.3359-6.0234-13.465 0-5.0391 2.0234-9.7148 5.6953-13.168 3.6719-3.4492 8.4727-5.1758 13.535-4.8633 8.9609 0.55469 16.371 8.0156 16.867 16.984 0.30469 5.5312-1.8789 10.82-5.9961 14.504l-3.0039 2.6992v4.0391c0 13.395 8.0352 25.27 20.477 30.242l15.566 6.2266c5.5391 2.2148 9.1211 7.5039 9.1211 13.469v2.1289h-108.39zm-36.129 29.223c0-4.9805 4.0508-9.0312 9.0312-9.0312h162.58c4.9805 0 9.0312 4.0508 9.0312 9.0312v27.098h-180.64zm44.266 370.32c-49.312 0-89.426-40.113-89.426-89.426 0-11.426 2.1523-22.602 6.3945-33.211l4.9922-12.484c4.4297-11.07 6.6758-22.73 6.6758-34.656 0-14.41-3.4062-28.844-9.8516-41.734-5.3711-10.742-8.2109-22.773-8.2109-34.789v-8.1289c0-28.52 14.773-55.391 38.711-70.73h193.55c23.934 15.34 38.707 42.215 38.707 70.734v8.1289c0 12.016-2.8398 24.043-8.2109 34.789-6.3086 12.617-9.6953 26.711-9.8398 40.82-3.3047-0.59766-6.6992-0.91797-10.156-0.91797h-6.0312c-0.625 0-1.2422 0.03125-1.8633 0.058593 0.26953-16.609 4.3047-33.18 11.73-48.035 4.125-8.25 6.3086-17.488 6.3086-26.711 0-12.492-4.8672-24.242-13.699-33.074l-5.1484-5.1523c-3.6211-9.9414-19.168-14.352-32.93-17.105-17.625-3.5234-40.938-5.4648-65.641-5.4648s-48.012 1.9414-65.641 5.4648c-13.766 2.7539-29.309 7.1641-32.93 17.105l-5.1484 5.1484c-8.8359 8.832-13.703 20.578-13.703 33.07 0 9.2266 2.1797 18.465 6.3047 26.707 7.6953 15.391 11.762 32.617 11.762 49.816 0 14.234-2.6797 28.152-7.9688 41.367l-4.9922 12.484c-3.3789 8.4492-5.0977 17.348-5.1055 26.449-0.015625 18.984 7.625 36.926 21.512 50.516 13.77 13.477 31.836 20.898 50.867 20.898h72.137c0 6.2344 0.79297 12.289 2.2852 18.066h-75.438zm199.61-18.062c0 29.883-24.309 54.195-54.195 54.195-29.883 0-54.195-24.309-54.195-54.195v-54.195h108.39zm225.8-36.129h-207.74v-18.066h207.74c4.9805 0 9.0312 4.0508 9.0312 9.0312 0 4.9844-4.0508 9.0352-9.0312 9.0352z"/>
  <path d="m259.68 343.23c14.941 0 27.098-12.156 27.098-27.098s-12.156-27.098-27.098-27.098c-14.941 0-27.098 12.156-27.098 27.098 0.003906 14.941 12.16 27.098 27.098 27.098zm0-36.129c4.9805 0 9.0312 4.0508 9.0312 9.0312 0 4.9805-4.0508 9.0312-9.0312 9.0312s-9.0312-4.0508-9.0312-9.0312c0-4.9805 4.0547-9.0312 9.0312-9.0312z"/>
  <use x="70" y="576.933594" xlink:href="#u"/>
  <use x="74.144531" y="576.933594" xlink:href="#c"/>
  <use x="76.925781" y="576.933594" xlink:href="#a"/>
  <use x="80.757812" y="576.933594" xlink:href="#f"/>
  <use x="84.566406" y="576.933594" xlink:href="#b"/>
  <use x="87.265625" y="576.933594" xlink:href="#a"/>
  <use x="91.09375" y="576.933594" xlink:href="#k"/>
  <use x="97.097656" y="576.933594" xlink:href="#j"/>
  <use x="101.140625" y="576.933594" xlink:href="#e"/>
  <use x="106.785156" y="576.933594" xlink:href="#i"/>
  <use x="110.640625" y="576.933594" xlink:href="#h"/>
  <use x="114.660156" y="576.933594" xlink:href="#g"/>
  <use x="118.007812" y="576.933594" xlink:href="#f"/>
  <use x="121.816406" y="576.933594" xlink:href="#t"/>
  <use x="123.75" y="576.933594" xlink:href="#e"/>
  <use x="127.429688" y="576.933594" xlink:href="#s"/>
  <use x="70" y="582.582031" xlink:href="#r"/>
  <use x="72.457031" y="582.582031" xlink:href="#c"/>
  <use x="75.242187" y="582.582031" xlink:href="#d"/>
  <use x="79.117188" y="582.582031" xlink:href="#q"/>
  <use x="86.964844" y="582.582031" xlink:href="#b"/>
  <use x="89.664062" y="582.582031" xlink:href="#p"/>
  <use x="93.683594" y="582.582031" xlink:href="#a"/>
  <use x="99.476562" y="582.582031" xlink:href="#o"/>
  <use x="104.203125" y="582.582031" xlink:href="#d"/>
  <use x="108.082031" y="582.582031" xlink:href="#h"/>
  <use x="112.097656" y="582.582031" xlink:href="#n"/>
  <use x="118.082031" y="582.582031" xlink:href="#m"/>
  <use x="122.222656" y="582.582031" xlink:href="#c"/>
  <use x="125.003906" y="582.582031" xlink:href="#d"/>
  <use x="128.882812" y="582.582031" xlink:href="#l"/>
  <use x="130.816406" y="582.582031" xlink:href="#a"/>
  <use x="134.648438" y="582.582031" xlink:href="#g"/>
  <use x="137.992188" y="582.582031" xlink:href="#b"/>
 </g>
</svg>
