<?xml version="1.0" encoding="UTF-8"?>
<svg width="700pt" height="700pt" version="1.1" viewBox="0 0 700 700" xmlns="http://www.w3.org/2000/svg" xmlns:xlink="http://www.w3.org/1999/xlink">
 <defs>
  <symbol id="o" overflow="visible">
   <path d="m29.766-1.7812c-1.5312 0.80469-3.1328 1.4023-4.7969 1.7969-1.6562 0.40625-3.3906 0.60938-5.2031 0.60938-5.3984 0-9.6719-1.5039-12.828-4.5156-3.1484-3.0195-4.7188-7.1133-4.7188-12.281 0-5.1758 1.5703-9.2695 4.7188-12.281 3.1562-3.0195 7.4297-4.5312 12.828-4.5312 1.8125 0 3.5469 0.20312 5.2031 0.60938 1.6641 0.40625 3.2656 1.0078 4.7969 1.7969v6.7031c-1.543-1.0508-3.0703-1.8203-4.5781-2.3125-1.5-0.48828-3.0859-0.73438-4.75-0.73438-2.9805 0-5.3242 0.95312-7.0312 2.8594-1.7109 1.9062-2.5625 4.5391-2.5625 7.8906 0 3.3438 0.85156 5.9766 2.5625 7.8906 1.707 1.9062 4.0508 2.8594 7.0312 2.8594 1.6641 0 3.25-0.24219 4.75-0.73438 1.5078-0.5 3.0352-1.2734 4.5781-2.3281z"/>
  </symbol>
  <symbol id="b" overflow="visible">
   <path d="m21.781-17.688c-0.67969-0.3125-1.3555-0.53906-2.0312-0.6875-0.66797-0.15625-1.3398-0.23438-2.0156-0.23438-2 0-3.543 0.64062-4.625 1.9219-1.0742 1.2734-1.6094 3.1016-1.6094 5.4844v11.203h-7.7656v-24.297h7.7656v3.9844c1-1.5938 2.1445-2.7539 3.4375-3.4844 1.2891-0.72656 2.8438-1.0938 4.6562-1.0938 0.25781 0 0.53906 0.011719 0.84375 0.03125 0.30078 0.023437 0.74219 0.070313 1.3281 0.14062z"/>
  </symbol>
  <symbol id="c" overflow="visible">
   <path d="m27.984-12.219v2.2188h-18.156c0.1875 1.8242 0.84375 3.1953 1.9688 4.1094 1.1328 0.90625 2.7109 1.3594 4.7344 1.3594 1.6328 0 3.3047-0.23828 5.0156-0.71875 1.7188-0.48828 3.4844-1.2266 5.2969-2.2188v6c-1.8438 0.6875-3.6836 1.2109-5.5156 1.5625-1.8359 0.35156-3.6719 0.53125-5.5156 0.53125-4.3984 0-7.8125-1.1133-10.25-3.3438-2.4375-2.2383-3.6562-5.375-3.6562-9.4062 0-3.9688 1.1953-7.0859 3.5938-9.3594 2.3945-2.2695 5.6914-3.4062 9.8906-3.4062 3.8125 0 6.8633 1.1523 9.1562 3.4531 2.2891 2.3047 3.4375 5.375 3.4375 9.2188zm-7.9844-2.5781c0-1.4766-0.43359-2.6641-1.2969-3.5625-0.85547-0.90625-1.9766-1.3594-3.3594-1.3594-1.5117 0-2.7344 0.42188-3.6719 1.2656s-1.5234 2.0625-1.75 3.6562z"/>
  </symbol>
  <symbol id="a" overflow="visible">
   <path d="m14.625-10.938c-1.625 0-2.8438 0.27734-3.6562 0.82812-0.8125 0.55469-1.2188 1.3594-1.2188 2.4219 0 0.99219 0.32812 1.7656 0.98438 2.3281 0.65625 0.55469 1.5664 0.82812 2.7344 0.82812 1.4688 0 2.6953-0.52344 3.6875-1.5781 1-1.0508 1.5-2.3633 1.5-3.9375v-0.89062zm11.875-2.9219v13.859h-7.8438v-3.6094c-1.043 1.4805-2.2148 2.5586-3.5156 3.2344-1.3047 0.66406-2.8867 1-4.75 1-2.5117 0-4.5547-0.73438-6.125-2.2031-1.5742-1.4688-2.3594-3.375-2.3594-5.7188 0-2.8438 0.97656-4.9297 2.9375-6.2656 1.9688-1.332 5.0469-2 9.2344-2h4.5781v-0.60938c0-1.2266-0.48438-2.125-1.4531-2.6875-0.96875-0.57031-2.4805-0.85938-4.5312-0.85938-1.668 0-3.2188 0.16797-4.6562 0.5-1.4297 0.33594-2.7578 0.82812-3.9844 1.4844v-5.9219c1.6641-0.40625 3.3359-0.71094 5.0156-0.92188 1.6758-0.20703 3.3516-0.3125 5.0312-0.3125 4.3828 0 7.5508 0.86719 9.5 2.5938 1.9453 1.7305 2.9219 4.543 2.9219 8.4375z"/>
  </symbol>
  <symbol id="h" overflow="visible">
   <path d="m12.219-31.203v6.9062h8v5.5469h-8v10.312c0 1.125 0.22266 1.8867 0.67188 2.2812 0.44531 0.39844 1.3359 0.59375 2.6719 0.59375h3.9844v5.5625h-6.6562c-3.0742 0-5.25-0.64062-6.5312-1.9219-1.2734-1.2812-1.9062-3.4531-1.9062-6.5156v-10.312h-3.875v-5.5469h3.875v-6.9062z"/>
  </symbol>
  <symbol id="g" overflow="visible">
   <path d="m20.266-20.75v-13.016h7.8125v33.766h-7.8125v-3.5156c-1.0742 1.4375-2.2578 2.4922-3.5469 3.1562-1.2812 0.65625-2.7656 0.98438-4.4531 0.98438-3 0-5.4648-1.1875-7.3906-3.5625-1.918-2.3828-2.875-5.4453-2.875-9.1875 0-3.75 0.95703-6.8125 2.875-9.1875 1.9258-2.3828 4.3906-3.5781 7.3906-3.5781 1.6758 0 3.1602 0.33984 4.4531 1.0156 1.2891 0.66797 2.4727 1.7109 3.5469 3.125zm-5.125 15.734c1.6641 0 2.9375-0.60156 3.8125-1.8125 0.875-1.2188 1.3125-2.9844 1.3125-5.2969s-0.4375-4.0781-1.3125-5.2969-2.1484-1.8281-3.8125-1.8281c-1.6484 0-2.9062 0.60938-3.7812 1.8281s-1.3125 2.9844-1.3125 5.2969 0.4375 4.0781 1.3125 5.2969c0.875 1.2109 2.1328 1.8125 3.7812 1.8125z"/>
  </symbol>
  <symbol id="f" overflow="visible">
   <path d="m16.672-5.0156c1.6562 0 2.9219-0.60156 3.7969-1.8125 0.875-1.2188 1.3125-2.9844 1.3125-5.2969s-0.4375-4.0781-1.3125-5.2969-2.1406-1.8281-3.7969-1.8281c-1.668 0-2.9492 0.61719-3.8438 1.8438-0.88672 1.2188-1.3281 2.9805-1.3281 5.2812 0 2.3047 0.44141 4.0625 1.3281 5.2812 0.89453 1.2188 2.1758 1.8281 3.8438 1.8281zm-5.1719-15.734c1.0703-1.4141 2.2578-2.457 3.5625-3.125 1.3008-0.67578 2.7969-1.0156 4.4844-1.0156 3 0 5.457 1.1953 7.375 3.5781 1.9258 2.375 2.8906 5.4375 2.8906 9.1875 0 3.7422-0.96484 6.8047-2.8906 9.1875-1.918 2.375-4.375 3.5625-7.375 3.5625-1.6875 0-3.1836-0.33594-4.4844-1-1.3047-0.67578-2.4922-1.7227-3.5625-3.1406v3.5156h-7.7656v-33.766h7.7656z"/>
  </symbol>
  <symbol id="e" overflow="visible">
   <path d="m0.54688-24.297h7.7656l6.5312 16.484 5.5469-16.484h7.7656l-10.219 26.594c-1.0234 2.707-2.2188 4.5977-3.5938 5.6719-1.3672 1.082-3.168 1.625-5.4062 1.625h-4.4844v-5.1094h2.4219c1.3203 0 2.2812-0.21094 2.875-0.625 0.60156-0.41797 1.0703-1.168 1.4062-2.25l0.21875-0.67188z"/>
  </symbol>
  <symbol id="d" overflow="visible">
   <path d="m4.0781-32.391h8.3594v29.25c0 4.0312-1.1016 7.0391-3.2969 9.0312-2.1875 2-5.5 3-9.9375 3h-1.7031v-6.3125h1.3125c1.7266 0 3.0352-0.48438 3.9219-1.4531 0.89453-0.96875 1.3438-2.3906 1.3438-4.2656z"/>
  </symbol>
  <symbol id="n" overflow="visible">
   <path d="m3.7344-24.297h7.7656v23.859c0 3.2578-0.78125 5.7422-2.3438 7.4531-1.5625 1.7188-3.8281 2.5781-6.7969 2.5781h-3.8281v-5.1094h1.3438c1.4688 0 2.4766-0.33594 3.0312-1 0.55078-0.65625 0.82812-1.9648 0.82812-3.9219zm0-9.4688h7.7656v6.3438h-7.7656z"/>
  </symbol>
  <symbol id="m" overflow="visible">
   <path d="m28.156-14.797v14.797h-7.7969v-11.328c0-2.0938-0.046875-3.5352-0.14062-4.3281-0.09375-0.80078-0.26172-1.3906-0.5-1.7656-0.30469-0.50781-0.71484-0.90625-1.2344-1.1875-0.52344-0.28125-1.1172-0.42188-1.7812-0.42188-1.6172 0-2.8867 0.625-3.8125 1.875-0.92969 1.25-1.3906 2.9844-1.3906 5.2031v11.953h-7.7656v-24.297h7.7656v3.5469c1.1641-1.4141 2.4062-2.457 3.7188-3.125 1.3203-0.67578 2.7812-1.0156 4.375-1.0156 2.8008 0 4.9258 0.86719 6.375 2.5938 1.457 1.7188 2.1875 4.2188 2.1875 7.5z"/>
  </symbol>
  <symbol id="l" overflow="visible">
   <path d="m20.266-4.125c-1.0742 1.418-2.2578 2.4609-3.5469 3.125-1.2812 0.66797-2.7656 1-4.4531 1-2.9688 0-5.4219-1.1641-7.3594-3.5-1.9375-2.3438-2.9062-5.3203-2.9062-8.9375 0-3.625 0.96875-6.5977 2.9062-8.9219 1.9375-2.3203 4.3906-3.4844 7.3594-3.4844 1.6875 0 3.1719 0.33594 4.4531 1 1.2891 0.66797 2.4727 1.7148 3.5469 3.1406v-3.5938h7.8125v21.844c0 3.9062-1.2344 6.8906-3.7031 8.9531s-6.0469 3.0938-10.734 3.0938c-1.5117 0-2.9805-0.12109-4.4062-0.35938-1.418-0.23047-2.8398-0.57812-4.2656-1.0469v-6.0625c1.3633 0.78125 2.6953 1.3633 4 1.75 1.3008 0.38281 2.6094 0.57812 3.9219 0.57812 2.5391 0 4.4062-0.55859 5.5938-1.6719 1.1875-1.1172 1.7812-2.8594 1.7812-5.2344zm-5.125-15.125c-1.6055 0-2.8555 0.59375-3.75 1.7812-0.89844 1.1875-1.3438 2.8672-1.3438 5.0312 0 2.2305 0.42969 3.9219 1.2969 5.0781 0.875 1.1484 2.1406 1.7188 3.7969 1.7188 1.625 0 2.8828-0.59375 3.7812-1.7812 0.89453-1.1875 1.3438-2.8594 1.3438-5.0156 0-2.1641-0.44922-3.8438-1.3438-5.0312-0.89844-1.1875-2.1562-1.7812-3.7812-1.7812z"/>
  </symbol>
  <symbol id="k" overflow="visible">
   <path d="m4.0781-32.391h9.3281l11.781 22.219v-22.219h7.9219v32.391h-9.3281l-11.781-22.219v22.219h-7.9219z"/>
  </symbol>
  <symbol id="j" overflow="visible">
   <path d="m3.4688-9.4531v-14.844h7.8125v2.4219c0 1.3242-0.011719 2.9805-0.03125 4.9688-0.011719 1.9805-0.015625 3.3047-0.015625 3.9688 0 1.9609 0.050781 3.3711 0.15625 4.2344 0.10156 0.85547 0.27344 1.4805 0.51562 1.875 0.32031 0.5 0.73828 0.89062 1.25 1.1719 0.51953 0.27344 1.1094 0.40625 1.7656 0.40625 1.625 0 2.8984-0.61719 3.8281-1.8594 0.92578-1.25 1.3906-2.9766 1.3906-5.1875v-12h7.7656v24.297h-7.7656v-3.5156c-1.1797 1.418-2.4219 2.4648-3.7344 3.1406-1.3047 0.66406-2.7461 1-4.3281 1-2.8047 0-4.9375-0.85938-6.4062-2.5781s-2.2031-4.2188-2.2031-7.5z"/>
  </symbol>
  <symbol id="i" overflow="visible">
   <path d="m28.156-14.797v14.797h-7.7969v-11.281c0-2.125-0.046875-3.582-0.14062-4.375-0.09375-0.80078-0.26172-1.3906-0.5-1.7656-0.30469-0.50781-0.71484-0.90625-1.2344-1.1875-0.52344-0.28125-1.1172-0.42188-1.7812-0.42188-1.6172 0-2.8867 0.625-3.8125 1.875-0.92969 1.25-1.3906 2.9844-1.3906 5.2031v11.953h-7.7656v-33.766h7.7656v13.016c1.1641-1.4141 2.4062-2.457 3.7188-3.125 1.3203-0.67578 2.7812-1.0156 4.375-1.0156 2.8008 0 4.9258 0.86719 6.375 2.5938 1.457 1.7188 2.1875 4.2188 2.1875 7.5z"/>
  </symbol>
 </defs>
 <g>
  <path d="m346.57 242.59-7.8047-7.7969 6.2852-6.2852 7.8047 7.7969zm-113.98 11.918 7.8008 7.8047 6.2852-6.2852-7.8008-7.8047zm25.766-42.344c-2.1484-0.050781-4.2578-0.62109-6.1367-1.6641-7.1797-4.2227-12.238-11.281-13.926-19.438-0.99219-3.8945 0.35156-8.0117 3.4492-10.574 5.3984-3.8789 13.875-0.35547 20.141 8.375h0.003906l-0.003906 0.003906c2.457 3.3125 4.1289 7.1367 4.9023 11.188 0.98828 3.8945-0.35547 8.0117-3.4531 10.574-1.4531 1.0234-3.1953 1.5625-4.9766 1.5352zm0.050781-8.8789c-0.36719-3.3711-1.668-6.5703-3.7539-9.2461-1.7383-2.9844-4.5391-5.207-7.8477-6.2148l-0.14062 0.007813 0.003906 0.003906c0.36719 3.3711 1.668 6.5703 3.7539 9.2422 3.4258 4.7852 7.0586 6.4414 7.9844 6.207zm-14.711 112.17c1.3906 3.0742 1.4961 6.582 0.29688 9.7383-1.1992 3.1562-3.6055 5.707-6.6914 7.082-1.043 0.35937-2.1367 0.54687-3.2383 0.54687-5.7344-0.41016-10.586-4.3867-12.117-9.9297-1.1172-3.1523-1.1953-6.5781-0.21875-9.7734 0.96484-3.2656 3.418-5.8828 6.6172-7.0508 6.8281-1.6484 13.703 2.5547 15.352 9.3867zm-8.4102 2.8828c-0.86719-2.543-2.6719-3.8984-3.7422-3.8984-0.11328-0.003906-0.22266 0.015625-0.32812 0.050781-0.59375 0.19922-0.92578 1.0312-1.0391 1.3789h0.003906c-0.375 1.3672-0.31641 2.8125 0.17578 4.1406 0.96484 2.8281 3.1172 4.2031 4.0703 3.8555 0.97656-0.33203 1.8203-2.707 0.85547-5.5312zm45.145-57.004-0.003906-0.003906c-0.67578-6.6328 4.1406-12.559 10.77-13.254 3.0703-0.6875 6.2773-0.41797 9.1914 0.76953 3.0312 1.1992 5.2852 3.8008 6.0352 6.9727 0.67969 6.6328-4.1406 12.562-10.77 13.254-1.1445 0.24219-2.3125 0.36719-3.4805 0.36719-5.3477 0.4375-10.262-2.957-11.746-8.1094zm8.6992-1.8398c0.085938 0.43359 1.957 1.4648 4.6875 0.88672 2.7266-0.58203 4.0117-2.2812 3.9141-2.7188-0.019531-0.09375-0.26953-0.39062-0.875-0.65234l-0.007813-0.003906c-1.2109-0.46875-2.543-0.55078-3.8047-0.23438-2.7305 0.58203-4.0117 2.2852-3.918 2.7188zm-74.887 3.75-0.003906-0.003907c-0.23438 4.5586-2.207 8.8555-5.5117 12.004-3.3047 3.1484-7.6953 4.9062-12.258 4.9141-0.30078 0-0.59375-0.007812-0.89453-0.027344-8.2773-0.40625-25.871-13.031-29.312-15.555l-5.4258-3.9844 5.793-3.4297c3.6758-2.1719 22.438-13.02 30.711-12.578h0.003906c4.7109 0.24219 9.1367 2.3398 12.301 5.8359 3.168 3.4961 4.8203 8.1094 4.5898 12.82zm-8.8789-0.43359-0.007813-0.003906c0.24609-4.918-3.543-9.1016-8.457-9.3477h-0.003906c-6.8945 1.7188-13.516 4.3945-19.668 7.9492 5.6719 4.3047 12.023 7.6328 18.789 9.8516 4.8633 0.10547 8.9648-3.6055 9.3398-8.4531zm68.078 39.914 6.2852-6.2852-7.8008-7.7969-6.2852 6.2852zm-78.656 7.8047 7.8008 7.8047 6.2852-6.2852-7.8008-7.8047zm114.3-106.51-7.8008-7.8047-6.2852 6.2852 7.8008 7.8047zm-94.367 2.707-6.2852 6.2852 7.8008 7.8047 6.2852-6.2852zm115.1 134.07c2.0469 3.5547 2.0469 7.9297-0.003906 11.484-2.0469 3.5547-5.832 5.7461-9.9336 5.7578-1.0078-0.003906-2.0156-0.13281-2.9922-0.39062-3.707-0.99609-6.6719-3.7734-7.9062-7.4102-1.2344-3.6328-0.57422-7.6445 1.7656-10.691 2.3359-3.0469 6.0391-4.7227 9.8711-4.4727 3.8281 0.25391 7.2812 2.3984 9.1992 5.7227zm-7.4375 6.4219v0.003906c0.17969-0.66797 0.085938-1.3789-0.26172-1.9805-0.33984-0.59766-0.91016-1.0312-1.5781-1.207-1.0156-0.27344-2.0977 0.089844-2.7422 0.92578-0.64062 0.83594-0.71484 1.9766-0.1875 2.8867 0.34375 0.59766 0.91016 1.0352 1.5781 1.207 0.66797 0.17578 1.3789 0.082031 1.9766-0.26172 0.59766-0.33984 1.0352-0.90625 1.2148-1.5703zm153.31-136.57 2.8555 10.652 8.5859-2.3086-2.8555-10.652zm-28.832-8.6133 8.4062 7.1445 5.7539-6.7695-8.4062-7.1445zm63.836 46.266v0.003906c-1.7383 1.0117-3.7148 1.543-5.7305 1.543-1.0078 0-2.0117-0.13281-2.9883-0.39062-5.3047-1.4141-8.8711-6.3789-8.5156-11.855 0.35156-5.4805 4.5273-9.9453 9.9688-10.664s10.637 2.5039 12.402 7.7031c1.7656 5.1953-0.38281 10.918-5.1367 13.664zm-3.2305-9.2695c0.17969-0.66797 0.085938-1.3789-0.26172-1.9766-0.52734-0.91016-1.5508-1.4102-2.5898-1.2734-1.043 0.13672-1.9023 0.88281-2.1797 1.8984v0.007812c-0.36328 1.3867 0.46094 2.8086 1.8477 3.1758 1.3828 0.37109 2.8086-0.44531 3.1836-1.8281zm69.199 54.117c0.011719 5.8711-2.3203 11.508-6.4844 15.648l-119.61 119.61c-3.8711 3.8594-9.0273 6.1562-14.484 6.4453-5.457 0.28906-10.828-1.4453-15.082-4.8711-6.5742 2.4531-13.922 1.6367-19.793-2.207-5.8672-3.8438-9.5586-10.25-9.9336-17.258-5.4336-0.29688-10.566-2.5898-14.414-6.4375-3.8438-3.8477-6.1367-8.9805-6.4336-14.41-4.9688-0.27344-9.6992-2.2148-13.426-5.5117-3.7305-3.293-6.2344-7.7539-7.1133-12.648-1.8516 0.94531-4.0312 1.0195-5.9453 0.20312-3.4023 2.4414-7.4258 3.8633-11.602 4.1016-0.29688 5.4336-2.5898 10.566-6.4375 14.414-3.8477 3.8477-8.9805 6.1406-14.414 6.4375-0.42578 7.7734-4.918 14.746-11.816 18.352-6.8984 3.6055-15.188 3.3125-21.816-0.77344-3.6914 2.6445-8.1211 4.0586-12.664 4.043-5.9141 0.007813-11.59-2.3359-15.773-6.5195l-119.61-119.61c-3.8633-3.8633-6.1602-9.0195-6.4531-14.477-0.28906-5.457 1.4492-10.828 4.8828-15.078-2.4531-6.5703-1.6367-13.918 2.2031-19.789 3.8438-5.8672 10.246-9.5625 17.25-9.9414 0.30078-5.4336 2.5938-10.562 6.4414-14.41s8.9766-6.1406 14.41-6.4414c0.29688-5.4336 2.5898-10.562 6.4375-14.41 3.8477-3.8438 8.9805-6.1367 14.414-6.4336 0.29688-5.4336 2.5859-10.566 6.4336-14.414 3.8477-3.8477 8.9805-6.1406 14.414-6.4336 0.29688-5.4336 2.5898-10.566 6.4375-14.414 3.8477-3.8516 8.9805-6.1406 14.414-6.4375 0.37891-7.0078 4.0664-13.414 9.9336-17.258 5.8711-3.8398 13.219-4.6602 19.789-2.2031 4.3008-3.3281 9.6484-5 15.078-4.7109 5.4258 0.28906 10.57 2.5156 14.492 6.2812l67.922 67.922 51.285-51.281h0.003907c3.6914-3.6836 8.5625-5.9453 13.754-6.3945 5.1953-0.44922 10.383 0.94922 14.648 3.9453 6.625-4.1055 14.922-4.418 21.836-0.8125 6.9102 3.6016 11.41 10.582 11.836 18.363 5.4336 0.30078 10.566 2.5938 14.414 6.4414 3.8438 3.8477 6.1367 8.9766 6.4375 14.41 5.4336 0.29688 10.562 2.5898 14.41 6.4375s6.1406 8.9805 6.4375 14.414c5.4336 0.29688 10.562 2.5898 14.414 6.4375 3.8477 3.8477 6.1367 8.9805 6.4336 14.414 5.4336 0.29688 10.566 2.5859 14.414 6.4336 3.8477 3.8477 6.1406 8.9805 6.4375 14.414 7.7812 0.42188 14.762 4.918 18.363 11.824 3.6055 6.9062 3.3008 15.199-0.80078 21.824 2.6367 3.7344 4.0469 8.1953 4.0273 12.77zm-189.76-79.977 6.2852 6.2852 7.8047-7.8047-6.2852-6.2852zm-134.01 145.75c3.8438-3.8516 8.9766-6.1484 14.41-6.4375 0.30078-5.4336 2.5938-10.562 6.4414-14.41 3.8477-3.8477 8.9766-6.1367 14.41-6.4336 0.29688-5.4336 2.5859-10.566 6.4336-14.414 3.8477-3.8477 8.9805-6.1406 14.414-6.4375 0.29688-5.4336 2.5859-10.566 6.4336-14.414 3.8477-3.8477 8.9805-6.1406 14.414-6.4375 0.29688-5.4336 2.5898-10.566 6.4375-14.414 3.8477-3.8477 8.9805-6.1367 14.414-6.4336 0.25-4.2617 1.7305-8.3594 4.2656-11.793l-0.35156-0.35156 7.8008-7.8047 1.2344 1.2344c5.2812-2.4336 11.305-2.7031 16.777-0.75 3.1055-2.4961 6.8281-4.1055 10.773-4.6523l-107.1-107.1c-5.1758-5.168-13.559-5.168-18.734 0l-2.3711 2.6055-3.4141-1.2773h-0.003906c-4.5-2.5352-10.066-2.207-14.238 0.84375s-6.1719 8.2539-5.1211 13.312l1.3359 6.5703-6.5703-1.3281c-4.3555-0.89844-8.875 0.45313-12.02 3.5977-3.1445 3.1484-4.4961 7.6641-3.5938 12.02l1.3242 6.5625-6.5625-1.3281c-4.3555-0.89844-8.8711 0.45312-12.02 3.5977-3.1445 3.1445-4.4922 7.6641-3.5938 12.02l1.3242 6.5625-6.5625-1.3281c-4.3555-0.90234-8.8711 0.45312-12.016 3.5977-3.1445 3.1445-4.4961 7.6602-3.5938 12.02l1.3281 6.5703-6.5742-1.3359h-0.003906c-4.3516-0.89844-8.8633 0.44922-12.004 3.5938-3.1445 3.1406-4.4961 7.6523-3.5977 12.004l1.3281 6.5703-6.5664-1.3281c-5.0586-1.0469-10.266 0.95703-13.312 5.125-3.0508 4.1719-3.3789 9.7383-0.84766 14.242l1.6875 3.0469-2.5469 2.3711-3.2969-3.0391 2.6094 3.6016c-4.9648 5.2148-4.8672 13.438 0.21875 18.531l107.11 107.11c0.54297-3.9453 2.1484-7.668 4.6484-10.766-1.4609-3.9609-1.7617-8.2578-0.86719-12.383s2.9453-7.9102 5.9141-10.91zm150.12-58.375c4.9453-4.9727 5.1406-12.941 0.44922-18.152l-2.8047-3.1328 2.9727-2.9766c2.5156-2.4766 3.9414-5.8555 3.9531-9.3867 0.015625-3.5273-1.3789-6.918-3.875-9.418-5.1992-4.9648-13.371-5.0117-18.629-0.10156l-2.2617 2.918-3.6328-1.4844v-0.003906c-4.5-2.5312-10.066-2.1992-14.234 0.85156-4.168 3.0469-6.1719 8.25-5.1211 13.309l1.3281 6.5703-6.5664-1.3281c-4.3555-0.90234-8.875 0.44922-12.02 3.5977-3.1484 3.1445-4.4961 7.6641-3.5938 12.02l1.3242 6.5625-6.5625-1.3281c-4.3555-0.89844-8.8711 0.45312-12.02 3.5977-3.1445 3.1445-4.4922 7.6641-3.5938 12.02l1.3281 6.5625-6.5664-1.3281c-4.3555-0.90234-8.8711 0.44922-12.016 3.5977-3.1445 3.1445-4.4961 7.6641-3.5938 12.02l1.3281 6.5625-6.5664-1.3281h-0.003906c-4.3555-0.89844-8.8711 0.45312-12.016 3.5977s-4.4922 7.6602-3.5938 12.016l1.3281 6.5703-6.5742-1.3359h-0.003906c-4.3477-0.91406-8.8672 0.4375-12 3.5938-4.1367 4.1953-5.0117 10.617-2.1484 15.766l1.6914 3.0469-2.5508 2.3711-3.2969-3.0391 2.6094 3.6016c-4.9648 5.2148-4.8672 13.438 0.21875 18.535 5.2422 5.0039 13.496 5.0039 18.738 0l2.9375-2.3516 3.2305 2.1094v-0.003906c4.2305 3.8242 10.441 4.4922 15.395 1.6602 4.9492-2.8359 7.5156-8.5312 6.3633-14.117l-1.3359-6.5703 6.5703 1.3281c4.3555 0.90234 8.8711-0.44531 12.016-3.5898s4.4961-7.6602 3.5938-12.016l-1.3281-6.5703 6.5664 1.3281 0.003907-0.003906c4.3555 0.90234 8.8711-0.44922 12.02-3.5938 3.1445-3.1484 4.4961-7.6641 3.5898-12.02l-1.3242-6.5625 6.5625 1.3281c4.3555 0.89844 8.875-0.45312 12.02-3.5977 3.1445-3.1484 4.4961-7.6641 3.5938-12.02l-1.3242-6.5625 6.5625 1.3281c4.3555 0.89844 8.875-0.45313 12.02-3.5977 3.1445-3.1484 4.4961-7.6641 3.5938-12.02l-1.3281-6.5625 6.5664 1.3281c4.3555 0.89844 8.8672-0.45312 12.012-3.5938zm3.6055 18.801 6.2852 6.2852 7.8008-7.8047-6.2852-6.2852zm31.91 43.309h0.003907c0.30859-6.3477-2.7891-12.379-8.1289-15.824-5.3398-3.4453-12.109-3.7852-17.766-0.88672-5.6562 2.8945-9.3398 8.5859-9.668 14.93v0.007812c-0.40625 8.2812 10.418 27.039 12.59 30.719l3.4258 5.7891 3.9844-5.4258c2.5273-3.4414 15.148-21.027 15.562-29.309zm6.0781-109.62c-0.61328-3.0859-2.1641-5.9062-4.4336-8.082-2.2812-2.3516-5.6133-3.3711-8.8164-2.6914-3.207 0.67969-5.8398 2.957-6.9688 6.0352-1.1562 2.918-1.4258 6.1172-0.77344 9.1875 0.64844 3.0742 2.1953 5.8867 4.4336 8.0859 1.875 1.8047 4.3633 2.8359 6.9648 2.8828 0.62109 0 1.2461-0.066406 1.8555-0.19141 6.3359-2.0742 9.7969-8.8867 7.7383-15.227zm16.512 31.754-6.2852-6.2852-7.8047 7.793 6.2852 6.2852zm15.598 70.852-6.2852-6.2852-7.8008 7.8047 6.2852 6.2852zm13.957-34.723h0.003906c-2.8789-6.4141-10.41-9.2773-16.82-6.3984l-0.007813 0.007812c-3.2852 0.78906-6.1172 2.8516-7.8789 5.7305-1.7617 2.8828-2.3008 6.3438-1.5039 9.625 1.832 4.6562 6.4492 7.6055 11.445 7.3086 1.832-0.007812 3.6484-0.31641 5.3789-0.91797 3.2852-0.78906 6.1211-2.8516 7.8789-5.7305 1.7617-2.8828 2.3047-6.3477 1.5078-9.625zm77.094-27.77c0.011718-3.5156-1.3867-6.8906-3.8789-9.3672l-2.9766-2.9688 2.7344-3.2031h-0.003906c3.8281-4.2344 4.4961-10.449 1.6602-15.398-2.8359-4.9531-8.5352-7.5156-14.125-6.3555l-6.5703 1.3281 1.332-6.5703c0.89844-4.3555-0.44922-8.8711-3.5938-12.012-3.1445-3.1445-7.6602-4.4961-12.012-3.5977l-6.5664 1.3281 1.3281-6.5625c0.89844-4.3555-0.45312-8.8711-3.5977-12.016-3.1445-3.1445-7.6602-4.5-12.016-3.6016l-6.5664 1.3281 1.3281-6.5625c0.89844-4.3555-0.45312-8.8711-3.5977-12.016s-7.6602-4.4961-12.016-3.5977l-6.5664 1.3281 1.3281-6.5703v-0.003906c0.89844-4.3516-0.45312-8.8672-3.5977-12.012-3.1445-3.1445-7.6602-4.4961-12.016-3.5938l-6.5664 1.3281 1.3281-6.5703c1.1562-5.5859-1.4102-11.281-6.3594-14.117-4.9492-2.832-11.16-2.1641-15.395 1.6602l-2.5664 2.293-3.8906-2.8477h0.003906c-5.2578-4.9336-13.488-4.7617-18.535 0.37891-5.0508 5.1445-5.0664 13.379-0.039063 18.543l2.9336 2.2578-1.4805 3.6445c-2.5391 4.5-2.2109 10.066 0.83594 14.238 3.0508 4.168 8.2539 6.1719 13.312 5.1211l6.5742-1.3359-1.3281 6.5703c-0.89844 4.3555 0.44922 8.8711 3.5977 12.02 3.1445 3.1445 7.6602 4.4961 12.016 3.5938l6.5703-1.3281-1.332 6.5703v0.003907c-0.89844 4.3516 0.45312 8.8672 3.5977 12.012 3.1445 3.1445 7.6562 4.4922 12.012 3.5938l6.5664-1.3281-1.3281 6.5625c-0.89844 4.3555 0.45312 8.8711 3.5977 12.016 3.1445 3.1484 7.6602 4.5 12.016 3.6016l6.5664-1.3281-1.3281 6.5625c-0.90234 4.3555 0.44922 8.8711 3.5938 12.016s7.6602 4.5 12.016 3.6016l6.5664-1.3281-1.3242 6.5703c-1.0508 5.0586 0.95312 10.266 5.125 13.312s9.7383 3.375 14.238 0.83594l3.0781-1.7109 2.3711 2.6133c3.6797 4.0234 9.4531 5.3672 14.531 3.3906 5.0781-1.9766 8.4219-6.8711 8.4141-12.32zm-47.574-37.109-7.8008 7.8047 6.2852 6.2852 7.8008-7.8047zm-69.105-67.449c-5.0703 2.0859-10.906 0.30469-13.941-4.2617-3.0391-4.5625-2.4297-10.637 1.4492-14.504 3.8828-3.8711 9.957-4.4648 14.512-1.4141 4.5547 3.0508 6.3242 8.8906 4.2227 13.957-1.168 2.8242-3.4141 5.0664-6.2422 6.2227zm-3.3711-13.031c-0.31641-0.13281-0.65625-0.19922-1-0.19922-1.2422-0.003906-2.3125 0.87109-2.5547 2.0898-0.24609 1.2148 0.40625 2.4375 1.5547 2.9102l0.007813 0.007813v0.003906c1.3242 0.53516 2.8359-0.09375 3.3828-1.418 0.54687-1.3203-0.074219-2.8359-1.3906-3.3906zm99.371 110.16v0.003907c-1.3477 5.0156-5.8906 8.5078-11.086 8.5234-1.0117 0-2.0156-0.13281-2.9922-0.39062-4.4922-1.2031-7.8203-4.9922-8.4297-9.6016-0.60938-4.6133 1.6211-9.1367 5.6484-11.465 4.0273-2.3242 9.0586-1.9961 12.75 0.83203 3.6914 2.832 5.3125 7.6055 4.1094 12.102zm-8.5859-2.293v0.003906c0.36328-1.3945-0.46094-2.8203-1.8477-3.2031-0.21875-0.058594-0.44531-0.089844-0.67187-0.085937-1.1758 0.007812-2.1992 0.80078-2.5117 1.9336-0.17969 0.66797-0.085938 1.3828 0.26172 1.9805 0.52734 0.90625 1.5508 1.4062 2.5898 1.2734 1.043-0.13672 1.9023-0.88672 2.1797-1.8984zm-189.47 13.426 6.7695 5.7656 7.1445-8.4023-6.7695-5.7656zm-12.113 23.281 2.3008 8.5938 10.656-2.8555-2.3008-8.5938zm-48.828 40.148 7.8008 7.7969 6.2852-6.2852-7.8008-7.7969zm-2.6797 11.555 0.003906-0.003906c2.0469 3.5547 2.0469 7.9297 0 11.484-2.0508 3.5508-5.8359 5.7461-9.9375 5.7539-1.0078 0-2.0117-0.12891-2.9883-0.39062-3.707-0.99219-6.6758-3.7695-7.9102-7.4023-1.2344-3.6367-0.57422-7.6484 1.7617-10.695 2.3359-3.043 6.0391-4.7227 9.8711-4.4727s7.2812 2.3984 9.2031 5.7227zm-7.4336 6.4219c0.17969-0.66797 0.085937-1.3828-0.25781-1.9805s-0.91797-1.0352-1.5859-1.207c-0.21875-0.0625-0.44922-0.09375-0.67578-0.09375-1.3047 0-2.4102 0.96875-2.5781 2.2617-0.16797 1.293 0.64844 2.5117 1.9102 2.8477 0.66406 0.17969 1.375 0.085938 1.9727-0.25781 0.59766-0.33984 1.0352-0.90625 1.2148-1.5703zm112.89-85.539c-1.7812 4.293-5.9766 7.0859-10.625 7.082s-8.8359-2.8086-10.609-7.1055c-1.7773-4.2969-0.78906-9.2383 2.5039-12.523 3.2891-3.2812 8.2344-4.2617 12.527-2.4805 5.8555 2.4414 8.6328 9.1641 6.2031 15.027zm-8.2109-3.4023c0.55078-1.3359-0.078124-2.8633-1.4102-3.4219-0.3125-0.12891-0.64844-0.19141-0.98828-0.19141-0.34375 0-0.67969 0.066406-0.99609 0.19922-0.64062 0.26172-1.1484 0.76953-1.4102 1.4062-0.26562 0.64062-0.26562 1.3555-0.003906 1.9922 0.26172 0.64062 0.76562 1.1484 1.4062 1.4141 1.3242 0.55469 2.8477-0.074218 3.4023-1.3984z"/>
  <use x="70" y="693.332031" xlink:href="#o"/>
  <use x="102.617187" y="693.332031" xlink:href="#b"/>
  <use x="124.535156" y="693.332031" xlink:href="#c"/>
  <use x="154.679688" y="693.332031" xlink:href="#a"/>
  <use x="184.671875" y="693.332031" xlink:href="#h"/>
  <use x="205.914062" y="693.332031" xlink:href="#c"/>
  <use x="236.058594" y="693.332031" xlink:href="#g"/>
  <use x="283.347656" y="693.332031" xlink:href="#f"/>
  <use x="315.160156" y="693.332031" xlink:href="#e"/>
  <use x="359.605469" y="693.332031" xlink:href="#d"/>
  <use x="376.140625" y="693.332031" xlink:href="#a"/>
  <use x="406.132812" y="693.332031" xlink:href="#n"/>
  <use x="421.367187" y="693.332031" xlink:href="#a"/>
  <use x="451.359375" y="693.332031" xlink:href="#m"/>
  <use x="483" y="693.332031" xlink:href="#l"/>
  <use x="530.285156" y="693.332031" xlink:href="#k"/>
  <use x="567.484375" y="693.332031" xlink:href="#j"/>
  <use x="599.125" y="693.332031" xlink:href="#b"/>
  <use x="621.042969" y="693.332031" xlink:href="#b"/>
  <use x="642.960938" y="693.332031" xlink:href="#a"/>
  <use x="672.953125" y="693.332031" xlink:href="#i"/>
 </g>
</svg>
