<?xml version="1.0" encoding="UTF-8"?>
<svg width="700pt" height="700pt" version="1.1" viewBox="0 0 700 700" xmlns="http://www.w3.org/2000/svg" xmlns:xlink="http://www.w3.org/1999/xlink">
 <defs>
  <symbol id="i" overflow="visible">
   <path d="m3.6562-0.21875c-0.1875 0.09375-0.38672 0.16797-0.59375 0.21875-0.19922 0.050781-0.40625 0.078125-0.625 0.078125-0.66797 0-1.1992-0.17969-1.5938-0.54688-0.38672-0.375-0.57812-0.87891-0.57812-1.5156 0-0.64453 0.19141-1.1484 0.57812-1.5156 0.39453-0.375 0.92578-0.5625 1.5938-0.5625 0.21875 0 0.42578 0.027344 0.625 0.078125 0.20703 0.054687 0.40625 0.125 0.59375 0.21875v0.82812c-0.1875-0.125-0.375-0.21875-0.5625-0.28125-0.17969-0.0625-0.37109-0.09375-0.57812-0.09375-0.36719 0-0.65625 0.12109-0.875 0.35938-0.21094 0.23047-0.3125 0.55469-0.3125 0.96875 0 0.40625 0.10156 0.73047 0.3125 0.96875 0.21875 0.23047 0.50781 0.34375 0.875 0.34375 0.20703 0 0.39844-0.023437 0.57812-0.078125 0.1875-0.0625 0.375-0.16016 0.5625-0.29688z"/>
  </symbol>
  <symbol id="c" overflow="visible">
   <path d="m2.6875-2.1719c-0.085938-0.039063-0.16797-0.070313-0.25-0.09375-0.085938-0.019531-0.16797-0.03125-0.25-0.03125-0.25 0-0.44531 0.085937-0.57812 0.25-0.125 0.15625-0.1875 0.38281-0.1875 0.67188v1.375h-0.96875v-2.9844h0.96875v0.48438c0.11328-0.19531 0.25-0.33594 0.40625-0.42188 0.16406-0.09375 0.35938-0.14062 0.57812-0.14062h0.10938c0.039063 0 0.09375 0.007812 0.15625 0.015625z"/>
  </symbol>
  <symbol id="a" overflow="visible">
   <path d="m3.4375-1.5v0.26562h-2.2344c0.03125 0.23047 0.11328 0.40234 0.25 0.51562 0.13281 0.10547 0.32812 0.15625 0.57812 0.15625 0.20703 0 0.41406-0.023438 0.625-0.078125 0.20703-0.0625 0.42188-0.15625 0.64062-0.28125v0.73438c-0.21875 0.09375-0.44531 0.16406-0.67188 0.20312-0.23047 0.039062-0.45312 0.0625-0.67188 0.0625-0.54297 0-0.96484-0.13281-1.2656-0.40625-0.30469-0.28125-0.45312-0.67188-0.45312-1.1719 0-0.47656 0.14453-0.85938 0.4375-1.1406 0.30078-0.28125 0.70703-0.42188 1.2188-0.42188 0.46875 0 0.84375 0.14062 1.125 0.42188s0.42188 0.66406 0.42188 1.1406zm-0.96875-0.32812c0-0.17578-0.058594-0.31641-0.17188-0.42188-0.10547-0.11328-0.24219-0.17188-0.40625-0.17188-0.1875 0-0.33984 0.054687-0.45312 0.15625-0.11719 0.10547-0.1875 0.25-0.21875 0.4375z"/>
  </symbol>
  <symbol id="g" overflow="visible">
   <path d="m1.7969-1.3438c-0.19922 0-0.35156 0.039062-0.45312 0.10938-0.09375 0.0625-0.14062 0.16406-0.14062 0.29688 0 0.11719 0.035156 0.21094 0.10938 0.28125 0.082031 0.0625 0.19531 0.09375 0.34375 0.09375 0.17578 0 0.32812-0.0625 0.45312-0.1875s0.1875-0.28516 0.1875-0.48438v-0.10938zm1.4688-0.35938v1.7031h-0.96875v-0.4375c-0.125 0.17969-0.27344 0.30859-0.4375 0.39062-0.15625 0.082031-0.35156 0.125-0.57812 0.125-0.3125 0-0.57031-0.085938-0.76562-0.26562-0.1875-0.1875-0.28125-0.42188-0.28125-0.70312 0-0.35156 0.11719-0.61328 0.35938-0.78125 0.23828-0.16406 0.61719-0.25 1.1406-0.25h0.5625v-0.0625c0-0.15625-0.0625-0.26562-0.1875-0.32812-0.11719-0.070312-0.29688-0.10938-0.54688-0.10938-0.21094 0-0.40234 0.023437-0.57812 0.0625-0.17969 0.042969-0.33984 0.10156-0.48438 0.17188v-0.71875c0.19531-0.050781 0.39844-0.085938 0.60938-0.10938 0.20703-0.03125 0.41406-0.046875 0.625-0.046875 0.53906 0 0.92969 0.10938 1.1719 0.32812 0.23828 0.21094 0.35938 0.55469 0.35938 1.0312z"/>
  </symbol>
  <symbol id="b" overflow="visible">
   <path d="m1.5-3.8438v0.85938h0.98438v0.67188h-0.98438v1.2812c0 0.13672 0.023438 0.23047 0.078125 0.28125 0.0625 0.042969 0.17578 0.0625 0.34375 0.0625h0.48438v0.6875h-0.8125c-0.38672 0-0.65625-0.078125-0.8125-0.23438s-0.23438-0.42188-0.23438-0.79688v-1.2812h-0.46875v-0.67188h0.46875v-0.85938z"/>
  </symbol>
  <symbol id="f" overflow="visible">
   <path d="m2.5-2.5469v-1.6094h0.95312v4.1562h-0.95312v-0.4375c-0.13672 0.17969-0.28125 0.30859-0.4375 0.39062-0.15625 0.082031-0.33984 0.125-0.54688 0.125-0.375 0-0.68359-0.14453-0.92188-0.4375-0.23047-0.28906-0.34375-0.67188-0.34375-1.1406 0-0.45703 0.11328-0.83203 0.34375-1.125 0.23828-0.28906 0.54688-0.4375 0.92188-0.4375 0.19531 0 0.375 0.042969 0.53125 0.125 0.16406 0.085938 0.31641 0.21484 0.45312 0.39062zm-0.64062 1.9375c0.20703 0 0.36328-0.070313 0.46875-0.21875 0.11328-0.15625 0.17188-0.37891 0.17188-0.67188 0-0.28125-0.058594-0.49219-0.17188-0.64062-0.10547-0.15625-0.26172-0.23438-0.46875-0.23438-0.19922 0-0.35547 0.078125-0.46875 0.23438-0.10547 0.14844-0.15625 0.35938-0.15625 0.64062 0 0.29297 0.050781 0.51562 0.15625 0.67188 0.11328 0.14844 0.26953 0.21875 0.46875 0.21875z"/>
  </symbol>
  <symbol id="l" overflow="visible">
   <path d="m2.0469-0.60938c0.20703 0 0.36328-0.070313 0.46875-0.21875 0.11328-0.15625 0.17188-0.37891 0.17188-0.67188 0-0.28125-0.058594-0.49219-0.17188-0.64062-0.10547-0.15625-0.26172-0.23438-0.46875-0.23438-0.19922 0-0.35547 0.078125-0.46875 0.23438-0.10547 0.14844-0.15625 0.35938-0.15625 0.64062 0 0.29297 0.050781 0.51562 0.15625 0.67188 0.11328 0.14844 0.26953 0.21875 0.46875 0.21875zm-0.625-1.9375c0.125-0.17578 0.26562-0.30469 0.42188-0.39062 0.16406-0.082031 0.35156-0.125 0.5625-0.125 0.36328 0 0.66406 0.14844 0.90625 0.4375 0.23828 0.29297 0.35938 0.66797 0.35938 1.125 0 0.46875-0.12109 0.85156-0.35938 1.1406-0.24219 0.29297-0.54297 0.4375-0.90625 0.4375-0.21094 0-0.39844-0.042969-0.5625-0.125-0.15625-0.082031-0.29688-0.21094-0.42188-0.39062v0.4375h-0.96875v-4.1562h0.96875z"/>
  </symbol>
  <symbol id="k" overflow="visible">
   <path d="m0.0625-2.9844h0.95312l0.8125 2.0156 0.6875-2.0156h0.95312l-1.2656 3.2656c-0.125 0.33203-0.27344 0.56641-0.4375 0.70312-0.16797 0.13281-0.39062 0.20312-0.67188 0.20312h-0.54688v-0.64062h0.29688c0.16406 0 0.28516-0.027344 0.35938-0.078125 0.070313-0.054688 0.12891-0.14062 0.17188-0.26562l0.03125-0.09375z"/>
  </symbol>
  <symbol id="j" overflow="visible">
   <path d="m2.9219-0.71875h-1.6094l-0.25 0.71875h-1.0312l1.4688-3.9844h1.2344l1.4688 3.9844h-1.0312zm-1.3594-0.75h1.0938l-0.53125-1.5781z"/>
  </symbol>
  <symbol id="h" overflow="visible">
   <path d="m3.4688-1.8281v1.8281h-0.96875v-1.3906c0-0.25781-0.007812-0.4375-0.015625-0.53125-0.011719-0.10156-0.03125-0.17578-0.0625-0.21875-0.03125-0.0625-0.085937-0.10938-0.15625-0.14062-0.0625-0.039062-0.13281-0.0625-0.20312-0.0625-0.21094 0-0.37109 0.078125-0.48438 0.23438-0.10547 0.15625-0.15625 0.37109-0.15625 0.64062v1.4688h-0.96875v-2.9844h0.96875v0.4375c0.13281-0.17578 0.28516-0.30469 0.45312-0.39062 0.16406-0.082031 0.34375-0.125 0.53125-0.125 0.34375 0 0.60156 0.10938 0.78125 0.32812 0.1875 0.21094 0.28125 0.51172 0.28125 0.90625z"/>
  </symbol>
  <symbol id="d" overflow="visible">
   <path d="m0.45312-2.9844h0.96875v2.9844h-0.96875zm0-1.1719h0.96875v0.78125h-0.96875z"/>
  </symbol>
  <symbol id="u" overflow="visible">
   <path d="m0.078125-2.9844h0.95312l0.75 2.0625 0.75-2.0625h0.95312l-1.1719 2.9844h-1.0625z"/>
  </symbol>
  <symbol id="t" overflow="visible">
   <path d="m2.4219-4.1562v0.625h-0.51562c-0.13672 0-0.23438 0.027344-0.29688 0.078125-0.054687 0.054687-0.078125 0.13672-0.078125 0.25v0.21875h0.82812v0.67188h-0.82812v2.3125h-0.95312v-2.3125h-0.46875v-0.67188h0.46875v-0.21875c0-0.32031 0.085937-0.5625 0.26562-0.71875 0.1875-0.15625 0.47266-0.23438 0.85938-0.23438z"/>
  </symbol>
  <symbol id="e" overflow="visible">
   <path d="m1.875-2.375c-0.21094 0-0.37109 0.078125-0.48438 0.23438-0.10547 0.14844-0.15625 0.35938-0.15625 0.64062 0 0.29297 0.050781 0.51562 0.15625 0.67188 0.11328 0.14844 0.27344 0.21875 0.48438 0.21875 0.20703 0 0.36719-0.070313 0.48438-0.21875 0.11328-0.15625 0.17188-0.37891 0.17188-0.67188 0-0.28125-0.058594-0.49219-0.17188-0.64062-0.11719-0.15625-0.27734-0.23438-0.48438-0.23438zm0-0.6875c0.51953 0 0.92188 0.14062 1.2031 0.42188 0.28906 0.27344 0.4375 0.65234 0.4375 1.1406 0 0.5-0.14844 0.89062-0.4375 1.1719-0.28125 0.27344-0.68359 0.40625-1.2031 0.40625-0.51172 0-0.91406-0.13281-1.2031-0.40625-0.29297-0.28125-0.4375-0.67188-0.4375-1.1719 0-0.48828 0.14453-0.86719 0.4375-1.1406 0.28906-0.28125 0.69141-0.42188 1.2031-0.42188z"/>
  </symbol>
  <symbol id="s" overflow="visible">
   <path d="m3.2344-2.5c0.11328-0.17578 0.25391-0.3125 0.42188-0.40625 0.16406-0.10156 0.35156-0.15625 0.5625-0.15625 0.33203 0 0.58594 0.10938 0.76562 0.32812 0.1875 0.21094 0.28125 0.51172 0.28125 0.90625v1.8281h-0.96875v-1.5625c0.007813-0.019531 0.015625-0.039062 0.015625-0.0625v-0.10938c0-0.21875-0.03125-0.375-0.09375-0.46875s-0.16406-0.14062-0.29688-0.14062c-0.1875 0-0.33594 0.078125-0.4375 0.23438-0.09375 0.14844-0.14062 0.35938-0.14062 0.64062v1.4688h-0.96875v-1.5625c0-0.33203-0.03125-0.54688-0.09375-0.64062-0.054688-0.09375-0.15234-0.14062-0.29688-0.14062-0.17969 0-0.32031 0.078125-0.42188 0.23438-0.09375 0.14844-0.14062 0.35938-0.14062 0.64062v1.4688h-0.96875v-2.9844h0.96875v0.4375c0.11328-0.17578 0.24219-0.30469 0.39062-0.39062 0.15625-0.082031 0.32812-0.125 0.51562-0.125 0.20703 0 0.39062 0.054688 0.54688 0.15625 0.15625 0.09375 0.27344 0.23047 0.35938 0.40625z"/>
  </symbol>
  <symbol id="r" overflow="visible">
   <path d="m3.4688-1.8281v1.8281h-0.96875v-1.3906c0-0.25781-0.007812-0.4375-0.015625-0.53125-0.011719-0.10156-0.03125-0.17578-0.0625-0.21875-0.03125-0.0625-0.085937-0.10938-0.15625-0.14062-0.0625-0.039062-0.13281-0.0625-0.20312-0.0625-0.21094 0-0.37109 0.078125-0.48438 0.23438-0.10547 0.15625-0.15625 0.37109-0.15625 0.64062v1.4688h-0.96875v-4.1562h0.96875v1.6094c0.13281-0.17578 0.28516-0.30469 0.45312-0.39062 0.16406-0.082031 0.34375-0.125 0.53125-0.125 0.34375 0 0.60156 0.10938 0.78125 0.32812 0.1875 0.21094 0.28125 0.51172 0.28125 0.90625z"/>
  </symbol>
  <symbol id="q" overflow="visible">
   <path d="m0.5-3.9844h1.1562l1.4375 2.7344v-2.7344h0.98438v3.9844h-1.1562l-1.4375-2.7344v2.7344h-0.98438z"/>
  </symbol>
  <symbol id="p" overflow="visible">
   <path d="m0.42188-1.1719v-1.8125h0.96875v0.29688 0.60938 0.48438c0 0.24219 0.003906 0.41797 0.015625 0.53125 0.007812 0.10547 0.03125 0.17969 0.0625 0.21875 0.039062 0.0625 0.09375 0.11719 0.15625 0.15625 0.0625 0.03125 0.13281 0.046875 0.21875 0.046875 0.19531 0 0.35156-0.078125 0.46875-0.23438 0.11328-0.15625 0.17188-0.36719 0.17188-0.64062v-1.4688h0.95312v2.9844h-0.95312v-0.4375c-0.14844 0.17969-0.30469 0.30859-0.46875 0.39062-0.15625 0.082031-0.33594 0.125-0.53125 0.125-0.34375 0-0.60938-0.10156-0.79688-0.3125-0.17969-0.21875-0.26562-0.53125-0.26562-0.9375z"/>
  </symbol>
  <symbol id="o" overflow="visible">
   <path d="m0.5-3.9844h1.7031c0.50781 0 0.89844 0.11719 1.1719 0.34375 0.26953 0.21875 0.40625 0.53906 0.40625 0.95312 0 0.41797-0.13672 0.74219-0.40625 0.96875-0.27344 0.21875-0.66406 0.32812-1.1719 0.32812h-0.67188v1.3906h-1.0312zm1.0312 0.75v1.1094h0.5625c0.19531 0 0.34766-0.046875 0.45312-0.14062 0.11328-0.10156 0.17188-0.24219 0.17188-0.42188 0-0.17578-0.058594-0.3125-0.17188-0.40625-0.10547-0.09375-0.25781-0.14062-0.45312-0.14062z"/>
  </symbol>
  <symbol id="n" overflow="visible">
   <path d="m0.45312-2.9844h0.96875v2.9375c0 0.39453-0.10156 0.69531-0.29688 0.90625-0.1875 0.21875-0.46484 0.32812-0.82812 0.32812h-0.48438v-0.64062h0.17188c0.17578 0 0.29688-0.042969 0.35938-0.125 0.070312-0.074219 0.10938-0.23047 0.10938-0.46875zm0-1.1719h0.96875v0.78125h-0.96875z"/>
  </symbol>
  <symbol id="m" overflow="visible">
   <path d="m2.875-2.8906v0.76562c-0.125-0.082031-0.25781-0.14453-0.39062-0.1875-0.13672-0.039062-0.27344-0.0625-0.40625-0.0625-0.27344 0-0.48047 0.078125-0.625 0.23438-0.14844 0.15625-0.21875 0.37109-0.21875 0.64062 0 0.28125 0.070313 0.5 0.21875 0.65625 0.14453 0.15625 0.35156 0.23438 0.625 0.23438 0.14453 0 0.28516-0.019531 0.42188-0.0625 0.13281-0.039063 0.25781-0.10938 0.375-0.20312v0.78125c-0.14844 0.0625-0.29688 0.10156-0.45312 0.125-0.15625 0.03125-0.3125 0.046875-0.46875 0.046875-0.54297 0-0.96484-0.13281-1.2656-0.40625-0.30469-0.28125-0.45312-0.67188-0.45312-1.1719 0-0.48828 0.14844-0.86719 0.45312-1.1406 0.30078-0.28125 0.72266-0.42188 1.2656-0.42188 0.15625 0 0.3125 0.015625 0.46875 0.046875 0.15625 0.023437 0.30469 0.0625 0.45312 0.125z"/>
  </symbol>
 </defs>
 <g>
  <path d="m221.23 233.98c-2.4414 1.4336-4.7812 3.0547-6.9258 4.8242-5.7852 4.7812-9.6445 10.316-11.047 15.246l-3.1172 10.961-16.133 8.957c-6.4102 3.5547-11.879 8.3359-15.312 13.277-4.3398 6.2031-5.1523 12.316-3.3477 16.812 0 0 2.6367 6.5508 2.6367 6.5508l-11.734 10.566c-5.6016 5.0312-9.0234 10.695-9.9336 15.598-1.2461 6.6836 1.4336 11.91 7.2734 14.688l5.668 2.7031s-5.3477 8.7266-5.3477 8.7266c-3.9492 6.4414-4.0938 12.535-1.5977 16.867 2.4922 4.332 7.8398 7.2617 15.387 7.0742l1.5977-0.042969-0.37109 0.66797-17.531 1.6523c-7.4297 0.6875-14.012 2.9727-18.453 6.1562-6.0273 4.3203-8.0273 9.9531-6.6484 15.246l1.5391 5.8438-12.414 4.4062c-7.1172 2.5273-11.82 6.75-13.617 11.145-2.1875 5.3828-0.80859 11.145 4.75 15.816l5.9375 5-5.9375 5.0078c-5.5586 4.6719-6.9375 10.434-4.75 15.816 1.7969 4.3945 6.5 8.6172 13.617 11.145l12.414 4.3984-1.5391 5.8516c-1.3789 5.293 0.62109 10.926 6.6484 15.246 4.4414 3.1836 11.023 5.457 18.453 6.1562l17.531 1.6523s4.3984 7.8633 4.3984 7.8633c2.3281 4.1797 7.457 8.0391 14.688 10.215 6.2656 1.8828 13.684 2.4531 20.703 1.5547l18.223-2.3281 11.738 7.2383c4.8125 2.9648 11.613 4.9453 19.031 5.3477 7.2383 0.39453 14.5-0.71875 20.254-3.0508l14.734-5.9492s16.93 4.2656 16.93 4.2656c6.5078 1.6289 13.969 1.9023 20.836 0.74219 7.3945-1.2578 13.508-4.1211 17.184-7.6992l8.1797-7.9297 18.441 0.29688c7.3281 0.12109 14.449-1.3008 19.906-3.8633 6.8477-3.2148 10.609-8.1016 11.289-12.895l0.98438-7 15.453-3.293c0.44922-0.085937 0.89844-0.19531 1.3359-0.30469l3.8711 2.8203c5.4141 3.9609 12.227 7.0117 19.02 8.5117 7.3398 1.6172 14.078 1.2461 18.824-0.69141l10.555-4.2852s16.984 7.1836 16.984 7.1836c6.75 2.8672 13.891 4.2227 19.898 3.8945 7.5664-0.40234 12.871-3.5312 15.301-7.7227 0 0 3.543-6.1133 3.543-6.1133l15.555 2.7461c7.4141 1.3125 13.988 0.51562 18.406-1.7812 6.0273-3.1406 8.5-8.4688 7.0859-14.777l-1.3555-6.125 10.172-1.1719c7.5039-0.85156 12.395-4.4961 14.262-9.1211 1.8828-4.6367 0.89844-10.652-3.8906-16.484 0 0-6.5078-7.918-6.5078-7.918l5.2383-3.457c5.4023-3.5547 7.3398-9.0977 5.1836-15.539-1.2344-3.6758-4.0234-7.6016-8.1367-11.148 1.0508-1.1797 1.957-2.6016 2.6797-4.2734 1.9883-4.5625 2.3281-11.18 0.51172-18.484l-3.8047-15.324 5.8516-3.9609c4.0156-2.7109 6.7578-8.2227 6.6484-15.793-0.085937-6.0273-1.9219-13.047-5.25-19.578l-8.3438-16.461 3.5547-10.816c1.6094-4.8789 1.5078-11.629-0.60156-18.824-1.9688-6.6836-5.4805-13.277-9.8008-18.398l-11.254-13.352-1.0938-15.852c-0.4375-6.1992-2.6016-13.211-6.1367-19.555-3.6094-6.4844-8.3672-11.734-13.145-14.766l-11.648-7.3828-5.8867-17.391c-2.2617-6.7148-6.0273-13.125-10.465-17.938-5.1211-5.5469-10.84-8.4648-15.621-8.7383l-8.9883-0.50391-9.168-15.039c-3.8828-6.3672-8.8164-11.289-13.617-13.879-6.5273-3.5234-12.469-2.8672-16.613 0.69922l-4.5938 3.9375-1.3555-1.3359c0.066406-0.31641 0.12109-0.63281 0.18359-0.9375 1.3242-7.4375 0.21094-13.762-2.4609-17.73 0 0-5.0312-7.4727-5.0312-7.4727l6.4648-16.383c2.7344-6.9453 3.6875-13.848 2.8555-19.238-1.1367-7.3281-5.25-11.672-10.598-12.832l-5.9062-1.2773 1.6953-13.051c0.97266-7.5-0.67969-13.594-3.7852-17.191-3.8047-4.3867-9.5703-5.7656-16.242-2.9219l-7.1523 3.0312s-1.7734-7.5586-1.7734-7.5586c-1.6602-7.0664-6.1797-10.906-11.965-11.387-4.7266-0.39453-10.621 1.8945-16.102 7.1094l-9.5352 9.0664-4.5195-4.0117c-4.0898-3.6328-10.027-4.3867-16.602-0.97266-4.8438 2.5156-9.8555 7.3594-13.848 13.672l-9.4062 14.883-9 0.36328c-4.7812 0.18359-10.535 3.0195-15.75 8.4883-4.5195 4.7344-8.3789 11.09-10.754 17.762l-6.168 17.293-11.77 7.1953c-4.8203 2.9531-9.6562 8.125-13.375 14.559-3.6328 6.2773-5.918 13.254-6.4414 19.445l-1.3672 15.828-11.465 13.168c-4.3945 5.0625-8.0156 11.594-10.082 18.242-2.2305 7.1641-2.4414 13.914-0.91797 18.812l3.3906 10.875-8.6211 16.316c-0.65625 1.2578-1.2695 2.5391-1.8242 3.8164zm-38.438 151.08-5.7188 10.238c-0.875 1.5625-2.4727 2.6016-4.2656 2.7773l-20.398 1.9141c-5.2383 0.49219-9.9648 1.9141-13.094 4.168-1.5742 1.125-2.7969 2.1953-2.4375 3.5859l2.8008 10.707c0.72266 2.7461-0.78906 5.5898-3.457 6.543l-17.141 6.0703c-3.5312 1.2578-6.2656 2.7969-7.1523 4.9766-0.49219 1.2031 0.41797 2.2617 1.6641 3.3125l10.914 9.1875c1.2266 1.0391 1.9492 2.5703 1.9492 4.1797 0 1.6172-0.72266 3.1484-1.9492 4.1875l-10.914 9.1875c-1.2461 1.0508-2.1562 2.1094-1.6641 3.3125 0.88672 2.1797 3.6211 3.7188 7.1523 4.9766l17.141 6.0703c2.668 0.95312 4.1797 3.7969 3.457 6.543l-2.8008 10.707c-0.35937 1.3789 0.86328 2.4609 2.4375 3.5859 3.1289 2.2539 7.8555 3.6641 13.094 4.1562l20.398 1.9258c1.793 0.16406 3.3906 1.2031 4.2656 2.7773l5.7969 10.383c1.2695 2.2617 4.3633 3.8828 8.2891 5.0625 4.8906 1.4766 10.688 1.8828 16.168 1.1797l20.137-2.5703c1.2344-0.16406 2.4922 0.10937 3.5625 0.76562l13.391 8.2578c3.5 2.1562 8.4844 3.4375 13.891 3.7305 5.5547 0.30859 11.133-0.48047 15.562-2.2617l16.383-6.6172c1.0742-0.4375 2.2539-0.51563 3.3828-0.24219 0 0 18.656 4.7031 18.656 4.7031 5.1094 1.2812 10.961 1.4883 16.344 0.57031 4.8438-0.82031 8.9766-2.418 11.383-4.7578l9.8125-9.5156c1.0391-1.0195 2.4375-1.5781 3.8945-1.5547 0 0 20.715 0.33984 20.715 0.33984 5.5469 0.085938 10.961-0.88672 15.082-2.8242 2.7227-1.2773 4.8359-2.625 5.1094-4.5391l1.5195-10.773c0.32812-2.2734 2.0352-4.1016 4.2773-4.582 0 0 19.184-4.0898 19.184-4.0898 4.5703-0.97266 8.3438-2.6016 10.359-4.9531 0.82031-0.97656 1.0273-2.0586 0.33594-3.0547l-7.0078-10.172c-0.875-1.2656-1.1719-2.8633-0.82031-4.375 0.35938-1.4961 1.3438-2.7891 2.7109-3.5312l14.34-7.7969c2.2969-1.25 4.0898-2.4727 4.0898-4.2109 0-1.7305-1.793-2.9531-4.0898-4.2031l-14.34-7.8086c-1.3672-0.73047-2.3516-2.0234-2.7109-3.5312-0.35156-1.5-0.054687-3.0977 0.82031-4.375l7.0078-10.16c0.69141-0.99609 0.48438-2.0781-0.33594-3.0547-2.0156-2.3516-5.7891-3.9922-10.359-4.9648l-19.184-4.0781c-2.2422-0.48047-3.9492-2.3086-4.2773-4.582l-1.5195-10.773c-0.27344-1.9141-2.3867-3.2617-5.1094-4.5391-4.1211-1.9375-9.5352-2.9102-15.082-2.8242l-20.715 0.32812c-1.457 0.035156-2.8555-0.52344-3.8945-1.543l-9.8125-9.5156c-2.4062-2.3516-6.5391-3.9375-11.383-4.7578-5.3828-0.91797-11.234-0.71094-16.344 0.57031l-18.656 4.6914c-1.1289 0.28516-2.3086 0.20703-3.3828-0.23047l-16.383-6.6172c-4.4297-1.7812-10.008-2.5703-15.562-2.2617-5.4062 0.29297-10.391 1.5742-13.891 3.7305l-13.391 8.2578c-1.0703 0.64453-2.3281 0.91797-3.5625 0.76562l-20.137-2.5703c-5.4805-0.70313-11.277-0.29688-16.168 1.1797-3.0938 0.92969-5.6641 2.1328-7.25 3.707-0.28516 0.55859-0.66797 1.0742-1.1172 1.5zm252.05 111.04c4.0117 2.6602 8.8359 4.7031 13.637 5.7539 4.8125 1.0625 9.2305 1.1367 12.348-0.12891l12.668-5.1523c1.3438-0.54688 2.8555-0.53516 4.1875 0.03125 0 0 19.074 8.082 19.074 8.082 5.1094 2.1562 10.492 3.2812 15.039 3.043 3.0078-0.16406 5.4688-0.625 6.4336-2.2969l5.457-9.418c1.1602-1.9805 3.4219-3.0391 5.6875-2.6367l19.316 3.4023c4.6055 0.80859 8.7148 0.71094 11.461-0.71094 1.1289-0.58984 1.7188-1.5195 1.457-2.7031l-2.6797-12.051c-0.33984-1.5117-0.023438-3.0977 0.875-4.3633 0.90625-1.2578 2.2969-2.0781 3.8359-2.2539 0 0 16.223-1.8594 16.223-1.8594 2.5898-0.29688 4.7148-0.76562 5.3594-2.3633 0.65625-1.6094-0.54688-3.4141-2.2109-5.4375l-10.355-12.609c-0.99609-1.2031-1.4219-2.7578-1.1953-4.2891 0.24219-1.5391 1.1055-2.8984 2.4062-3.75l10.316-6.793c1.0039-0.66797 1.2227-1.75 0.82031-2.9648-0.97266-2.9297-3.8633-5.8594-7.7344-8.4766l-16.254-10.98c-1.9023-1.2891-2.7969-3.6289-2.2422-5.8516l2.625-10.566c0.46094-1.8672-0.98438-3.9023-3.0273-6.125-3.0977-3.3359-7.7461-6.2656-12.918-8.2656l-19.336-7.4609c-1.3594-0.52344-2.4531-1.5625-3.0312-2.8984l-5.5234-12.5c-1.3555-3.0742-4.582-6.1055-8.7734-8.6875-4.6484-2.8633-10.148-4.8672-15.355-5.5977l-19.062-2.6367c-1.1484-0.16406-2.2109-0.6875-3.0508-1.4883l-12.699-12.281c-3.4336-3.3164-8.3125-6.1367-13.586-7.9414-5.1055-1.75-10.215-2.4375-14.273-1.75l-10.172 1.7266c-3.793 3.0977-8.2344 5.7773-12.883 7.7227l-16.941 7.0781-6.5625 12.129c-2.6914 4.9766-7.5938 10.086-13.816 14.133-6.082 3.9688-12.926 6.6172-19.074 7.4805l-1.2812 0.17578 5.7969 5.6211 18.441-0.29688c7.3281-0.12109 14.449 1.3008 19.906 3.8633 6.8477 3.2148 10.609 8.1016 11.289 12.895l0.98438 7 15.453 3.2812c7.3516 1.5742 13.16 4.7773 16.387 8.5625 4.418 5.1641 4.7031 11.035 1.0273 16.352l-3.5547 5.1758 9 4.8984c6.6289 3.6094 9.8008 8.8047 9.8008 13.805 0 5.0078-3.1719 10.203-9.8008 13.812l-9 4.8984s3.5547 5.1758 3.5547 5.1758c3.6758 5.3164 3.3906 11.188-1.0273 16.352-0.94141 1.1055-2.1016 2.1523-3.4453 3.1367zm-68.898-20.344c-7.6562 7.3281-16.406 8.4141-26.16 7.1992-7.4062-0.91797-15.348-3.1289-23.832-5.3828-22.906-6.082-49.516-12.391-80.008 0.72266-2.7695 1.1914-4.0469 4.4062-2.8555 7.1875 1.1914 2.7656 4.4062 4.0547 7.1836 2.8633 33.613-14.457 62.082-2.5039 85.719 3.1055 18.352 4.3672 34.102 5.043 47.512-7.7969 2.1758-2.0781 2.2539-5.5469 0.16406-7.7344-2.0781-2.1758-5.543-2.25-7.7227-0.16406zm138.63-13.07c-12.742 5.0781-23.23-0.14062-34.508-7.8945-2.4805-1.7188-5.8945-1.082-7.6016 1.4102-1.7148 2.4844-1.082 5.8828 1.4023 7.6016 14.547 9.9961 28.328 15.586 44.754 9.0469 2.8125-1.1172 4.1797-4.3125 3.0625-7.1094-1.1133-2.8008-4.2969-4.168-7.1094-3.0547zm-187.12-47.293c-7.6562 7.3164-16.395 8.4102-26.152 7.1992-7.4023-0.92969-15.355-3.1289-23.844-5.3945-22.902-6.082-49.512-12.379-79.996 0.72266-2.7773 1.1914-4.0586 4.418-2.8672 7.1875 1.1953 2.7773 4.4102 4.0547 7.1875 2.8633 33.609-14.457 62.094-2.4922 85.719 3.1172 18.352 4.3555 34.102 5.043 47.512-7.7969 2.1875-2.0898 2.2617-5.5586 0.17578-7.7344-2.0898-2.1758-5.5586-2.2539-7.7344-0.16406zm259.94-2.3516c1.1484 0.14453 2-0.51172 2.4922-1.6523 1.2383-2.832 1.0625-6.9453-0.066406-11.484l-4.7344-19.031c-0.54688-2.2305 0.35156-4.5703 2.2539-5.8516l9.0117-6.0898c1.5977-1.082 1.8828-3.5664 1.8359-6.5859-0.0625-4.5508-1.5508-9.8438-4.0547-14.785l-9.3867-18.477c-0.65625-1.3008-0.76562-2.7969-0.31641-4.1758l4.2656-12.996c1.0508-3.1914 0.67969-7.6016-0.71094-12.324-1.543-5.2305-4.2773-10.414-7.668-14.426l-12.391-14.723c-0.75391-0.88672-1.2031-1.9922-1.2812-3.1523l-1.2227-17.617c-0.32813-4.7578-2.0703-10.117-4.7812-14.984-2.625-4.7266-5.9609-8.6523-9.4375-10.852l-13.281-8.4219c-1.0586-0.66797-1.8594-1.6836-2.25-2.8672l-6.5078-19.227c-1.7734-5.2383-4.6836-10.258-8.1484-14.012-2.7812-3.0195-5.5898-5.0977-8.1836-5.2383l-11.867-0.66797c-1.8047-0.097656-3.4336-1.0703-4.3633-2.6133l-10.664-17.5c-2.7461-4.4961-6.082-8.1172-9.4727-9.9414-1.707-0.92969-3.2148-1.5547-4.2969-0.625l-8.4023 7.207c-2.1523 1.8516-5.3672 1.7422-7.3906-0.25l-1.1953-1.1719c-1.125 2.332-2.4258 4.6055-3.8828 6.75l-10.312 15.18 0.99609 12.012c6.6289-0.86328 12.117 0.45703 15.562 3.1367 4.582 3.5664 6.2695 9.2539 3.7852 16.07l-2.6484 7.3047 7.6484 1.3672c7.1406 1.2695 11.219 5.5781 11.996 11.332 0.64453 4.7031-1.3125 10.707-6.2344 16.461l-8.543 10.008s4.2461 4.2969 4.2461 4.2969c3.8398 3.8945 4.9102 9.7773 1.8594 16.527-2.2539 4.9766-6.8242 10.238-12.906 14.547l-14.371 10.195 0.11719 9c0.035156 2.2734-0.51172 4.7891-1.6484 7.3945 5.2266-0.51562 11.484 0.29297 17.727 2.4375 6.8711 2.3516 13.18 6.1055 17.645 10.426l11.418 11.047s17.305 2.3945 17.305 2.3945c6.6367 0.91797 13.66 3.4648 19.586 7.1211 6.3906 3.9375 10.973 8.8789 13.051 13.582l4.5938 10.426 17.215 6.6367c6.8359 2.6484 12.906 6.6289 16.996 11.047 5.1523 5.5586 6.793 11.484 5.6211 16.188l-1.6953 6.8594zm-95.113-24.512c-11.254 4.4844-20.77 0.89844-30.625-5.3242-11.473-7.2188-23.285-17.883-37.746-26.449-2.6016-1.5312-5.9609-0.67578-7.4922 1.9258-1.543 2.5938-0.67578 5.9492 1.9141 7.4922 14.363 8.5 26.098 19.109 37.496 26.285 12.992 8.1914 25.656 12.148 40.488 6.2344 2.8125-1.1172 4.1797-4.3008 3.0625-7.1016-1.1133-2.8086-4.2969-4.1758-7.0977-3.0625zm-147.03-25.887c0.22656-0.066406 0.45703-0.12109 0.71094-0.15234l13.824-1.9375c4.7227-0.65625 9.9531-2.7578 14.621-5.7969 4.5312-2.9531 8.2148-6.5625 10.172-10.184l7.4727-13.824c0.60156-1.1055 1.5508-1.9688 2.6992-2.4492l18.738-7.8203c5.0977-2.1328 9.9102-5.3828 13.41-9.1016 2.8203-2.9844 4.6914-5.9258 4.6562-8.5312l-0.16406-11.879c-0.019532-1.8047 0.84375-3.5 2.3086-4.5391l16.715-11.844c4.3086-3.0508 7.6758-6.6406 9.2734-10.148 0.79688-1.7617 1.3242-3.3164 0.31641-4.3203l-7.7656-7.8867c-2-2.0117-2.1094-5.2305-0.27344-7.3945l11.812-13.824c2.4414-2.8438 4.0352-5.5469 3.7188-7.875-0.17578-1.293-1.4883-1.7617-3.0938-2.0469l-14.043-2.5039c-1.5859-0.28516-2.9648-1.2578-3.7734-2.6562-0.8125-1.4023-0.95312-3.0742-0.40625-4.5938l4.8672-13.41c0.55859-1.5312 0.80859-2.8984-0.21875-3.6992-1.8594-1.4414-5-1.4219-8.6719-0.74219l-17.883 3.293c-2.8008 0.51172-5.5234-1.1914-6.2695-3.9375l-2.918-10.676c-0.375-1.3789-1.9805-1.6953-3.9062-1.8906-3.8398-0.38281-8.6289 0.74219-13.422 2.9297l-18.637 8.5312c-1.6289 0.74219-3.5312 0.63281-5.0742-0.28516l-10.203-6.0898c-2.2344-1.3359-5.7227-1.1953-9.7148-0.25391-4.9766 1.1719-10.203 3.6992-14.602 7.043l-16.152 12.285c-0.99609 0.75391-2.2227 1.1484-3.4805 1.1133 0 0-15.715-0.46875-15.715-0.46875-4.1133-0.12109-9.0781 1.2695-13.902 3.707-4.9648 2.5039-9.4062 5.9727-12.348 9.7344l-10.895 13.914c-0.71094 0.91797-1.6953 1.5742-2.8125 1.8906 0 0-18.516 5.25-18.516 5.25-5.0547 1.4336-10.227 4.1797-14.438 7.6562-3.7969 3.1406-6.5742 6.5859-7.4922 9.8125l-3.7422 13.145c-0.39453 1.4023-1.332 2.582-2.6016 3.293l-18.125 10.051c-4.8438 2.6914-9.043 6.2344-11.648 9.9766-1.7266 2.4727-2.8867 4.6797-2.1641 6.4766l4.0586 10.105c0.85156 2.1211 0.29297 4.5586-1.4141 6.1016l-14.578 13.113c-3.4766 3.1289-5.9297 6.4336-6.4961 9.4727-0.23047 1.2461 0.12891 2.2852 1.2227 2.8125l11.156 5.3047c1.3906 0.66797 2.4531 1.9023 2.8906 3.3906 0.4375 1.4883 0.22656 3.082-0.58203 4.4062l-8.5312 13.926c-1.3672 2.2305-2.2969 4.1758-1.4336 5.6875 0.86719 1.4961 3.0195 1.6602 5.6328 1.5938l9.0156-0.21875c2.7539-2.5898 6.6797-4.8203 11.57-6.2969 6.2656-1.8828 13.684-2.4531 20.703-1.5547l18.223 2.3203s11.738-7.2305 11.738-7.2305c4.8125-2.9648 11.613-4.9453 19.031-5.3477 7.2383-0.39453 14.5 0.71875 20.254 3.0508 0 0 14.734 5.9492 14.734 5.9492s16.93-4.2656 16.93-4.2656c6.5078-1.6406 13.969-1.9141 20.836-0.74219 1.6641 0.28125 3.2695 0.64453 4.793 1.082zm-60.027-16.691c18.035 4.4297 31.336-4.0234 45.062-16.965 17.664-16.656 36.367-41.246 72.715-45.5 2.9961-0.34766 5.1406-3.0742 4.7891-6.0703-0.35156-2.9961-3.0742-5.1523-6.0703-4.7891-32.953 3.8594-52.859 22.605-69.672 39.309-6.2344 6.2031-12.008 12.074-17.961 16.57-7.8516 5.9297-15.969 9.3516-26.258 6.8242-2.9336-0.72266-5.8984 1.082-6.6172 4.0156-0.71094 2.9297 1.082 5.8945 4.0117 6.6055zm259.16-37.547c-9.9297-3.6758-14.742-11.059-17.926-20.367-2.418-7.0547-3.9062-15.16-5.6016-23.789-4.5586-23.254-10.555-49.93-35.688-71.598-2.2852-1.9688-5.7422-1.7148-7.7109 0.57031s-1.7188 5.7422 0.57031 7.7109c27.727 23.898 29.441 54.73 34.746 78.422 4.125 18.418 10.402 32.867 27.824 39.309 2.8359 1.0391 5.9844-0.40625 7.0234-3.2383 1.0508-2.832-0.40625-5.9805-3.2383-7.0195zm-284.55-18.836c18.039 4.4297 31.336-4.0234 45.074-16.965 17.664-16.656 36.367-41.246 72.703-45.5 2.9961-0.34766 5.1523-3.0742 4.8008-6.0703s-3.0742-5.1523-6.0703-4.8008c-32.965 3.8711-52.859 22.617-69.672 39.32-6.2344 6.2031-12.008 12.074-17.969 16.57-7.8438 5.9297-15.969 9.3516-26.25 6.8242-2.9336-0.72266-5.8984 1.082-6.6172 4.0039-0.72266 2.9297 1.0703 5.9062 4 6.6172zm171.34-105.19-1.2461-14.961c-0.10938-1.2461 0.21875-2.4922 0.91797-3.5234l11.41-16.789c3.1055-4.5703 5.3594-9.9297 6.2539-14.949 0.72266-4.0469 0.69141-7.5352-0.76562-9.6914l-6.625-9.8672c-1.0078-1.4844-1.2148-3.3789-0.55859-5.0625l7.5234-19.055c1.9375-4.8984 2.8008-9.7422 2.2109-13.562-0.28516-1.9141-0.69922-3.5-2.0898-3.793l-10.816-2.3516c-2.7773-0.60156-4.6289-3.2266-4.2656-6.0508l2.3281-18.023c0.48047-3.707 0.33984-6.8477-1.2031-8.6289-0.85156-0.98438-2.1992-0.65625-3.6953-0.023438l-13.137 5.5781c-1.4883 0.63672-3.1719 0.57031-4.6172-0.15234-1.4297-0.73437-2.4805-2.0547-2.8438-3.6328l-3.2578-13.891c-0.37109-1.5859-0.90625-2.8633-2.2109-2.9727-2.3398-0.19922-4.9531 1.543-7.6641 4.1211l-13.172 12.535c-2.0664 1.957-5.2695 2.0117-7.4023 0.13281l-8.2812-7.3516c-1.0586-0.94141-2.582-0.33984-4.2969 0.55859-3.4258 1.7734-6.8242 5.3359-9.6367 9.8008l-10.938 17.312c-0.96094 1.5312-2.6133 2.4844-4.4062 2.5508l-11.879 0.46875c-2.6055 0.10938-5.4375 2.1445-8.2695 5.1094-3.5312 3.6953-6.5195 8.6719-8.3672 13.879l-6.8125 19.117c-0.42969 1.1836-1.2383 2.1758-2.2969 2.832 0 0-13.422 8.2031-13.422 8.2031-3.5117 2.1445-6.9141 6.0156-9.6133 10.699-2.7891 4.8242-4.6172 10.16-5.0195 14.906l-1.5117 17.609c-0.097656 1.1484-0.55859 2.2422-1.3242 3.1172 0 0-12.633 14.527-12.633 14.527-3.4531 3.957-6.2773 9.0859-7.8945 14.305-1.4648 4.6914-1.9141 9.1016-0.91797 12.316l4.0547 13.047c0.4375 1.3906 0.29688 2.8867-0.38281 4.1797l-5.8047 10.992 12.926-3.6641 9.8008-12.504c3.8281-4.8984 9.5469-9.4922 16.023-12.762 6.6289-3.3477 13.508-5.0312 19.164-4.8672l13.781 0.40234 14.621-11.109c5.6328-4.2891 12.348-7.4922 18.715-8.9922 7.3516-1.7188 13.727-0.94141 17.828 1.5078l7.7344 4.6289 16.023-7.3281c6.7812-3.1055 13.625-4.418 19.062-3.8711 7.3711 0.73047 11.922 4.6133 13.367 9.8867l1.5859 5.8281zm-109.1-5.0742c3.5-10.27 5.4062-22.562 8.5547-35.449 4.4297-18.055 11.461-37.406 30.539-53.32 2.3164-1.9336 2.6328-5.3906 0.69922-7.6992-1.9375-2.3164-5.3828-2.6367-7.6992-0.69922-21.211 17.688-29.238 39.047-34.16 59.117-3.0742 12.547-4.8672 24.523-8.2891 34.52-0.97266 2.8555 0.55859 5.9609 3.4102 6.9453 2.8555 0.97266 5.9609-0.55859 6.9453-3.4141zm63.977-13.977c4.6914-14.406 12.238-28.984 27.199-41.465 2.3203-1.9258 2.625-5.3828 0.69922-7.6992-1.9336-2.3203-5.3906-2.625-7.7109-0.69922-16.777 14-25.32 30.316-30.59 46.473-0.92969 2.875 0.63281 5.9609 3.5117 6.9023 2.8633 0.92969 5.9492-0.63672 6.8906-3.5117z" fill-rule="evenodd"/>
  <use x="70" y="576.40625" xlink:href="#i"/>
  <use x="74.011719" y="576.40625" xlink:href="#c"/>
  <use x="76.710938" y="576.40625" xlink:href="#a"/>
  <use x="80.417969" y="576.40625" xlink:href="#g"/>
  <use x="84.109375" y="576.40625" xlink:href="#b"/>
  <use x="86.722656" y="576.40625" xlink:href="#a"/>
  <use x="90.433594" y="576.40625" xlink:href="#f"/>
  <use x="96.25" y="576.40625" xlink:href="#l"/>
  <use x="100.167969" y="576.40625" xlink:href="#k"/>
  <use x="105.636719" y="576.40625" xlink:href="#j"/>
  <use x="109.867188" y="576.40625" xlink:href="#h"/>
  <use x="113.761719" y="576.40625" xlink:href="#f"/>
  <use x="117.675781" y="576.40625" xlink:href="#d"/>
  <use x="119.550781" y="576.40625" xlink:href="#b"/>
  <use x="122.164062" y="576.40625" xlink:href="#d"/>
  <use x="124.039062" y="576.40625" xlink:href="#d"/>
  <use x="127.816406" y="576.40625" xlink:href="#i"/>
  <use x="131.832031" y="576.40625" xlink:href="#c"/>
  <use x="134.527344" y="576.40625" xlink:href="#a"/>
  <use x="138.238281" y="576.40625" xlink:href="#g"/>
  <use x="141.925781" y="576.40625" xlink:href="#b"/>
  <use x="144.542969" y="576.40625" xlink:href="#d"/>
  <use x="146.414062" y="576.40625" xlink:href="#u"/>
  <use x="149.980469" y="576.40625" xlink:href="#a"/>
  <use x="70" y="581.875" xlink:href="#t"/>
  <use x="72.378906" y="581.875" xlink:href="#c"/>
  <use x="75.078125" y="581.875" xlink:href="#e"/>
  <use x="78.832031" y="581.875" xlink:href="#s"/>
  <use x="86.4375" y="581.875" xlink:href="#b"/>
  <use x="89.050781" y="581.875" xlink:href="#r"/>
  <use x="92.941406" y="581.875" xlink:href="#a"/>
  <use x="98.554688" y="581.875" xlink:href="#q"/>
  <use x="103.132812" y="581.875" xlink:href="#e"/>
  <use x="106.890625" y="581.875" xlink:href="#p"/>
  <use x="110.785156" y="581.875" xlink:href="#h"/>
  <use x="116.582031" y="581.875" xlink:href="#o"/>
  <use x="120.589844" y="581.875" xlink:href="#c"/>
  <use x="123.285156" y="581.875" xlink:href="#e"/>
  <use x="127.042969" y="581.875" xlink:href="#n"/>
  <use x="128.917969" y="581.875" xlink:href="#a"/>
  <use x="132.625" y="581.875" xlink:href="#m"/>
  <use x="135.867188" y="581.875" xlink:href="#b"/>
 </g>
</svg>
